<svg xmlns="http://www.w3.org/2000/svg" xmlns:xlink="http://www.w3.org/1999/xlink" width="1133" zoomAndPan="magnify" viewBox="0 0 850.5 850.499973" height="1133" preserveAspectRatio="xMidYMid meet" version="1.0"><defs><clipPath id="662420acd1"><path d="M 7.953125 1.039062 L 842.0625 1.039062 L 842.0625 849.558594 L 7.953125 849.558594 Z M 7.953125 1.039062 " clip-rule="nonzero"/></clipPath></defs><g clip-path="url(#662420acd1)"><path fill="#404040" d="M 727.855469 652.367188 C 723.660156 653.011719 724.113281 652.976562 714.722656 654.503906 C 739.035156 630.523438 759.773438 602.710938 775.890625 571.992188 C 783.582031 569.78125 791.253906 567.382812 798.851562 564.800781 C 780.238281 602.351562 758.171875 628.828125 727.855469 652.367188 Z M 729.011719 731.800781 C 732.070312 744.101562 735.882812 771.082031 735.882812 771.082031 C 735.882812 771.082031 701.570312 774.996094 688.40625 772.644531 C 674.621094 770.183594 667.070312 760.273438 654.539062 755.230469 C 644.21875 751.101562 632.425781 748.746094 621.304688 749.261719 L 615.699219 721.410156 C 618.316406 720.3125 620.910156 719.128906 623.476562 717.933594 C 623.691406 717.933594 624.003906 717.921875 624.207031 717.910156 L 624.183594 717.613281 C 624.578125 717.433594 624.972656 717.277344 625.355469 717.097656 C 625.390625 717.097656 625.425781 717.0625 625.460938 717.0625 C 662.863281 703.652344 689.21875 692.519531 717.628906 671.453125 C 717.042969 682.070312 727.316406 724.945312 729.011719 731.800781 Z M 599.929688 712.203125 C 543.820312 716.488281 529.972656 719.09375 586.503906 718.601562 C 573.804688 724.203125 560.6875 728.898438 547.1875 732.578125 C 547.234375 732.578125 547.234375 732.578125 547.273438 732.613281 C 545.382812 733.054688 543.472656 733.496094 541.597656 733.902344 C 538.46875 703.054688 538.144531 700.988281 534.332031 696.4375 C 569.265625 694.300781 607.816406 690.273438 645.878906 683.242188 C 639.664062 688.03125 633.238281 692.484375 626.679688 696.746094 C 549.886719 705.382812 539.675781 708.644531 614.589844 704.1875 C 609.777344 706.996094 604.902344 709.695312 599.929688 712.203125 Z M 544.285156 770.734375 C 543.542969 760.234375 544.140625 768.632812 542.183594 741.308594 C 548.742188 739.898438 555.417969 738.394531 562.085938 736.695312 C 562.132812 736.707031 562.503906 736.804688 562.5625 736.804688 C 580.183594 730.59375 594.363281 730.128906 608.734375 724.324219 L 613.847656 749.703125 C 606.191406 750.847656 588.246094 755.554688 544.285156 770.734375 Z M 530.796875 841.101562 C 462.679688 841.101562 458.890625 843.464844 456.695312 833.996094 C 440.878906 765.253906 349.714844 764.691406 294.652344 764.105469 C 268.789062 763.808594 244.167969 767.832031 222.832031 783.417969 C 215.171875 789.042969 211.078125 806.65625 200.203125 804.960938 C 200.027344 804.960938 147.292969 796.816406 147.292969 796.816406 C 151.453125 779.796875 168.222656 711.9375 175.367188 696.136719 C 274.199219 758.574219 392.902344 752.867188 484.730469 703.6875 L 509.390625 699.195312 C 519.808594 697.285156 529.613281 704.796875 530.425781 715.367188 L 539.636719 831.523438 C 540.042969 836.683594 535.957031 841.101562 530.796875 841.101562 Z M 56.980469 570.175781 C -130.066406 242.296875 305.40625 -74.953125 504.121094 233.027344 L 504.121094 233.066406 C 599.667969 381.085938 558.691406 613.207031 384.464844 689.425781 C 286.433594 734.714844 136.757812 710.804688 56.980469 570.175781 Z M 439.550781 123.058594 C 427.546875 126.34375 418.550781 129.6875 412.804688 132.085938 C 369.246094 107.59375 317.878906 95.351562 260.425781 100.703125 C 326.5625 86.261719 372.84375 85.703125 439.550781 123.058594 Z M 433.996094 698.5625 C 365.113281 735.023438 290.351562 743.753906 216.320312 710.277344 C 275.503906 727.535156 339.140625 722.566406 396.28125 695.613281 C 406.519531 701 422.671875 698.5625 433.996094 698.5625 Z M 545.648438 594.527344 C 525.230469 626.34375 500.109375 653.035156 472.90625 673.675781 C 472.164062 673.675781 441.558594 673.242188 441.523438 673.972656 C 441.460938 674.953125 468.03125 676.527344 469 676.578125 C 461.6875 681.9375 454.246094 686.882812 446.707031 691.347656 C 428.609375 691.074219 424.402344 691.398438 410.820312 688.28125 C 449.847656 666.867188 487.636719 633.042969 514.835938 592.320312 C 520.632812 592.878906 531.277344 593.789062 545.648438 594.527344 Z M 589.035156 406.65625 C 592.953125 406.546875 596.515625 406.285156 599.394531 405.902344 C 599.609375 429.476562 597.519531 453.484375 592.703125 477.453125 C 578.558594 477.609375 567.570312 477.644531 561.417969 477.644531 C 569.050781 437.335938 568.976562 395.929688 562.085938 355.921875 C 569.121094 355.8125 580.769531 355.636719 595.355469 355.40625 C 597.722656 370.609375 599.070312 386.183594 599.382812 401.960938 C 596.46875 401.699219 592.859375 401.578125 588.90625 401.6875 C 579.40625 401.949219 571.738281 403.273438 571.773438 404.648438 C 571.808594 406.035156 579.539062 406.929688 589.035156 406.65625 Z M 510.046875 223.773438 C 486.609375 188.566406 456.539062 158.503906 420.867188 136.757812 C 427.472656 134.261719 436.753906 131.167969 448.464844 128.289062 C 484.804688 150.433594 516.425781 180.828125 541.191406 217.144531 C 527.441406 219.546875 516.796875 222.042969 510.046875 223.773438 Z M 545.648438 223.820312 C 554.871094 238.070312 563.015625 253.210938 570.054688 269.050781 C 564.582031 268.011719 543.414062 268.140625 543.542969 271.507812 C 543.59375 272.894531 550.234375 273.730469 558.382812 273.421875 C 563.925781 273.203125 568.679688 272.558594 571.164062 271.699219 C 581.570312 295.695312 589.417969 321.273438 594.136719 348.074219 C 579.179688 348.300781 567.460938 348.480469 560.757812 348.589844 C 552.539062 306.335938 536.734375 265.882812 514.253906 230.34375 C 521.394531 228.527344 532.125 226.101562 545.648438 223.820312 Z M 545.039062 555.128906 C 541.324219 554.769531 538 554.867188 535.945312 555.320312 C 546.839844 532.6875 554.820312 509.078125 559.945312 484.976562 C 565.035156 485.082031 582.703125 484.953125 591.078125 484.855469 C 583.050781 521.042969 569.230469 555.859375 550.101562 587.386719 C 536.6875 586.765625 526.152344 585.953125 519.378906 585.355469 C 525.0625 576.363281 530.152344 567.121094 534.789062 557.71875 C 536.484375 558.722656 540.175781 559.65625 544.570312 560.085938 C 550.652344 560.671875 555.671875 560.179688 555.8125 558.664062 C 555.933594 557.433594 551.117188 555.714844 545.039062 555.128906 Z M 593.371094 595.53125 C 569.3125 635.386719 536.890625 669.613281 504.15625 692.640625 C 489.09375 695.410156 486.417969 695.480469 478.878906 698.609375 L 478.6875 698.609375 C 472.820312 701.273438 432.179688 724.226562 369.652344 731.726562 C 369.617188 731.726562 369.570312 731.726562 369.570312 731.726562 C 679.78125 660.082031 687.867188 172.871094 379.304688 89.273438 C 567.113281 88.710938 730.183594 375.328125 593.371094 595.53125 Z M 417.078125 45.179688 C 420.890625 -8.707031 496.90625 9.113281 505.28125 27.945312 C 511.410156 41.726562 511.371094 62.566406 503.464844 75.835938 C 493.117188 93.164062 469.800781 91.351562 452.847656 85.90625 C 450.039062 84.996094 447.496094 83.5625 444.722656 82.667969 C 442.347656 81.902344 439.96875 81.210938 438.441406 79.050781 C 437.542969 77.796875 437.148438 76.265625 436.828125 74.761719 C 435.429688 68.253906 434.414062 60.8125 434.414062 54.160156 C 429.777344 61.480469 430.589844 72.183594 432.179688 80.386719 C 431.308594 80.28125 430.4375 80.171875 429.492188 80.039062 C 426.328125 68.765625 426.136719 58.066406 426.78125 50.46875 C 427.402344 42.800781 428.535156 38.132812 427.867188 37.917969 C 427.4375 37.761719 425.035156 42.085938 423.171875 49.957031 C 421.429688 57.207031 420.507812 67.65625 422.527344 79.144531 C 418.8125 74.140625 416.925781 51.773438 417.078125 45.179688 Z M 580.101562 116.3125 C 545.347656 111.308594 515.027344 111.414062 489.820312 113.921875 C 476.144531 105.527344 461.84375 98.15625 446.992188 91.972656 C 491.113281 95.613281 536.808594 103.316406 580.101562 116.3125 Z M 611.832031 129.652344 C 649.378906 150.945312 682.289062 180.707031 708.382812 216.59375 C 665.195312 208.785156 624.46875 208.449219 590.757812 210.996094 C 587.878906 206.753906 584.902344 202.597656 581.84375 198.503906 C 602.65625 202.695312 658.207031 198.980469 657.789062 195.289062 C 657.5625 193.28125 582.644531 196.507812 580.636719 196.890625 C 557.964844 166.839844 530.691406 140.949219 499.953125 120.445312 C 561.546875 116 608.152344 129.652344 611.832031 129.652344 Z M 666.269531 666.066406 C 663.605469 668.515625 660.929688 670.949219 658.195312 673.292969 C 658.195312 673.292969 605.402344 685.460938 521.957031 689.796875 C 526.902344 685.855469 531.695312 681.722656 536.425781 677.484375 C 577.6875 676.578125 619.964844 673.230469 666.269531 666.066406 Z M 731.257812 582.632812 C 715.273438 612.097656 695.046875 638.515625 671.621094 661.039062 C 622.269531 667.882812 581.390625 671.105469 541.679688 672.660156 C 565.585938 650.300781 586.421875 624.324219 603.324219 595.414062 C 640.574219 594.792969 685.492188 591.589844 731.257812 582.632812 Z M 728.84375 386.042969 C 747.160156 384.285156 762.796875 381.253906 770.527344 379.078125 C 771.851562 391.140625 772.53125 403.226562 772.617188 415.242188 C 766.535156 414.957031 738.535156 416.519531 738.84375 419.949219 C 739.15625 423.351562 767.3125 419.851562 772.617188 418.71875 C 772.570312 435.113281 771.457031 451.367188 769.222656 467.21875 C 730.9375 472.183594 685.71875 474.765625 646.761719 476.164062 C 647.574219 471.503906 648.300781 466.789062 648.9375 462.046875 C 649.9375 462.011719 650.917969 461.984375 651.945312 461.925781 C 674.644531 460.707031 692.527344 455.917969 692.207031 454.5 C 691.953125 453.21875 673.941406 455.777344 651.671875 456.957031 C 650.929688 457.007812 650.226562 457.03125 649.507812 457.066406 C 653.464844 424.054688 653.105469 389.253906 647.539062 354.667969 C 686.675781 354.191406 731.304688 353.605469 766.75 353.269531 C 768.207031 361.082031 769.332031 368.925781 770.25 376.796875 C 769.511719 376.84375 681.121094 385.347656 681.121094 386.078125 C 681.09375 387.402344 702.539062 388.621094 728.84375 386.042969 Z M 643.5 333.648438 C 634.183594 291.632812 617.683594 252.542969 595.390625 217.992188 C 629.703125 215.710938 670.976562 216.558594 714.496094 225.289062 C 725.203125 241.054688 734.53125 257.964844 742.511719 275.726562 C 735.082031 276.511719 724.136719 277.863281 711.855469 278.878906 C 689.578125 280.824219 671.359375 280.824219 671.289062 282.269531 C 671 285.960938 715.546875 286.089844 743.863281 278.722656 C 753.144531 299.957031 760.429688 322.433594 765.316406 345.902344 C 729.679688 346.273438 685.203125 346.820312 646.285156 347.335938 C 645.6875 344.050781 645.027344 340.765625 644.347656 337.503906 C 684.355469 337.375 782.628906 320.929688 643.5 333.648438 Z M 638.050781 563.882812 C 631.316406 563.90625 625.078125 563.859375 619.703125 563.859375 C 631.195312 538.671875 639.902344 511.800781 645.398438 483.652344 C 684.09375 482.359375 729.238281 479.78125 768.042969 474.835938 C 762.257812 510.285156 751.160156 543.734375 735.726562 574.203125 C 690.210938 583.625 645.21875 587.160156 607.554688 588.007812 C 611.171875 581.464844 614.542969 574.75 617.753906 567.933594 C 623.527344 568.492188 630.464844 568.886719 638.066406 568.851562 C 657.941406 568.839844 673.890625 566.199219 673.738281 564.730469 C 673.605469 563.453125 657.65625 563.871094 638.050781 563.882812 Z M 711.25 657.898438 C 716.398438 656.8125 720.890625 655.796875 724.53125 654.898438 C 724.007812 655.292969 723.503906 655.699219 722.96875 656.09375 L 722.894531 655.867188 C 718.175781 657.492188 713.421875 659.078125 708.558594 660.511719 C 709.480469 659.652344 710.339844 658.757812 711.25 657.898438 Z M 701.453125 174.378906 C 717.996094 189.699219 732.953125 206.753906 746 225.324219 L 746.035156 225.324219 C 748.246094 228.453125 750.421875 231.667969 752.488281 234.902344 L 752.523438 234.902344 C 817.570312 334.496094 823.160156 461.832031 769.367188 566.164062 L 769.332031 566.164062 C 750.945312 602.484375 723.363281 637.703125 689.734375 665.886719 L 689.695312 665.886719 C 686.734375 668.394531 662.386719 686.65625 644.539062 699.996094 L 644.109375 695.085938 C 650.546875 690.394531 657.214844 685.222656 663.714844 679.667969 L 663.75 679.667969 C 696.433594 651.710938 722.730469 617.78125 742.058594 580.386719 L 742.09375 580.386719 C 792.003906 483.171875 792.757812 370.191406 751.902344 275.953125 C 752.761719 275.414062 752.558594 275.152344 751.53125 275.078125 C 728.523438 222.410156 692.539062 175.621094 644.742188 140.816406 C 680.355469 157.691406 701.453125 174.378906 701.453125 174.378906 Z M 764.242188 230.925781 C 762.402344 230.34375 760.597656 229.707031 758.792969 229.125 C 758.746094 229.125 758.746094 229.125 758.746094 229.125 C 755.101562 223.558594 751.304688 218.148438 747.328125 212.871094 C 753.261719 218.734375 758.902344 224.730469 764.242188 230.925781 Z M 773.417969 242.046875 C 796.855469 271.855469 814.070312 305.785156 824.164062 345.601562 C 819.996094 345.566406 814.214844 345.566406 807.175781 345.601562 C 799.257812 307.21875 784.765625 271.269531 765.054688 239.035156 C 767.851562 239.992188 770.621094 240.984375 773.417969 242.046875 Z M 831.203125 454.425781 C 825.457031 456.457031 818.777344 458.332031 811.371094 459.992188 C 816.042969 424.773438 815.207031 388.324219 808.648438 352.972656 C 816.089844 352.9375 821.992188 352.9375 825.933594 352.972656 C 833.710938 386.757812 834.929688 421.238281 831.203125 454.425781 Z M 803.378906 555.367188 C 795.828125 558.125 788.160156 560.632812 780.453125 562.964844 C 794.789062 533.488281 804.96875 501.515625 810.234375 467.839844 C 817.535156 466.261719 824.238281 464.496094 830.175781 462.570312 C 825.636719 495.726562 816.171875 527.335938 803.378906 555.367188 Z M 699.984375 161.71875 C 664.609375 137.640625 623.871094 118.210938 582.789062 106.757812 C 576.863281 105.109375 511.410156 85.714844 510.046875 90.347656 C 516.128906 69.675781 516.941406 55.066406 514.121094 37.523438 C 504.539062 -22.144531 373.476562 -9.234375 413.617188 80.613281 C 257.570312 74.117188 126.246094 110.734375 50.050781 245.558594 C -36.882812 399.476562 14.652344 611.691406 169.40625 691.527344 C 162.585938 704.75 147.03125 767.199219 140.699219 792.695312 C 139.339844 798.179688 142.910156 803.636719 148.511719 804.628906 C 172.429688 808.761719 194.242188 811.816406 208.6875 813.835938 C 214.0625 814.613281 219.257812 810.8125 219.703125 805.402344 C 222.472656 771.210938 292.96875 769.085938 334.722656 774.160156 C 398.242188 781.496094 406.9375 788.195312 424.628906 801.796875 C 434.617188 809.273438 447.148438 825.671875 450.207031 841.652344 C 450.9375 845.628906 454.402344 848.46875 458.425781 848.683594 C 490.109375 850.382812 522.914062 849.128906 539.269531 848.734375 C 544.214844 848.578125 548.085938 844.457031 547.894531 839.511719 C 547.308594 824.371094 546.269531 797.738281 544.621094 775.199219 L 545.609375 778.066406 C 579.585938 766.328125 618.234375 745.867188 653.761719 762.921875 C 664.894531 768.273438 669.171875 778.582031 682.21875 779.835938 C 692.21875 780.800781 702.46875 781.242188 712.515625 781.148438 C 720.433594 781.066406 736.96875 781.207031 743.980469 776.980469 C 749.703125 773.527344 746.621094 767.84375 745.652344 762.003906 C 743.753906 750.65625 740.898438 739.382812 738.535156 728.109375 C 734.089844 706.910156 729.632812 685.699219 725.175781 664.488281 C 877.949219 553.921875 892.390625 292.660156 699.984375 161.71875 " fill-opacity="1" fill-rule="nonzero"/></g><path fill="#404040" d="M 246.976562 436.929688 L 246.125 448.203125 C 205.390625 451.609375 205.367188 452.550781 205.449219 441.789062 C 205.519531 430.539062 206.09375 433.15625 246.976562 436.929688 Z M 292.265625 436.859375 C 338.949219 431.820312 331.171875 428.714844 331.171875 448.394531 C 330.839844 451.082031 320.074219 449.351562 292.921875 447.65625 Z M 280.210938 664.300781 C 273.902344 663.296875 266.855469 661.742188 259.054688 659.472656 C 257.882812 652.773438 256.425781 647.9375 255.335938 647.996094 C 254.511719 648.042969 253.664062 652.046875 253.175781 657.707031 C 247.5 655.867188 241.457031 653.667969 235.027344 651.007812 C 237.609375 644.414062 241.957031 638.121094 249.183594 632.328125 C 255.160156 634.679688 269.972656 642.644531 295.023438 637.679688 C 300.589844 641.90625 308.476562 653.144531 325.796875 653.144531 C 347.207031 653.144531 364.597656 633.582031 364.597656 609.566406 C 364.597656 603.28125 363.40625 597.429688 361.339844 592.140625 L 361.351562 591.496094 C 361.324219 591.496094 361.300781 591.496094 361.277344 591.496094 C 361.207031 591.507812 361.136719 591.507812 361.0625 591.507812 C 352.617188 570.761719 330.230469 559.40625 309.65625 569.996094 C 309.429688 569.628906 309.144531 569.257812 308.953125 568.886719 L 305.609375 570.808594 C 305.609375 552.835938 306.492188 550.578125 302.800781 547.675781 C 302.800781 537.871094 304.246094 530.429688 296.46875 526.226562 C 296.46875 516.398438 290.53125 511.539062 283.675781 511.464844 C 283.949219 510.257812 283.972656 509.113281 283.339844 507.226562 C 291.070312 505.113281 290.925781 492.824219 280.316406 492.824219 L 280.316406 456.3125 C 283.675781 456.3125 286.148438 456.71875 288.691406 454.761719 C 340.027344 457.472656 338.542969 462.953125 338.542969 434.503906 C 338.542969 429.273438 333.132812 425.214844 326.417969 425.777344 L 288.359375 429.859375 C 285.40625 427.828125 284.449219 428.570312 255.039062 428.570312 C 253.496094 428.570312 252.0625 429.046875 250.882812 429.859375 C 213.011719 426.382812 192.535156 418.894531 198.808594 449.351562 C 201.171875 461.164062 215.78125 457.53125 251.324219 455.273438 C 253.640625 456.648438 255.933594 456.3125 258.910156 456.3125 L 258.910156 492.824219 C 244.835938 492.824219 247.488281 507.511719 256.519531 507.511719 C 255.996094 509.078125 256.066406 510.140625 256.257812 511.539062 C 249.566406 511.980469 244.167969 516.566406 244.167969 527.121094 C 238.050781 531.613281 239.269531 537.320312 239.269531 547.675781 C 235.589844 550.578125 236.4375 552.871094 236.4375 570.441406 L 232.890625 581.605469 C 226.628906 584.59375 204.375 596.84375 190.445312 626.285156 C 188.367188 624.816406 186.3125 623.3125 184.28125 621.769531 C 183.585938 594.910156 182.285156 569.710938 181.257812 546.710938 C 180.015625 521.652344 178.917969 499.273438 177.984375 480.570312 C 176.992188 461.878906 176.191406 446.867188 175.632812 436.511719 C 175.332031 431.351562 175.09375 427.351562 174.925781 424.628906 C 174.734375 421.917969 174.566406 420.496094 174.414062 420.496094 C 174.28125 420.496094 174.160156 421.929688 174.054688 424.664062 C 173.921875 427.398438 173.898438 431.425781 173.863281 436.632812 C 173.851562 447.035156 174.042969 462.128906 174.414062 480.878906 C 174.878906 499.640625 175.417969 522.058594 176.027344 547.128906 C 176.539062 568.550781 177.339844 592.019531 177.722656 616.636719 C 173.945312 613.566406 170.265625 610.375 166.683594 607.09375 C 166.121094 579.195312 165.226562 556.058594 164.28125 546.316406 L 162.429688 546.316406 C 162.453125 546.480469 162.464844 546.589844 162.476562 546.757812 C 161.652344 555.988281 160.769531 576.28125 160.183594 600.941406 C 154.472656 595.316406 149.027344 589.40625 143.867188 583.207031 L 145.203125 583.207031 C 145.203125 583.171875 145.203125 583.125 145.203125 583.074219 C 144.476562 541.550781 143.113281 509.246094 141.859375 509.246094 C 140.855469 509.246094 139.457031 538.46875 138.644531 576.746094 C 132.097656 568.3125 126.054688 559.417969 120.546875 550.078125 C 119.792969 520.101562 118.503906 497.253906 117.296875 497.253906 C 116.402344 497.253906 115.207031 514.714844 114.382812 538.945312 C 110.355469 531.242188 106.675781 523.277344 103.378906 515.046875 C 103.402344 514.070312 103.425781 513.101562 103.4375 512.121094 L 103.4375 511.992188 L 103.164062 511.992188 C 102.804688 496.753906 102.351562 483.4375 101.863281 473.558594 C 101.300781 462.285156 100.691406 455.5 100.105469 455.5 C 99.605469 455.5 98.996094 462.320312 98.421875 473.617188 C 98.074219 480.484375 97.742188 489.035156 97.429688 498.6875 C 86.378906 464.925781 81.363281 427.304688 83.726562 386.722656 C 85.53125 365.917969 89.535156 345.949219 95.375 327.066406 C 96.054688 335.679688 96.867188 341.207031 97.644531 341.207031 C 98.648438 341.207031 100.046875 328.152344 100.859375 311.0625 C 106.664062 295.65625 113.726562 281.0625 121.847656 267.460938 C 122.613281 292.398438 123.675781 309.847656 124.667969 309.847656 C 125.613281 309.847656 126.902344 287.8125 127.726562 258.050781 C 132.027344 251.492188 136.589844 245.199219 141.367188 239.167969 C 142.144531 272.203125 143.269531 295.859375 144.320312 295.859375 C 145.289062 295.859375 146.601562 268.511719 147.414062 231.835938 C 150.351562 228.40625 153.363281 225.0625 156.457031 221.839844 C 158.976562 297.878906 162.429688 245.808594 162.429688 216.679688 L 163.804688 215.164062 C 168.703125 210.253906 170.242188 208.332031 175.464844 203.9375 C 175.917969 274.039062 176.933594 326.566406 178.105469 326.578125 C 179.121094 326.578125 180.769531 271.140625 181.890625 198.730469 C 190.851562 191.71875 200.21875 185.472656 209.90625 180.050781 C 211.78125 237.757812 214.671875 232.132812 216.417969 176.550781 C 220.957031 174.222656 225.554688 172.085938 230.203125 170.125 C 232.054688 208.222656 234.875 205.847656 236.664062 167.523438 C 240.800781 165.957031 244.980469 164.523438 249.183594 163.246094 C 250.90625 233.089844 253.75 237.832031 255.683594 161.394531 C 264.882812 158.972656 274.214844 157.273438 283.636719 156.34375 C 285.382812 250.15625 288.035156 254.527344 289.96875 155.832031 C 293.949219 155.578125 297.925781 155.449219 301.917969 155.472656 C 302.65625 245.722656 303.996094 315.507812 305.238281 315.507812 C 306.289062 315.507812 307.757812 245.425781 308.546875 155.652344 C 313.421875 155.878906 318.296875 156.332031 323.167969 156.988281 C 324.984375 196.472656 327.671875 200.652344 329.523438 157.957031 C 335.414062 158.972656 341.304688 160.332031 347.167969 162.003906 L 346.117188 162.003906 C 346.117188 215.175781 350.25 281.480469 352.761719 163.710938 C 356.847656 165.027344 360.917969 166.507812 364.980469 168.15625 L 362.078125 168.15625 C 362.078125 185.292969 365.914062 232.074219 368.695312 169.683594 C 372.902344 171.5 377.082031 173.503906 381.242188 175.691406 C 382.9375 227.238281 385.566406 230.222656 387.546875 179.15625 C 394.5 183.144531 401.394531 187.644531 408.179688 192.710938 L 406.304688 192.710938 C 406.304688 218.015625 410.078125 281.171875 412.875 196.339844 C 416.554688 199.253906 422.824219 203.914062 432.046875 212.367188 L 431.738281 212.367188 C 431.761719 214.398438 437.710938 545.753906 439.742188 545.71875 C 440.792969 545.707031 440.269531 402.164062 438.476562 218.46875 C 449.417969 229.242188 459.191406 240.804688 467.78125 253.007812 C 468.519531 285.589844 469.847656 310.597656 471.066406 310.597656 C 471.996094 310.597656 473.265625 290.210938 474.089844 262.46875 C 478.972656 270.113281 483.429688 277.980469 487.445312 286.042969 L 487.371094 286.042969 C 487.371094 287.941406 488.816406 315.507812 490.71875 315.507812 C 491.492188 315.507812 492.496094 308.640625 493.285156 298.570312 C 520.152344 360.339844 522.878906 431.136719 503.175781 494.269531 C 502.425781 474.464844 501.457031 461.03125 500.539062 461.03125 C 499.558594 461.03125 498.207031 482.457031 497.382812 510.890625 C 495.125 516.804688 492.664062 522.621094 489.988281 528.351562 C 489.210938 493.074219 488.078125 467.777344 487.027344 467.777344 C 486.035156 467.777344 484.648438 499.222656 483.835938 540.605469 C 476.777344 553.863281 468.570312 566.5 459.238281 578.320312 C 458.472656 555.355469 457.363281 539.007812 456.324219 539.007812 C 455.34375 539.007812 454.007812 559.035156 453.183594 585.691406 C 450.410156 588.9375 447.554688 592.152344 444.59375 595.257812 C 443.828125 571.898438 442.667969 554.972656 441.582031 554.972656 C 440.578125 554.972656 439.191406 575.097656 438.378906 601.550781 C 432.214844 607.558594 425.679688 613.253906 418.8125 618.617188 C 418.046875 600.953125 416.875 588.128906 415.789062 588.128906 C 414.773438 588.128906 413.386719 603.34375 412.574219 623.300781 C 407.535156 626.964844 402.3125 630.453125 396.914062 633.75 C 395.085938 528.53125 392.171875 534.597656 390.367188 637.605469 C 385.277344 640.484375 380.058594 643.207031 374.671875 645.75 C 372.820312 596.308594 370.167969 599.820312 368.363281 648.652344 C 328.914062 665.886719 304.484375 667.25 286.125 665.121094 C 284.476562 642.765625 282.21875 639.828125 280.210938 664.300781 Z M 342.296875 592.332031 C 341.925781 591.675781 341.554688 591.027344 341.171875 590.46875 C 337.375 584.746094 333.492188 582.742188 333.15625 583.207031 C 332.617188 583.78125 335.460938 586.644531 338.101562 592.199219 C 338.160156 592.332031 338.199219 592.472656 338.257812 592.605469 C 337.085938 592.703125 336.035156 592.785156 335.03125 592.878906 C 332.035156 587.648438 326.921875 583.730469 319.238281 582.859375 C 315.917969 578.726562 317.648438 581.605469 313.707031 576.148438 C 329.214844 568.71875 345.734375 576.648438 353.179688 591.78125 C 349.238281 591.949219 345.542969 592.128906 342.296875 592.332031 Z M 336.417969 595.9375 C 337.421875 596.035156 338.53125 596.128906 339.667969 596.222656 C 344.339844 609.769531 340.335938 624.886719 327.625 634.035156 C 322.679688 637.679688 318.84375 638.871094 319.058594 639.707031 C 319.121094 640.210938 323.46875 640.257812 329.511719 637.007812 C 335.449219 633.902344 342.894531 626.785156 345.558594 616.300781 C 347.347656 608.980469 346.308594 602.027344 344.253906 596.582031 C 347.625 596.832031 351.328125 597.058594 355.339844 597.277344 C 356.523438 601.085938 357.226562 605.195312 357.226562 609.566406 C 357.226562 640.292969 325.058594 658.566406 303.578125 635.171875 C 305.117188 634.5 306.636719 633.726562 308.070312 632.925781 C 330.792969 639.515625 343.011719 612.945312 336.417969 595.9375 Z M 324.652344 592.285156 C 336.191406 599.722656 330.996094 624.445312 316.660156 626.441406 C 325.832031 617.269531 329.371094 604.621094 324.652344 592.285156 Z M 290.832031 532.125 C 296.648438 532.125 295.429688 538.574219 295.429688 546.015625 L 246.640625 546.015625 C 246.640625 545.382812 246.628906 544.796875 246.628906 544.226562 C 257.058594 543.460938 264.703125 542.265625 264.703125 541.15625 C 264.703125 540.199219 256.960938 538.910156 246.519531 538.085938 C 246.734375 529.390625 251 532.125 290.832031 532.125 Z M 289.097656 524.101562 L 251.539062 524.101562 C 251.695312 521.152344 254.117188 518.824219 257.070312 518.824219 C 283.148438 518.824219 288.835938 517.28125 289.097656 524.101562 Z M 272.957031 508.765625 L 272.957031 511.203125 L 266.28125 511.203125 L 266.28125 508.765625 Z M 269.003906 496.417969 C 272.730469 496.359375 278.703125 495.234375 282.203125 496.777344 C 286.050781 498.472656 284.488281 502.972656 280.914062 504.097656 C 279.242188 504.609375 277.449219 504.539062 275.707031 504.441406 C 270.152344 504.179688 264.597656 503.90625 259.039062 503.632812 C 257.859375 503.570312 256.652344 503.511719 255.527344 503.070312 C 253.546875 502.269531 252.375 500.085938 253.867188 498.449219 C 256.652344 495.390625 265.289062 496.464844 269.003906 496.417969 Z M 272.957031 457.640625 L 272.957031 492.824219 L 266.28125 492.824219 L 266.28125 457.640625 Z M 255.039062 448.945312 L 255.039062 435.9375 L 284.1875 435.9375 L 284.1875 448.945312 Z M 243.808594 556.65625 L 243.808594 553.386719 L 298.238281 553.386719 L 298.238281 567.3125 L 243.808594 567.3125 L 243.808594 562.523438 C 252.207031 561.746094 258.253906 560.621094 258.253906 559.570312 C 258.253906 558.675781 252.183594 557.46875 243.808594 556.65625 Z M 223.835938 673.890625 C 211.328125 678.285156 195.523438 675.121094 188.484375 674.605469 C 185.546875 644.878906 204.613281 605.300781 232.617188 590.039062 C 236.652344 587.839844 239.785156 584.304688 241.167969 579.933594 L 242.839844 574.679688 L 303.828125 574.679688 C 306.382812 578.765625 309.695312 583.265625 310.578125 584.257812 C 335.75 608.882812 303.949219 646.515625 254.261719 626.476562 C 250.332031 624.886719 245.78125 625.542969 242.601562 628.339844 C 228.863281 640.460938 224.191406 653.824219 223.835938 673.890625 Z M 184.472656 641.835938 C 175.796875 637.164062 167.734375 631.933594 159.945312 626.453125 C 161.5 626.523438 163.074219 626.582031 164.699219 626.644531 C 171.042969 631.015625 177.863281 635.195312 185.367188 639.21875 C 185.082031 640.101562 184.746094 640.925781 184.472656 641.835938 Z M 153.039062 621.554688 C 150.066406 619.308594 147.257812 616.921875 144.425781 614.558594 L 144.425781 612.871094 C 144.402344 612.871094 144.390625 612.871094 144.367188 612.871094 C 143.734375 612.898438 143.136719 612.933594 142.515625 612.957031 C -0.136719 491.269531 35.917969 228.871094 211.746094 165.300781 C 145.621094 196.53125 103.007812 246.179688 86.796875 293.699219 C 85.769531 296.230469 85.113281 298.570312 84.550781 300.589844 C 84.003906 302.609375 83.523438 304.316406 83.152344 305.703125 C 82.425781 308.472656 82.125 309.929688 82.292969 309.988281 C 82.425781 310.023438 83.046875 308.640625 84.097656 305.976562 C 84.613281 304.636719 85.246094 302.992188 85.984375 301.03125 C 86.691406 299.074219 87.515625 296.804688 88.695312 294.355469 C 103.34375 258.8125 131.871094 222.542969 173.730469 194.511719 C 48.304688 295.8125 38.558594 510.878906 169.847656 621.136719 C 169.492188 621.148438 169.144531 621.160156 168.785156 621.160156 C 150.9375 609.550781 138.15625 597.789062 123.964844 581.90625 C 118.253906 575.0625 113.140625 568.527344 108.96875 562.234375 C 92.054688 537.105469 86.570312 519.039062 85.566406 519.46875 C 85.4375 519.515625 85.699219 520.660156 86.34375 522.800781 C 87.035156 524.925781 87.871094 528.136719 89.484375 532.089844 C 92.460938 540.082031 97.585938 551.425781 105.660156 564.574219 C 109.652344 571.179688 114.621094 578.058594 120.222656 585.261719 C 131.65625 598.921875 143.351562 610.78125 157.414062 621.4375 C 155.917969 621.472656 154.460938 621.519531 153.039062 621.554688 Z M 125.789062 623.191406 C 123.53125 621.386719 121.226562 619.488281 118.863281 617.433594 C 122.863281 617.792969 127.976562 618.152344 133.808594 618.460938 C 135.191406 619.691406 136.566406 620.957031 137.988281 622.164062 C 132.074219 622.476562 127.820312 622.820312 125.789062 623.191406 Z M 110.941406 610.257812 C 114.800781 610.820312 119.292969 611.367188 124.191406 611.871094 C 124.203125 611.871094 124.214844 611.871094 124.238281 611.871094 L 124.34375 609.613281 C 125.707031 610.949219 127.046875 612.300781 128.429688 613.613281 C 123.304688 613.910156 118.886719 614.257812 115.671875 614.605469 C 114.035156 613.148438 112.445312 611.691406 110.941406 610.257812 Z M 347.347656 668.214844 C 377.121094 658.53125 403.066406 644.832031 425.3125 628.101562 C 430.398438 627.167969 436.515625 625.949219 443.136719 624.503906 C 435.144531 630.140625 425.382812 636.652344 414.402344 642.910156 C 384.957031 659.953125 358.386719 668.3125 358.914062 669.972656 C 359.175781 671.34375 387.046875 665.242188 417.210938 647.792969 C 447.484375 630.535156 466.910156 609.648438 465.738281 608.609375 C 465.082031 607.878906 456.730469 614.890625 443.328125 624.363281 L 441.832031 618.59375 C 441.808594 618.605469 441.796875 618.605469 441.773438 618.605469 C 439.253906 619.359375 436.839844 620.097656 434.507812 620.828125 C 604.042969 480.234375 536.84375 154.085938 286.039062 142.324219 C 310.578125 142.324219 161.558594 124.242188 80.40625 267.136719 C 15.957031 379.9375 38.75 521.546875 120.582031 605.816406 C 115.21875 605.828125 110.453125 605.945312 106.722656 606.148438 C 97.550781 596.964844 91.742188 589.8125 90.714844 590.515625 C 89.867188 590.992188 93.378906 597.992188 100.511719 606.734375 C 99.210938 606.949219 98.480469 607.199219 98.46875 607.472656 C 98.457031 607.808594 99.867188 608.261719 102.21875 608.777344 C 105.492188 612.597656 109.351562 616.648438 113.917969 620.613281 C 129.886719 634.714844 146.160156 641.164062 146.792969 639.671875 C 147.332031 638.609375 138.441406 633.152344 127.199219 624.3125 C 130.164062 624.707031 135.359375 625.125 142.167969 625.542969 C 154.4375 635.503906 167.675781 644.367188 181.9375 651.78125 C 180.410156 658.984375 179.8125 660.609375 180.707031 670.222656 C 181.246094 675.894531 185.332031 680.730469 190.886719 681.972656 C 203.214844 684.746094 216.511719 685.257812 231.171875 680.78125 C 231.171875 677.054688 231.171875 674.210938 231.3125 670.496094 C 270.484375 680.253906 310.984375 678.855469 347.347656 668.214844 " fill-opacity="1" fill-rule="nonzero"/><path fill="#404040" d="M 37.421875 460.972656 C 35.761719 452.550781 34.304688 443.234375 33.410156 433.382812 C 32.597656 423.53125 32.441406 414.105469 32.644531 405.53125 C 32.957031 396.96875 33.550781 389.242188 34.351562 382.792969 C 35.90625 369.871094 37.554688 361.90625 36.707031 361.691406 C 36.050781 361.5 33.015625 369.152344 30.410156 382.171875 C 29.085938 388.667969 28.058594 396.527344 27.449219 405.292969 C 26.957031 414.070312 26.957031 423.757812 27.792969 433.871094 C 28.714844 443.988281 30.363281 453.53125 32.347656 462.09375 C 34.4375 470.632812 36.777344 478.191406 39.203125 484.378906 C 43.980469 496.765625 48.292969 503.785156 48.976562 503.464844 C 49.703125 503.128906 46.707031 495.558594 42.976562 483.089844 C 41.078125 476.867188 39.179688 469.355469 37.421875 460.972656 " fill-opacity="1" fill-rule="nonzero"/><path fill="#404040" d="M 586.527344 645.835938 C 586.421875 647.160156 600.085938 649.214844 616.980469 647.804688 C 633.871094 646.457031 647.070312 642.359375 646.714844 640.925781 C 646.511719 640.03125 586.585938 644.761719 586.527344 645.835938 " fill-opacity="1" fill-rule="nonzero"/><path fill="#404040" d="M 659.425781 615.140625 C 684 612.667969 703.484375 607.84375 703.195312 606.398438 C 702.980469 605.300781 614.769531 614.113281 614.78125 615.378906 C 614.78125 616.71875 634.839844 617.660156 659.425781 615.140625 " fill-opacity="1" fill-rule="nonzero"/><path fill="#404040" d="M 704.199219 512.539062 C 726.515625 510.890625 744.101562 506.175781 743.777344 504.753906 C 743.515625 503.476562 725.773438 505.960938 703.828125 507.585938 C 681.894531 509.28125 663.988281 509.351562 663.917969 510.785156 C 663.808594 512.109375 681.894531 514.273438 704.199219 512.539062 " fill-opacity="1" fill-rule="nonzero"/><path fill="#404040" d="M 640.511719 244.480469 C 627.789062 245.175781 617.363281 245.332031 617.230469 246.738281 C 617.097656 248.078125 627.648438 250.167969 640.777344 249.449219 C 653.917969 248.78125 664.214844 245.734375 663.917969 244.292969 C 663.664062 243.023438 653.25 243.835938 640.511719 244.480469 " fill-opacity="1" fill-rule="nonzero"/><path fill="#404040" d="M 624.636719 157.574219 C 624.566406 156.332031 608.832031 155.914062 589.492188 156.929688 C 570.148438 157.945312 554.535156 159.878906 554.605469 161.253906 C 554.785156 164.546875 624.804688 160.871094 624.636719 157.574219 " fill-opacity="1" fill-rule="nonzero"/><path fill="#404040" d="M 479.964844 647.183594 C 474.230469 645.394531 469.25 645 468.84375 646.3125 C 468.425781 647.625 472.75 650.132812 478.484375 651.925781 C 484.21875 653.730469 490.097656 650.277344 490.550781 648.820312 C 490.921875 647.636719 485.699219 648.976562 479.964844 647.183594 " fill-opacity="1" fill-rule="nonzero"/><path fill="#404040" d="M 245.734375 620.410156 C 245.445312 619.917969 242.375 620.921875 238.109375 623.835938 C 233.847656 626.726562 228.542969 631.71875 224.289062 638.429688 C 220.058594 645.15625 217.789062 652.082031 216.988281 657.167969 C 216.175781 662.269531 216.582031 665.480469 217.230469 665.539062 C 218.699219 665.71875 220.515625 653.492188 228.492188 641.082031 C 236.269531 628.542969 246.605469 621.78125 245.734375 620.410156 " fill-opacity="1" fill-rule="nonzero"/><path fill="#404040" d="M 270.546875 627.300781 C 274.1875 628.339844 278.644531 629.378906 283.792969 629.675781 C 304.152344 630.953125 318.6875 617.710938 316.609375 602.328125 C 316.050781 598.277344 314.390625 595.28125 312.859375 593.644531 C 311.332031 591.984375 310.136719 591.53125 309.921875 591.769531 C 309.335938 592.246094 313.015625 595.640625 313.097656 602.613281 C 313.289062 615.226562 302.109375 628.660156 271.332031 623.859375 C 264.09375 622.617188 259.496094 621.769531 259.304688 622.476562 C 259.136719 623.097656 263.304688 625.125 270.546875 627.300781 " fill-opacity="1" fill-rule="nonzero"/><path fill="#404040" d="M 299.382812 615.488281 C 302.980469 612.597656 305.058594 608.753906 305.644531 605.828125 C 306.253906 602.875 305.644531 601.027344 304.9375 600.988281 C 303.683594 600.917969 302.097656 607.140625 296.277344 611.605469 C 290.617188 616.335938 284.234375 616.394531 284.019531 617.78125 C 283.710938 619.679688 292.347656 621.125 299.382812 615.488281 " fill-opacity="1" fill-rule="nonzero"/><path fill="#404040" d="M 344.910156 653.550781 C 350.097656 650.265625 352.269531 647.078125 351.792969 646.585938 C 351.339844 646.074219 348.398438 648.210938 343.25 650.433594 C 329.738281 656.394531 314.820312 655.449219 302.046875 647.363281 C 297.304688 644.402344 294.714844 641.871094 294.128906 642.359375 C 290.449219 645.128906 318.558594 670.460938 344.910156 653.550781 " fill-opacity="1" fill-rule="nonzero"/><path fill="#404040" d="M 231.601562 597.453125 C 231.15625 596.367188 220.933594 600.082031 212.164062 609.816406 C 203.335938 619.488281 200.515625 629.976562 201.757812 630.355469 C 203.109375 630.917969 207.695312 622.046875 215.855469 613.160156 C 223.90625 604.167969 232.363281 598.851562 231.601562 597.453125 " fill-opacity="1" fill-rule="nonzero"/><path fill="#404040" d="M 179.035156 784.421875 C 166.527344 782.902344 156.515625 780.203125 155.917969 781.722656 C 155.308594 783.09375 165.011719 788.386719 178.332031 790.023438 C 191.640625 791.71875 202.367188 789.148438 202.105469 787.515625 C 201.914062 786.058594 191.519531 786.042969 179.035156 784.421875 " fill-opacity="1" fill-rule="nonzero"/><path fill="#404040" d="M 198.53125 740.671875 C 166.683594 738.238281 166.195312 743.863281 198.101562 746.285156 C 230.488281 748.757812 229.976562 743.074219 198.53125 740.671875 " fill-opacity="1" fill-rule="nonzero"/><path fill="#404040" d="M 401.226562 754.621094 C 353.347656 746.5 283.078125 745.152344 283.136719 748.84375 C 283.136719 750.480469 314.066406 751.53125 352.066406 754.445312 C 377.214844 756.320312 458.640625 764.34375 401.226562 754.621094 " fill-opacity="1" fill-rule="nonzero"/><path fill="#404040" d="M 486.035156 783.214844 C 436.921875 779.34375 436.515625 784.96875 485.59375 788.828125 C 535.398438 792.746094 534.40625 787.011719 486.035156 783.214844 " fill-opacity="1" fill-rule="nonzero"/><path fill="#404040" d="M 487.636719 748.722656 C 487.683594 747.3125 479.488281 745.582031 469.308594 745.175781 C 459.132812 744.769531 450.828125 745.691406 450.757812 747.253906 C 450.613281 750.945312 487.480469 752.507812 487.636719 748.722656 " fill-opacity="1" fill-rule="nonzero"/><path fill="#404040" d="M 478.4375 831.261719 C 478.4375 832.824219 489.152344 834.078125 502.390625 834.078125 C 515.613281 834.078125 526.339844 832.992188 526.339844 831.261719 C 526.339844 827.59375 478.4375 827.546875 478.4375 831.261719 " fill-opacity="1" fill-rule="nonzero"/><path fill="#404040" d="M 194.6875 762.136719 C 167.710938 762.136719 167.6875 767.773438 194.6875 767.773438 C 222.125 767.773438 221.183594 762.136719 194.6875 762.136719 " fill-opacity="1" fill-rule="nonzero"/><path fill="#404040" d="M 574.652344 749.355469 C 563.960938 751.386719 555.539062 754.265625 555.824219 755.804688 C 556.125 757.347656 565.023438 756.929688 575.703125 754.886719 C 601.890625 749.90625 599.96875 744.53125 574.652344 749.355469 " fill-opacity="1" fill-rule="nonzero"/><path fill="#404040" d="M 665.851562 740.398438 C 635.234375 735.394531 634.277344 740.949219 664.945312 745.953125 C 677.65625 748.03125 688.132812 748.640625 688.40625 746.933594 C 688.644531 745.546875 678.5625 742.476562 665.851562 740.398438 " fill-opacity="1" fill-rule="nonzero"/><path fill="#404040" d="M 686.804688 713.027344 C 673.582031 712.011719 662.757812 712.441406 662.636719 714.003906 C 662.519531 715.558594 673.152344 717.636719 686.375 718.652344 C 699.601562 719.667969 710.410156 719.390625 710.542969 717.683594 C 710.652344 716.273438 700.03125 714.042969 686.804688 713.027344 " fill-opacity="1" fill-rule="nonzero"/><path fill="#404040" d="M 503.65625 61.160156 C 504.230469 61.363281 506.246094 58.007812 506.652344 51.820312 C 507.097656 45.753906 505.339844 36.6875 499.03125 29.222656 C 492.6875 21.796875 484.050781 18.558594 477.984375 17.996094 C 471.792969 17.363281 468.152344 18.820312 468.257812 19.503906 C 468.34375 20.363281 473.933594 19.273438 479.203125 20.792969 C 507.515625 28.664062 503.65625 61.160156 503.65625 61.160156 " fill-opacity="1" fill-rule="nonzero"/><path fill="#404040" d="M 475.929688 221.957031 C 477.109375 221.359375 470.613281 206.660156 457.566406 191.96875 C 444.605469 177.21875 430.902344 168.824219 430.054688 170.054688 C 429.074219 171.367188 440.839844 181.460938 453.347656 195.695312 C 465.941406 209.859375 474.363281 222.867188 475.929688 221.957031 " fill-opacity="1" fill-rule="nonzero"/><path fill="#404040" d="M 531.441406 466.441406 C 532.636719 466.882812 541.214844 442.292969 541.980469 410.488281 C 542.933594 378.683594 535.839844 353.628906 534.476562 354.046875 C 532.792969 354.355469 537.296875 379.339844 536.339844 410.332031 C 535.613281 441.347656 529.628906 466 531.441406 466.441406 " fill-opacity="1" fill-rule="nonzero"/><path fill="#404040" d="M 141.941406 173.707031 C 165.992188 153.824219 190.207031 144.996094 189.464844 143.21875 C 189.261719 142.632812 182.90625 144.007812 173.253906 148.078125 C 163.613281 152.117188 150.804688 159.199219 138.371094 169.347656 C 125.957031 179.523438 116.449219 190.644531 110.546875 199.277344 C 104.621094 207.925781 102.015625 213.882812 102.625 214.242188 C 104.097656 215.222656 117.679688 193.332031 141.941406 173.707031 " fill-opacity="1" fill-rule="nonzero"/><path fill="#404040" d="M 315.199219 126.878906 C 342.761719 130.582031 363.621094 140.007812 364.382812 138.285156 C 365.734375 135.417969 323.5625 115.285156 279.480469 120.8125 C 270.199219 121.972656 264.65625 123.703125 264.773438 124.421875 C 265.015625 126.128906 287.675781 122.914062 315.199219 126.878906 " fill-opacity="1" fill-rule="nonzero"/><path fill="#404040" d="M 495.710938 76.183594 C 456.515625 90.621094 442.324219 63.417969 442.667969 64.695312 C 448.84375 87.671875 483.921875 88.554688 495.710938 76.183594 " fill-opacity="1" fill-rule="nonzero"/></svg>