<svg xmlns="http://www.w3.org/2000/svg" xmlns:xlink="http://www.w3.org/1999/xlink" width="1133" zoomAndPan="magnify" viewBox="0 0 850.5 850.499973" height="1133" preserveAspectRatio="xMidYMid meet" version="1.0"><defs><clipPath id="7856936f4e"><path d="M 294 0 L 736.109375 0 L 736.109375 406 L 294 406 Z M 294 0 " clip-rule="nonzero"/></clipPath></defs><path fill="#367ea9" d="M 362.421875 134.269531 C 362.421875 134.269531 326.816406 125.617188 305.003906 130.808594 C 283.191406 135.996094 275.824219 150.269531 275.699219 161.296875 C 275.578125 172.328125 279.851562 180.65625 319.058594 183.238281 C 358.265625 185.820312 481.441406 229.761719 481.441406 229.761719 L 510.066406 189.972656 C 510.066406 189.976562 419.859375 137.730469 362.421875 134.269531 Z M 362.421875 134.269531 " fill-opacity="1" fill-rule="nonzero"/><g clip-path="url(#7856936f4e)"><path fill="#ff9999" d="M 392.882812 294.632812 C 392.882812 294.632812 395.292969 129.078125 502.550781 140.152344 C 609.804688 151.222656 574.167969 242.21875 574.167969 242.21875 C 574.167969 242.21875 627.449219 270.246094 635.0625 318.339844 C 642.675781 366.433594 642.675781 366.433594 642.675781 366.433594 L 677.277344 405.875 C 677.277344 405.875 695.957031 379.925781 698.382812 357.089844 L 736.097656 349.476562 L 731.410156 296.320312 L 683.851562 298.964844 L 677.160156 272.75 L 715.976562 257.519531 L 693.191406 211.082031 L 645.097656 224.574219 C 645.097656 224.574219 652.371094 151.265625 630.742188 117.164062 C 609.117188 83.0625 581.800781 71.644531 581.800781 71.644531 L 603.582031 36.351562 L 560.703125 18.214844 L 537.917969 59.398438 L 512.269531 55.417969 L 522.617188 0.0234375 L 455.21875 0.0234375 L 458.59375 45.378906 L 425.726562 55.414062 L 407.054688 7.636719 L 351.421875 18.214844 L 365.882812 82.027344 C 365.882812 82.027344 280.078125 146.726562 296.6875 270.9375 Z M 392.882812 294.632812 " fill-opacity="1" fill-rule="nonzero"/></g><path fill="#f74f60" d="M 374.1875 269.207031 C 374.1875 269.207031 462.414062 259.519531 515.003906 264.019531 C 567.59375 268.519531 641.636719 298.964844 664.472656 343.597656 C 683.953125 381.675781 700.285156 489.851562 704.660156 520.800781 C 705.457031 526.445312 705.355469 532.179688 704.347656 537.792969 C 700.566406 558.855469 689.578125 612.894531 672.777344 636.304688 C 651.667969 665.714844 624.683594 749.445312 599.425781 778.164062 C 574.167969 806.878906 525.191406 850.476562 468.71875 836.289062 C 427.789062 826.007812 399.257812 797.371094 386.65625 782.382812 C 381.078125 775.753906 374.277344 770.265625 366.621094 766.207031 L 309.742188 736.050781 C 289.769531 725.457031 272.054688 711.074219 257.601562 693.691406 C 231.695312 662.53125 192.265625 609.222656 174.898438 555.34375 C 147.914062 471.613281 134.417969 394.113281 157.253906 350.167969 C 180.089844 306.226562 210.882812 278.199219 229.222656 273.359375 C 247.5625 268.515625 334.398438 252.25 374.1875 269.207031 Z M 374.1875 269.207031 " fill-opacity="1" fill-rule="nonzero"/><path fill="#c5264c" d="M 294.550781 330.917969 C 275.460938 340.386719 251.015625 374.734375 235.101562 412.101562 C 219.183594 449.46875 233.371094 562.957031 198.769531 577.488281 C 164.167969 592.019531 149.636719 547.042969 131.992188 500.542969 C 114.351562 454.042969 114.351562 401.035156 131.992188 369.890625 C 149.636719 338.753906 271.082031 298.964844 271.082031 298.964844 C 316.40625 291.347656 313.640625 321.453125 294.550781 330.917969 Z M 657.746094 297.738281 C 604.3125 223.515625 545.453125 226.300781 510.066406 226.296875 C 482.613281 226.296875 460.121094 273.992188 451.414062 295.375 C 448.515625 302.503906 450.59375 310.707031 456.589844 315.53125 C 465.792969 322.925781 484.398438 330.367188 497.382812 334.609375 L 485.597656 390.992188 L 356.542969 450.851562 L 307.613281 530.917969 L 328.515625 539.425781 L 371.765625 467.457031 L 416.394531 444.078125 L 433.347656 489.597656 L 404.558594 574.796875 L 418.082031 580.257812 L 456.179688 494.789062 L 438.882812 436.402344 L 489.742188 411.0625 C 489.742188 411.0625 492.855469 456.640625 501.507812 469.3125 C 510.160156 481.988281 521.921875 514.859375 521.921875 514.859375 L 525.257812 580.261719 C 525.257812 580.261719 442.769531 631.191406 416.4375 638.933594 C 390.105469 646.683594 335.4375 660.867188 335.4375 660.867188 C 335.4375 660.867188 345.125 678.511719 347.894531 678.511719 C 350.660156 678.511719 393.5625 667.785156 404.636719 662.597656 C 415.707031 657.410156 415.707031 657.410156 415.707031 657.410156 L 387.683594 718.996094 L 406.363281 727.648438 L 442.695312 656.71875 L 515.324219 609.402344 L 477.988281 681.972656 L 465.183594 710.691406 L 480.40625 724.183594 L 533 635.609375 C 533 635.609375 541.304688 688.546875 541.304688 709.652344 L 557.21875 697.199219 C 557.21875 697.199219 563.445312 630.421875 548.914062 591.671875 L 550.644531 535.964844 L 611.191406 572.296875 L 624.835938 550.359375 C 624.835938 550.359375 588.421875 520.742188 574.203125 521.261719 L 620.535156 508.980469 L 617.074219 485.449219 L 548.917969 496.175781 C 548.917969 496.175781 530.925781 470.226562 524.351562 449.121094 C 517.773438 428.015625 504.976562 397.566406 504.976562 397.566406 L 518.617188 340.496094 C 544.394531 350.40625 566.023438 382.660156 576.664062 400.960938 C 588.5 421.304688 643.371094 457.421875 682.222656 439 C 721.070312 420.578125 711.179688 371.964844 657.746094 297.738281 Z M 657.746094 297.738281 " fill-opacity="1" fill-rule="nonzero"/><path fill="#367ea9" d="M 307.613281 111.507812 L 256.894531 149.492188 L 287.34375 275.085938 C 287.34375 275.085938 239.214844 303.570312 189.410156 302.996094 L 198.773438 148.800781 L 167.453125 100.578125 L 234.117188 65.078125 L 247.621094 90.097656 L 285.597656 82.828125 Z M 515.324219 162.140625 C 480.179688 177.9375 424.101562 209.082031 388.210938 229.503906 C 366.339844 241.945312 349.902344 262.09375 342.109375 286.015625 L 334.398438 309.683594 L 434.042969 342.902344 C 434.042969 342.902344 499.089844 237.375 541.300781 216.265625 C 583.511719 195.160156 686.4375 189.972656 686.4375 189.972656 L 686.4375 129.148438 C 686.4375 129.148438 570.304688 137.425781 515.324219 162.140625 Z M 515.324219 162.140625 " fill-opacity="1" fill-rule="nonzero"/></svg>