<svg xmlns="http://www.w3.org/2000/svg" xmlns:xlink="http://www.w3.org/1999/xlink" width="1133" zoomAndPan="magnify" viewBox="0 0 850.5 850.499973" height="1133" preserveAspectRatio="xMidYMid meet" version="1.0"><defs><clipPath id="adf31897b7"><path d="M 19.132812 55 L 831 55 L 831 850 L 19.132812 850 Z M 19.132812 55 " clip-rule="nonzero"/></clipPath></defs><path fill="#f8e3ca" d="M 425.171875 346.621094 C 441.824219 346.621094 456.246094 355.375 464.488281 368.597656 L 464.488281 348.164062 C 464.488281 323.101562 460.710938 298.035156 453.5 274 L 396.84375 274 C 389.632812 298.035156 385.859375 323.101562 385.859375 348.164062 L 385.859375 368.597656 C 393.925781 355.375 408.519531 346.621094 425.171875 346.621094 Z M 425.171875 346.621094 " fill-opacity="1" fill-rule="nonzero"/><path fill="#f8e3ca" d="M 425.171875 439.328125 C 407.832031 439.328125 392.726562 429.714844 384.65625 415.636719 C 380.707031 433.832031 378.648438 452.546875 378.648438 471.433594 C 378.648438 491.691406 380.878906 511.777344 385.34375 531.003906 L 397.1875 581.992188 C 402.167969 577.703125 412.640625 574.609375 425 574.609375 C 437.363281 574.609375 447.835938 577.703125 452.8125 581.992188 L 464.660156 531.003906 C 469.125 511.605469 471.355469 491.519531 471.355469 471.433594 C 471.355469 452.546875 469.296875 433.832031 465.347656 415.636719 C 457.621094 429.714844 442.511719 439.328125 425.171875 439.328125 Z M 425.171875 439.328125 " fill-opacity="1" fill-rule="nonzero"/><path fill="#f8e3ca" d="M 463.800781 331.167969 C 464.144531 336.835938 464.316406 342.328125 464.316406 347.996094 L 464.316406 368.425781 C 456.074219 355.375 441.65625 346.449219 425 346.449219 C 408.347656 346.449219 393.925781 355.203125 385.6875 368.425781 L 385.6875 347.996094 C 385.6875 342.328125 385.859375 336.835938 386.199219 331.167969 C 365.597656 344.046875 352.035156 366.878906 352.035156 392.972656 C 352.035156 416.152344 362.851562 436.582031 379.675781 449.972656 C 380.535156 438.296875 382.253906 426.796875 384.65625 415.636719 C 392.554688 429.714844 407.660156 439.328125 425.171875 439.328125 C 442.511719 439.328125 457.621094 429.714844 465.691406 415.636719 C 468.09375 426.964844 469.640625 438.46875 470.667969 449.972656 C 487.492188 436.582031 498.308594 415.980469 498.308594 392.972656 C 498.136719 366.878906 484.402344 344.21875 463.800781 331.167969 Z M 463.800781 331.167969 " fill-opacity="1" fill-rule="nonzero"/><path fill="#f8e3ca" d="M 574.707031 120.519531 C 536.421875 33.476562 483.546875 4.292969 425.171875 4.292969 C 366.800781 4.292969 313.921875 33.648438 275.636719 120.519531 C 271.859375 128.929688 271.171875 138.203125 273.578125 147.128906 C 295.207031 229.878906 308.257812 340.441406 308.257812 461.988281 C 308.257812 529.632812 304.136719 593.839844 296.753906 651.867188 C 303.105469 664.398438 306.710938 678.476562 306.710938 693.585938 C 306.710938 701.824219 305.511719 709.722656 303.621094 717.277344 C 305.679688 717.105469 307.742188 716.933594 309.972656 716.933594 C 338.988281 716.933594 362.507812 740.453125 362.507812 769.46875 C 362.507812 772.730469 362.164062 775.992188 361.648438 779.082031 C 361.648438 779.082031 361.992188 779.425781 362.679688 779.941406 C 362.679688 780.28125 362.679688 780.453125 362.679688 780.796875 C 382.9375 784.574219 403.882812 786.636719 425.34375 786.636719 C 446.804688 786.636719 467.75 784.574219 488.007812 780.796875 L 488.007812 780.109375 C 488.695312 779.597656 489.210938 779.082031 489.210938 779.082031 C 489.210938 779.082031 489.382812 779.082031 489.382812 778.910156 C 489.210938 778.910156 489.039062 778.910156 488.867188 779.082031 C 488.351562 775.992188 488.007812 772.730469 488.007812 769.46875 C 488.007812 740.453125 511.53125 716.933594 540.542969 716.933594 C 542.777344 716.933594 544.835938 717.105469 546.894531 717.277344 C 544.835938 709.722656 543.804688 701.824219 543.804688 693.585938 C 543.804688 678.648438 547.410156 664.398438 553.761719 651.867188 C 546.382812 593.839844 542.261719 529.632812 542.261719 461.988281 C 542.261719 340.613281 555.480469 230.050781 576.941406 147.128906 C 579 138.203125 578.3125 128.929688 574.707031 120.519531 Z M 470.496094 449.972656 C 471.011719 457.011719 471.355469 464.222656 471.355469 471.433594 C 471.355469 491.691406 469.125 511.777344 464.660156 531.003906 L 452.8125 581.992188 C 447.835938 577.703125 437.363281 574.609375 425 574.609375 C 412.640625 574.609375 402.167969 577.703125 397.1875 581.992188 L 385.34375 531.003906 C 380.878906 511.605469 378.648438 491.519531 378.648438 471.433594 C 378.648438 464.222656 378.992188 457.183594 379.503906 449.972656 C 362.851562 436.582031 352.035156 415.980469 352.035156 392.972656 C 352.035156 366.878906 365.769531 344.046875 386.199219 331.167969 C 387.402344 311.769531 391.007812 292.371094 396.671875 273.828125 L 395.128906 273.828125 C 395.128906 273.828125 367.832031 142.835938 368.003906 128.074219 C 368.519531 98.199219 393.410156 72.964844 423.285156 72.105469 C 455.5625 71.246094 481.828125 97 481.828125 129.101562 C 481.828125 143.523438 454.703125 273.828125 454.703125 273.828125 L 453.15625 273.828125 C 458.824219 292.542969 462.257812 311.769531 463.628906 331.167969 C 484.230469 344.046875 497.796875 366.878906 497.796875 392.972656 C 498.136719 416.152344 487.320312 436.582031 470.496094 449.972656 Z M 470.496094 449.972656 " fill-opacity="1" fill-rule="nonzero"/><path fill="#f8e3ca" d="M 538.828125 60.085938 C 551.875 76.054688 563.894531 95.96875 574.707031 120.519531 C 578.484375 128.929688 579.171875 138.203125 576.769531 147.128906 C 555.136719 229.878906 542.089844 340.441406 542.089844 461.988281 C 542.089844 529.632812 546.210938 593.839844 553.59375 651.867188 C 547.238281 664.398438 543.632812 678.476562 543.632812 693.585938 C 543.632812 701.824219 544.835938 709.722656 546.722656 717.277344 C 544.664062 717.105469 542.605469 716.933594 540.371094 716.933594 C 511.359375 716.933594 487.835938 740.453125 487.835938 769.46875 C 487.835938 772.730469 488.179688 775.992188 488.695312 779.082031 C 488.867188 779.082031 489.039062 779.082031 489.210938 778.910156 C 489.210938 778.910156 489.039062 779.082031 489.039062 779.082031 C 489.039062 779.082031 488.523438 779.597656 487.835938 780.109375 L 487.835938 780.796875 C 467.578125 784.574219 446.632812 786.636719 425.171875 786.636719 C 403.710938 786.636719 382.765625 784.574219 362.507812 780.796875 C 362.507812 780.453125 362.507812 780.28125 362.507812 779.941406 C 361.992188 779.425781 361.476562 779.082031 361.476562 779.082031 C 361.992188 775.992188 362.335938 772.730469 362.335938 769.46875 C 362.335938 740.453125 338.816406 716.933594 309.800781 716.933594 C 307.570312 716.933594 305.507812 717.105469 303.449219 717.277344 C 305.507812 709.722656 306.539062 701.824219 306.539062 693.585938 C 306.539062 678.648438 302.933594 664.398438 296.582031 651.867188 C 303.964844 593.839844 308.085938 529.632812 308.085938 461.988281 C 308.085938 340.613281 294.867188 230.050781 273.40625 147.128906 C 271.171875 138.203125 271.859375 128.929688 275.464844 120.519531 C 286.28125 95.96875 298.300781 76.054688 311.347656 60.085938 C 145.15625 109.015625 23.777344 262.667969 23.777344 444.820312 C 23.777344 666.460938 203.359375 846.035156 425 846.035156 C 646.644531 846.035156 826.222656 666.460938 826.222656 444.820312 C 826.394531 262.667969 705.015625 109.015625 538.828125 60.085938 Z M 538.828125 60.085938 " fill-opacity="1" fill-rule="nonzero"/><path fill="#8e301d" d="M 482 129.101562 C 482 97.171875 455.5625 71.246094 423.457031 72.105469 C 393.582031 72.964844 368.6875 98.027344 368.175781 128.074219 C 367.832031 142.835938 395.300781 273.828125 395.300781 273.828125 L 454.875 273.828125 C 454.875 273.828125 482 143.523438 482 129.101562 Z M 482 129.101562 " fill-opacity="1" fill-rule="nonzero"/><path fill="#f8c148" d="M 309.800781 716.761719 C 307.570312 716.761719 305.511719 716.933594 303.449219 717.105469 C 305.511719 709.550781 306.539062 701.652344 306.539062 693.414062 C 306.539062 650.320312 276.839844 614.097656 236.835938 603.96875 C 245.078125 585.769531 249.714844 565.511719 249.714844 544.222656 C 249.714844 463.707031 184.300781 398.296875 103.78125 398.296875 C 97.773438 398.296875 91.9375 398.8125 86.097656 399.5 C 84.210938 413.746094 83.179688 428.339844 83.179688 443.105469 C 83.179688 609.976562 203.015625 748.867188 361.136719 778.566406 C 361.648438 775.476562 361.992188 772.214844 361.992188 768.953125 C 362.335938 740.109375 338.816406 716.761719 309.800781 716.761719 Z M 309.800781 716.761719 " fill-opacity="1" fill-rule="nonzero"/><path fill="#f8c148" d="M 540.371094 716.761719 C 542.605469 716.761719 544.664062 716.933594 546.722656 717.105469 C 544.664062 709.550781 543.632812 701.652344 543.632812 693.414062 C 543.632812 650.320312 573.335938 614.097656 613.335938 603.96875 C 605.097656 585.769531 600.460938 565.511719 600.460938 544.222656 C 600.460938 463.707031 665.871094 398.296875 746.390625 398.296875 C 752.402344 398.296875 758.238281 398.8125 764.074219 399.5 C 765.964844 413.746094 766.992188 428.339844 766.992188 443.105469 C 766.992188 609.976562 647.160156 748.867188 489.039062 778.566406 C 488.523438 775.476562 488.179688 772.214844 488.179688 768.953125 C 487.835938 740.109375 511.359375 716.761719 540.371094 716.761719 Z M 540.371094 716.761719 " fill-opacity="1" fill-rule="nonzero"/><path fill="#f8c148" d="M 441.3125 625.085938 C 441.3125 608.945312 442.511719 593.496094 444.574219 578.730469 L 443.886719 577.1875 C 438.734375 575.46875 432.210938 574.4375 425.171875 574.4375 C 418.132812 574.4375 411.609375 575.46875 406.460938 577.1875 L 405.773438 578.730469 C 408.003906 593.324219 409.035156 608.945312 409.035156 625.085938 C 409.035156 692.039062 388.949219 749.378906 360.449219 773.757812 L 360.449219 779.941406 C 381.394531 784.058594 403.027344 786.292969 425.171875 786.292969 C 447.320312 786.292969 468.953125 784.058594 489.898438 779.941406 L 489.898438 773.757812 C 461.226562 749.378906 441.3125 692.039062 441.3125 625.085938 Z M 441.3125 625.085938 " fill-opacity="1" fill-rule="nonzero"/><path fill="#0b1c13" d="M 758.925781 377.179688 C 756.863281 377.179688 755.148438 375.804688 754.804688 373.746094 C 734.71875 280.179688 675.316406 199.320312 591.878906 151.765625 C 589.816406 150.5625 589.128906 147.988281 590.332031 145.925781 C 591.535156 143.867188 594.109375 143.179688 596.167969 144.382812 C 681.667969 193.140625 742.613281 276.058594 763.21875 372.03125 C 763.730469 374.433594 762.1875 376.664062 759.953125 377.179688 C 759.613281 377.179688 759.269531 377.179688 758.925781 377.179688 Z M 758.925781 377.179688 " fill-opacity="1" fill-rule="nonzero"/><path fill="#0b1c13" d="M 89.875 383.53125 C 89.53125 383.53125 89.359375 383.53125 89.019531 383.53125 C 86.613281 383.015625 85.242188 380.785156 85.582031 378.554688 C 104.46875 281.554688 164.386719 197.089844 249.882812 146.785156 C 251.945312 145.585938 254.519531 146.269531 255.722656 148.332031 C 256.921875 150.390625 256.238281 152.964844 254.175781 154.167969 C 170.738281 203.269531 112.367188 285.675781 93.996094 380.097656 C 93.652344 382.160156 91.9375 383.53125 89.875 383.53125 Z M 89.875 383.53125 " fill-opacity="1" fill-rule="nonzero"/><path fill="#0b1c13" d="M 361.480469 783.03125 C 361.136719 783.03125 360.964844 783.03125 360.621094 783.03125 C 197.519531 752.300781 79.058594 609.460938 79.058594 443.277344 C 79.058594 429.027344 80.089844 414.089844 81.980469 398.984375 C 82.148438 397.09375 83.695312 395.550781 85.753906 395.207031 C 92.453125 394.347656 98.289062 394.003906 103.953125 394.003906 C 186.875 394.003906 254.175781 461.472656 254.175781 544.222656 C 254.175781 563.796875 250.398438 582.851562 242.84375 601.050781 C 283.191406 613.410156 311.003906 650.664062 311.003906 693.242188 C 311.003906 699.421875 310.316406 705.773438 309.113281 712.125 C 309.457031 712.125 309.628906 712.125 309.972656 712.125 C 341.21875 712.125 366.800781 737.535156 366.800781 768.953125 C 366.800781 772.386719 366.457031 775.820312 365.769531 779.425781 C 365.597656 780.625 364.914062 781.484375 364.054688 782.171875 C 363.195312 782.859375 362.335938 783.03125 361.480469 783.03125 Z M 90.21875 403.445312 C 88.675781 417.007812 87.816406 430.398438 87.816406 443.277344 C 87.816406 603.796875 201.125 742 357.875 773.757812 C 358.042969 772.214844 358.042969 770.667969 358.042969 769.296875 C 358.042969 742.683594 336.414062 721.054688 309.800781 721.054688 C 308.085938 721.054688 306.195312 721.226562 303.964844 721.398438 C 302.589844 721.570312 301.21875 721.054688 300.1875 720.023438 C 299.328125 718.992188 298.984375 717.449219 299.328125 716.074219 C 301.390625 708.519531 302.417969 700.96875 302.417969 693.585938 C 302.417969 653.242188 275.121094 618.21875 235.976562 608.433594 C 234.777344 608.089844 233.746094 607.230469 233.230469 606.199219 C 232.714844 605 232.714844 603.796875 233.230469 602.59375 C 241.472656 584.226562 245.765625 564.652344 245.765625 544.738281 C 245.765625 466.625 182.242188 403.101562 104.125 403.101562 C 99.660156 402.761719 95.199219 402.933594 90.21875 403.445312 Z M 90.21875 403.445312 " fill-opacity="1" fill-rule="nonzero"/><path fill="#0b1c13" d="M 488.695312 783.03125 C 487.835938 783.03125 486.980469 782.6875 486.292969 782.34375 C 485.433594 781.65625 484.746094 780.625 484.574219 779.597656 C 483.886719 775.992188 483.546875 772.558594 483.546875 769.125 C 483.546875 737.878906 508.953125 712.296875 540.371094 712.296875 C 540.714844 712.296875 540.886719 712.296875 541.230469 712.296875 C 539.855469 705.945312 539.34375 699.59375 539.34375 693.414062 C 539.34375 650.835938 567.15625 613.582031 607.5 601.222656 C 599.945312 583.023438 596.167969 563.96875 596.167969 544.394531 C 596.167969 461.472656 663.640625 394.175781 746.390625 394.175781 C 751.886719 394.175781 757.894531 394.519531 764.589844 395.378906 C 766.480469 395.550781 768.023438 397.09375 768.367188 399.15625 C 770.253906 414.261719 771.285156 429.199219 771.285156 443.449219 C 771.285156 609.632812 652.824219 752.472656 489.726562 783.203125 C 489.210938 783.03125 489.039062 783.03125 488.695312 783.03125 Z M 540.371094 721.054688 C 513.761719 721.054688 492.128906 742.683594 492.128906 769.296875 C 492.128906 770.839844 492.128906 772.386719 492.300781 773.757812 C 649.046875 742.171875 762.359375 603.96875 762.359375 443.277344 C 762.359375 430.398438 761.5 417.007812 759.953125 403.445312 C 754.976562 402.933594 750.511719 402.761719 746.21875 402.761719 C 668.105469 402.761719 604.582031 466.28125 604.582031 544.394531 C 604.582031 564.480469 608.703125 583.882812 617.113281 602.25 C 617.628906 603.453125 617.628906 604.65625 617.113281 605.855469 C 616.597656 607.058594 615.570312 607.917969 614.367188 608.089844 C 575.222656 617.875 547.925781 653.070312 547.925781 693.242188 C 547.925781 700.625 548.957031 708.175781 551.015625 715.730469 C 551.359375 717.105469 551.015625 718.648438 550.15625 719.679688 C 549.300781 720.710938 547.753906 721.226562 546.382812 721.054688 C 543.976562 721.054688 542.089844 721.054688 540.371094 721.054688 Z M 540.371094 721.054688 " fill-opacity="1" fill-rule="nonzero"/><path fill="#0b1c13" d="M 425.171875 443.621094 C 397.1875 443.621094 374.527344 420.957031 374.527344 392.972656 C 374.527344 364.992188 397.1875 342.328125 425.171875 342.328125 C 453.15625 342.328125 475.820312 364.992188 475.820312 392.972656 C 475.820312 420.957031 452.984375 443.621094 425.171875 443.621094 Z M 425.171875 350.914062 C 401.996094 350.914062 383.109375 369.796875 383.109375 392.972656 C 383.109375 416.152344 401.996094 435.035156 425.171875 435.035156 C 448.351562 435.035156 467.234375 416.152344 467.234375 392.972656 C 467.234375 369.796875 448.351562 350.914062 425.171875 350.914062 Z M 425.171875 350.914062 " fill-opacity="1" fill-rule="nonzero"/><path fill="#0b1c13" d="M 425.171875 430.058594 C 404.742188 430.058594 388.089844 413.402344 388.089844 392.972656 C 388.089844 372.542969 404.742188 355.890625 425.171875 355.890625 C 445.601562 355.890625 462.257812 372.542969 462.257812 392.972656 C 462.257812 413.402344 445.429688 430.058594 425.171875 430.058594 Z M 425.171875 364.648438 C 409.550781 364.648438 396.671875 377.351562 396.671875 393.144531 C 396.671875 408.941406 409.378906 421.644531 425.171875 421.644531 C 440.796875 421.644531 453.671875 408.941406 453.671875 393.144531 C 453.671875 377.351562 440.796875 364.648438 425.171875 364.648438 Z M 425.171875 364.648438 " fill-opacity="1" fill-rule="nonzero"/><path fill="#0b1c13" d="M 454.875 278.121094 L 395.300781 278.121094 C 393.238281 278.121094 391.523438 276.746094 391.179688 274.6875 C 389.976562 269.363281 363.710938 143.007812 363.882812 127.902344 C 364.398438 95.625 391.179688 68.671875 423.457031 67.8125 C 440.109375 67.296875 455.902344 73.480469 467.921875 85.152344 C 479.941406 96.828125 486.464844 112.449219 486.464844 129.101562 C 486.464844 143.695312 460.367188 269.363281 459.167969 274.6875 C 458.652344 276.746094 456.933594 278.121094 454.875 278.121094 Z M 398.734375 269.535156 L 451.441406 269.535156 C 459.335938 231.082031 477.707031 140.089844 477.707031 129.101562 C 477.707031 114.683594 472.042969 101.289062 461.742188 91.332031 C 451.441406 81.375 437.878906 76.054688 423.457031 76.398438 C 395.816406 77.085938 372.808594 100.433594 372.292969 128.074219 C 372.292969 139.574219 390.664062 230.910156 398.734375 269.535156 Z M 398.734375 269.535156 " fill-opacity="1" fill-rule="nonzero"/><path fill="#0b1c13" d="M 464.488281 372.886719 C 463.113281 372.886719 461.570312 372.199219 460.882812 370.828125 C 453.15625 358.464844 439.765625 350.914062 425.171875 350.914062 C 410.578125 350.914062 397.1875 358.296875 389.460938 370.828125 C 388.433594 372.371094 386.542969 373.230469 384.65625 372.714844 C 382.765625 372.199219 381.566406 370.484375 381.566406 368.597656 L 381.566406 348.164062 C 381.566406 322.585938 385.34375 297.175781 392.726562 272.796875 C 393.238281 270.910156 394.957031 269.707031 396.84375 269.707031 L 453.5 269.707031 C 455.390625 269.707031 457.105469 270.910156 457.621094 272.796875 C 465.003906 297.347656 468.78125 322.585938 468.78125 348.164062 L 468.78125 368.597656 C 468.78125 370.484375 467.578125 372.199219 465.691406 372.714844 C 465.175781 372.714844 464.832031 372.886719 464.488281 372.886719 Z M 425.171875 342.328125 C 438.390625 342.328125 450.925781 347.480469 460.195312 356.40625 L 460.195312 347.996094 C 460.195312 324.300781 456.933594 300.78125 450.238281 278.121094 L 399.933594 278.121094 C 393.410156 300.78125 389.976562 324.300781 389.976562 347.996094 L 389.976562 356.40625 C 399.421875 347.480469 411.78125 342.328125 425.171875 342.328125 Z M 425.171875 342.328125 " fill-opacity="1" fill-rule="nonzero"/><path fill="#0b1c13" d="M 452.984375 586.285156 C 451.957031 586.285156 450.925781 585.941406 450.238281 585.253906 C 446.632812 582.164062 437.535156 578.902344 425.171875 578.902344 C 412.8125 578.902344 403.710938 581.992188 400.105469 585.253906 C 398.90625 586.285156 397.359375 586.628906 395.988281 586.113281 C 394.613281 585.597656 393.410156 584.398438 393.066406 583.023438 L 381.222656 532.035156 C 376.757812 512.292969 374.355469 492.035156 374.355469 471.433594 C 374.355469 452.375 376.414062 433.320312 380.363281 414.777344 C 380.707031 413.0625 382.082031 411.6875 383.96875 411.515625 C 385.6875 411.171875 387.402344 412.03125 388.433594 413.574219 C 395.816406 426.796875 409.894531 435.035156 425.171875 435.035156 C 440.28125 435.035156 454.359375 426.796875 461.914062 413.574219 C 462.773438 412.03125 464.488281 411.171875 466.375 411.515625 C 468.09375 411.859375 469.640625 413.0625 469.980469 414.777344 C 473.929688 433.320312 475.992188 452.375 475.992188 471.433594 C 475.992188 492.035156 473.757812 512.292969 469.125 532.035156 L 457.277344 583.023438 C 456.933594 584.570312 455.902344 585.597656 454.359375 586.113281 C 453.84375 586.285156 453.328125 586.285156 452.984375 586.285156 Z M 425.171875 570.320312 C 434.789062 570.320312 443.714844 572.035156 450.238281 575.125 L 460.710938 529.972656 C 465.175781 510.917969 467.40625 491.175781 467.40625 471.261719 C 467.40625 456.152344 466.035156 441.042969 463.457031 426.109375 C 454.015625 436.925781 440.109375 443.449219 425.34375 443.449219 C 410.578125 443.449219 396.671875 436.925781 387.230469 426.109375 C 384.65625 441.042969 383.28125 456.152344 383.28125 471.261719 C 383.28125 491.175781 385.515625 510.917969 389.976562 529.972656 L 400.449219 575.125 C 406.460938 572.207031 415.386719 570.320312 425.171875 570.320312 Z M 425.171875 570.320312 " fill-opacity="1" fill-rule="nonzero"/><path fill="#0b1c13" d="M 379.675781 454.265625 C 378.648438 454.265625 377.789062 453.921875 376.929688 453.40625 C 358.386719 438.640625 347.742188 416.664062 347.742188 392.972656 C 347.742188 366.363281 361.308594 341.8125 383.96875 327.5625 C 385.34375 326.707031 387.058594 326.707031 388.433594 327.5625 C 389.804688 328.421875 390.664062 329.96875 390.492188 331.511719 C 390.148438 337.351562 389.976562 342.84375 389.976562 347.996094 L 389.976562 356.40625 C 399.25 347.480469 411.78125 342.328125 425 342.328125 C 438.222656 342.328125 450.753906 347.480469 460.023438 356.40625 L 460.023438 347.996094 C 460.023438 342.671875 459.851562 337.351562 459.507812 331.511719 C 459.335938 329.96875 460.195312 328.421875 461.570312 327.5625 C 462.941406 326.707031 464.660156 326.707031 466.035156 327.5625 C 488.695312 341.8125 502.257812 366.191406 502.257812 392.972656 C 502.257812 416.664062 491.613281 438.640625 473.074219 453.40625 C 471.871094 454.433594 470.152344 454.605469 468.609375 453.921875 C 467.234375 453.234375 466.207031 451.859375 466.035156 450.316406 C 465.347656 442.074219 464.316406 434.003906 462.941406 426.28125 C 453.5 437.097656 439.59375 443.621094 424.828125 443.621094 C 410.066406 443.621094 396.160156 437.097656 386.714844 426.28125 C 385.34375 434.003906 384.3125 442.074219 383.625 450.316406 C 383.453125 451.859375 382.425781 453.234375 381.050781 453.921875 C 380.878906 454.265625 380.191406 454.265625 379.675781 454.265625 Z M 381.566406 339.925781 C 365.597656 352.972656 356.328125 372.199219 356.328125 392.972656 C 356.328125 411.171875 363.539062 428.339844 376.070312 441.214844 C 377.101562 432.117188 378.476562 423.191406 380.363281 414.777344 C 380.707031 413.0625 382.082031 411.6875 383.96875 411.515625 C 385.6875 411.171875 387.402344 412.03125 388.433594 413.574219 C 395.816406 426.796875 409.894531 435.035156 425.171875 435.035156 C 440.28125 435.035156 454.359375 426.796875 461.914062 413.574219 C 462.773438 412.03125 464.488281 411.171875 466.375 411.515625 C 468.09375 411.859375 469.640625 413.0625 469.980469 414.777344 C 471.871094 423.191406 473.246094 432.117188 474.273438 441.214844 C 486.980469 428.339844 494.019531 411.171875 494.019531 392.972656 C 494.019531 372.199219 484.746094 352.800781 468.78125 339.925781 C 468.953125 342.671875 468.953125 345.417969 468.953125 347.996094 L 468.953125 368.425781 C 468.953125 370.3125 467.75 372.03125 465.863281 372.542969 C 463.972656 373.058594 462.085938 372.371094 461.054688 370.65625 C 453.328125 358.296875 439.9375 350.742188 425.34375 350.742188 C 410.75 350.742188 397.359375 358.125 389.632812 370.65625 C 388.605469 372.199219 386.714844 373.058594 384.828125 372.542969 C 382.9375 372.027344 381.738281 370.3125 381.738281 368.425781 L 381.738281 347.996094 C 381.394531 345.417969 381.566406 342.671875 381.566406 339.925781 Z M 381.566406 339.925781 " fill-opacity="1" fill-rule="nonzero"/><path fill="#0b1c13" d="M 409.207031 265.417969 C 407.144531 265.417969 405.257812 263.871094 404.914062 261.640625 C 401.136719 235.542969 392.210938 171.507812 389.121094 142.152344 C 388.949219 139.746094 390.664062 137.6875 392.898438 137.515625 C 395.300781 137.34375 397.359375 139.058594 397.53125 141.292969 C 400.621094 170.476562 409.550781 234.34375 413.15625 260.4375 C 413.5 262.839844 411.78125 264.902344 409.550781 265.246094 C 409.722656 265.417969 409.550781 265.417969 409.207031 265.417969 Z M 409.207031 265.417969 " fill-opacity="1" fill-rule="nonzero"/><path fill="#0b1c13" d="M 392.554688 132.363281 C 390.148438 132.363281 388.261719 130.476562 388.261719 128.074219 C 388.261719 125.15625 388.433594 122.234375 388.777344 119.316406 C 389.121094 116.914062 391.179688 115.195312 393.582031 115.539062 C 395.988281 115.882812 397.703125 117.945312 397.359375 120.347656 C 397.015625 122.921875 396.84375 125.496094 396.84375 128.246094 C 396.84375 130.476562 394.785156 132.363281 392.554688 132.363281 Z M 392.554688 132.363281 " fill-opacity="1" fill-rule="nonzero"/><path fill="#0b1c13" d="M 396.160156 109.703125 C 395.644531 109.703125 395.300781 109.703125 394.785156 109.53125 C 392.554688 108.84375 391.351562 106.441406 392.039062 104.210938 C 394.269531 97.34375 397.1875 91.160156 401.136719 85.839844 C 402.511719 83.953125 405.257812 83.4375 407.144531 84.808594 C 409.035156 86.183594 409.550781 88.929688 408.175781 90.820312 C 404.914062 95.453125 402.339844 100.777344 400.277344 106.785156 C 399.59375 108.5 397.875 109.703125 396.160156 109.703125 Z M 396.160156 109.703125 " fill-opacity="1" fill-rule="nonzero"/><path fill="#0b1c13" d="M 403.371094 337.523438 C 403.371094 337.523438 403.199219 337.523438 403.371094 337.523438 C 400.792969 337.523438 399.078125 335.460938 399.078125 333.058594 C 399.59375 317.433594 401.136719 301.984375 403.539062 286.703125 C 403.882812 284.300781 406.117188 282.757812 408.519531 283.097656 C 410.921875 283.441406 412.46875 285.675781 412.125 288.078125 C 409.722656 302.84375 408.175781 318.121094 407.660156 333.402344 C 407.488281 335.632812 405.601562 337.523438 403.371094 337.523438 Z M 403.371094 337.523438 " fill-opacity="1" fill-rule="nonzero"/><path fill="#0b1c13" d="M 405.773438 565.339844 C 403.710938 565.339844 401.824219 563.796875 401.480469 561.734375 L 396.5 529.972656 C 393.582031 511.777344 392.039062 493.0625 391.867188 474.007812 C 391.867188 471.601562 393.753906 469.714844 396.160156 469.714844 C 398.5625 469.714844 400.449219 471.601562 400.449219 474.007812 C 400.621094 492.546875 402.167969 510.917969 404.914062 528.601562 L 409.894531 560.363281 C 410.238281 562.765625 408.691406 564.824219 406.289062 565.339844 C 406.117188 565.339844 405.945312 565.339844 405.773438 565.339844 Z M 405.773438 565.339844 " fill-opacity="1" fill-rule="nonzero"/><path fill="#0b1c13" d="M 396.160156 465.765625 C 393.753906 465.765625 391.867188 463.707031 391.867188 461.300781 C 392.039062 455.121094 392.210938 448.769531 392.726562 442.589844 C 392.898438 440.1875 394.957031 438.46875 397.359375 438.640625 C 399.765625 438.8125 401.480469 440.871094 401.308594 443.277344 C 400.964844 449.285156 400.621094 455.464844 400.449219 461.472656 C 400.449219 463.878906 398.5625 465.765625 396.160156 465.765625 Z M 396.160156 465.765625 " fill-opacity="1" fill-rule="nonzero"/><path fill="#0b1c13" d="M 445.429688 681.394531 C 443.371094 681.394531 441.484375 679.851562 441.140625 677.789062 C 440.625 674.527344 440.109375 671.265625 439.765625 668.175781 C 439.421875 665.773438 441.140625 663.710938 443.371094 663.371094 C 445.773438 663.027344 447.835938 664.742188 448.179688 666.972656 C 448.523438 670.066406 449.035156 673.328125 449.550781 676.417969 C 449.894531 678.820312 448.351562 681.050781 445.945312 681.394531 C 445.945312 681.394531 445.773438 681.394531 445.429688 681.394531 Z M 445.429688 681.394531 " fill-opacity="1" fill-rule="nonzero"/><path fill="#0b1c13" d="M 425.171875 790.582031 C 403.371094 790.582031 381.394531 788.351562 359.589844 784.058594 C 357.53125 783.714844 356.15625 781.828125 356.15625 779.769531 L 356.15625 773.585938 C 356.15625 772.386719 356.671875 771.183594 357.703125 770.324219 C 374.871094 755.5625 388.949219 728.4375 397.015625 693.585938 C 397.53125 691.351562 399.933594 689.808594 402.167969 690.324219 C 404.398438 690.839844 405.945312 693.242188 405.429688 695.472656 C 397.015625 731.011719 382.59375 759.339844 364.742188 775.476562 L 364.742188 776.164062 C 384.828125 779.941406 405.085938 781.828125 425.171875 781.828125 C 445.261719 781.828125 465.519531 779.941406 485.605469 776.164062 L 485.605469 775.476562 C 467.921875 759.511719 453.5 731.355469 445.089844 696.160156 C 444.574219 693.929688 445.945312 691.523438 448.351562 691.007812 C 450.582031 690.496094 452.984375 691.867188 453.5 694.273438 C 461.742188 728.777344 475.648438 755.734375 492.644531 770.324219 C 493.675781 771.183594 494.1875 772.386719 494.1875 773.585938 L 494.1875 779.769531 C 494.1875 781.828125 492.816406 783.542969 490.753906 784.058594 C 468.953125 788.351562 446.804688 790.582031 425.171875 790.582031 Z M 425.171875 790.582031 " fill-opacity="1" fill-rule="nonzero"/><path fill="#0b1c13" d="M 404.742188 681.222656 C 404.570312 681.222656 404.226562 681.222656 404.054688 681.222656 C 401.652344 680.878906 400.105469 678.648438 400.449219 676.246094 C 400.964844 673.15625 401.480469 670.066406 401.824219 666.976562 C 402.167969 664.570312 404.226562 663.027344 406.632812 663.371094 C 409.035156 663.710938 410.578125 665.773438 410.238281 668.175781 C 409.894531 671.4375 409.378906 674.527344 408.863281 677.617188 C 408.519531 679.679688 406.804688 681.222656 404.742188 681.222656 Z M 404.742188 681.222656 " fill-opacity="1" fill-rule="nonzero"/><path fill="#0b1c13" d="M 408.175781 652.382812 C 408.003906 652.382812 408.003906 652.382812 407.832031 652.382812 C 405.429688 652.210938 403.710938 650.148438 403.882812 647.746094 C 404.398438 640.363281 404.742188 632.640625 404.742188 625.085938 C 404.742188 609.632812 403.710938 594.183594 401.480469 579.417969 C 401.308594 578.558594 401.480469 577.703125 401.824219 576.84375 L 402.511719 575.296875 C 403.027344 574.269531 403.882812 573.582031 405.085938 573.238281 C 410.921875 571.347656 417.960938 570.320312 425.171875 570.320312 C 432.382812 570.320312 439.421875 571.347656 445.261719 573.238281 C 446.289062 573.582031 447.320312 574.4375 447.835938 575.296875 L 448.523438 576.84375 C 448.863281 577.703125 449.035156 578.558594 448.863281 579.417969 C 446.632812 594.183594 445.601562 609.632812 445.601562 625.085938 C 445.601562 632.296875 445.773438 639.335938 446.289062 646.371094 C 446.460938 648.777344 444.574219 650.835938 442.339844 651.007812 C 439.9375 651.179688 437.878906 649.292969 437.707031 647.058594 C 437.191406 639.847656 437.019531 632.46875 437.019531 625.257812 C 437.019531 610.148438 438.050781 595.210938 440.109375 580.792969 C 435.644531 579.589844 430.496094 579.074219 425.171875 579.074219 C 419.851562 579.074219 414.699219 579.761719 410.238281 580.792969 C 412.296875 595.210938 413.328125 610.148438 413.328125 625.257812 C 413.328125 632.980469 412.984375 640.878906 412.46875 648.433594 C 412.296875 650.664062 410.40625 652.382812 408.175781 652.382812 Z M 408.175781 652.382812 " fill-opacity="1" fill-rule="nonzero"/><path fill="#0b1c13" d="M 407.144531 595.382812 C 406.804688 595.382812 406.289062 595.382812 405.945312 595.210938 C 395.300781 592.121094 393.066406 587.316406 393.066406 584.054688 C 393.066406 574.609375 409.035156 570.492188 425 570.320312 C 427.40625 570.320312 429.292969 572.207031 429.292969 574.609375 C 429.292969 577.015625 427.40625 578.902344 425 578.902344 C 419.679688 578.902344 414.699219 579.589844 410.238281 580.621094 C 410.578125 583.710938 411.09375 586.972656 411.4375 590.578125 C 411.609375 591.949219 411.09375 593.324219 409.894531 594.355469 C 409.035156 595.039062 408.175781 595.382812 407.144531 595.382812 Z M 401.824219 584.054688 C 401.824219 584.054688 401.996094 584.226562 401.996094 584.226562 C 401.996094 584.054688 401.996094 583.882812 401.824219 584.054688 C 401.824219 583.882812 401.824219 583.882812 401.824219 584.054688 Z M 401.824219 584.054688 " fill-opacity="1" fill-rule="nonzero"/><path fill="#0b1c13" d="M 443.027344 595.382812 C 441.996094 595.382812 441.140625 595.039062 440.28125 594.355469 C 439.25 593.496094 438.5625 591.949219 438.734375 590.578125 C 439.078125 586.972656 439.59375 583.710938 439.9375 580.621094 C 435.472656 579.417969 430.496094 578.902344 425.171875 578.902344 C 422.769531 578.902344 420.882812 577.015625 420.882812 574.609375 C 420.882812 572.207031 422.769531 570.320312 425.171875 570.320312 C 441.140625 570.320312 457.105469 574.609375 457.105469 584.054688 C 457.105469 587.488281 454.875 592.121094 444.230469 595.210938 C 443.886719 595.382812 443.542969 595.382812 443.027344 595.382812 Z M 448.179688 583.882812 C 448.179688 584.054688 448.179688 584.054688 448.179688 584.226562 C 448.351562 584.054688 448.351562 584.054688 448.179688 583.882812 C 448.351562 583.882812 448.351562 583.882812 448.179688 583.882812 Z M 448.179688 583.882812 " fill-opacity="1" fill-rule="nonzero"/><path fill="#0b1c13" d="M 425.171875 790.582031 C 404.226562 790.582031 382.765625 788.523438 361.648438 784.746094 C 359.933594 784.402344 358.730469 783.203125 358.386719 781.65625 C 357.53125 780.625 357.1875 779.253906 357.359375 778.050781 C 357.875 774.960938 358.214844 772.042969 358.214844 769.296875 C 358.214844 742.683594 336.585938 721.054688 309.972656 721.054688 C 308.257812 721.054688 306.367188 721.226562 304.136719 721.398438 C 302.761719 721.570312 301.390625 721.054688 300.359375 720.023438 C 299.328125 718.992188 299.15625 717.449219 299.5 716.074219 C 301.5625 708.519531 302.589844 700.96875 302.589844 693.585938 C 302.589844 679.679688 299.328125 666.289062 292.976562 653.925781 C 292.632812 653.242188 292.460938 652.210938 292.460938 651.523438 C 300.015625 591.777344 303.964844 528.085938 303.964844 462.160156 C 303.964844 345.589844 291.605469 234.171875 269.457031 148.503906 C 266.882812 138.71875 267.738281 128.246094 271.859375 119.144531 C 306.882812 38.800781 357.015625 0 425.171875 0 C 493.160156 0 543.460938 38.800781 578.65625 118.800781 C 582.777344 128.074219 583.464844 138.375 581.0625 148.160156 C 558.742188 233.828125 546.554688 345.246094 546.554688 461.816406 C 546.554688 527.742188 550.328125 591.4375 558.054688 651.179688 C 558.226562 652.039062 558.054688 652.898438 557.539062 653.582031 C 551.1875 666.117188 547.925781 679.335938 547.925781 693.242188 C 547.925781 700.625 548.957031 708.175781 551.015625 715.730469 C 551.359375 717.105469 551.015625 718.648438 550.15625 719.679688 C 549.300781 720.710938 547.753906 721.226562 546.382812 721.054688 C 544.148438 720.710938 542.261719 720.710938 540.542969 720.710938 C 513.933594 720.710938 492.300781 742.34375 492.300781 768.953125 C 492.300781 771.183594 492.472656 773.585938 492.816406 775.992188 C 492.988281 776.335938 493.160156 776.675781 493.332031 777.019531 C 494.019531 778.910156 493.503906 780.796875 491.957031 782 C 491.441406 783.375 490.242188 784.230469 488.695312 784.574219 C 467.40625 788.695312 446.117188 790.582031 425.171875 790.582031 Z M 366.113281 776.847656 C 385.859375 780.28125 405.601562 782.171875 425 782.171875 C 444.402344 782.171875 464.316406 780.453125 483.886719 776.847656 C 483.546875 774.273438 483.375 771.699219 483.375 769.296875 C 483.375 738.050781 508.78125 712.46875 540.199219 712.46875 C 540.542969 712.46875 540.714844 712.46875 541.058594 712.46875 C 539.683594 706.117188 539.171875 699.765625 539.171875 693.585938 C 539.171875 678.820312 542.433594 664.570312 549.128906 651.179688 C 541.574219 591.4375 537.796875 527.742188 537.796875 461.988281 C 537.796875 344.730469 550.15625 232.453125 572.648438 146.097656 C 574.707031 138.203125 574.023438 129.789062 570.761719 122.234375 C 537.109375 45.667969 489.382812 8.414062 425.171875 8.414062 C 360.964844 8.414062 313.234375 45.667969 279.414062 122.234375 C 276.152344 129.617188 275.464844 138.203125 277.527344 146.097656 C 300.015625 232.453125 312.378906 344.730469 312.378906 461.988281 C 312.378906 527.742188 308.601562 591.4375 301.046875 651.179688 C 307.570312 664.570312 311.003906 678.820312 311.003906 693.585938 C 311.003906 699.765625 310.316406 706.117188 309.113281 712.46875 C 309.457031 712.46875 309.628906 712.46875 309.972656 712.46875 C 341.21875 712.46875 366.800781 737.878906 366.800781 769.296875 C 366.628906 771.699219 366.457031 774.273438 366.113281 776.847656 Z M 366.113281 776.847656 " fill-opacity="1" fill-rule="nonzero"/><g clip-path="url(#adf31897b7)"><path fill="#0b1c13" d="M 425.171875 850.5 C 316.839844 850.5 215.03125 808.265625 138.460938 731.699219 C 61.890625 655.128906 19.65625 553.324219 19.65625 444.992188 C 19.65625 355.71875 48.15625 271.082031 102.066406 200.007812 C 154.257812 131.335938 228.253906 80.175781 310.316406 55.96875 C 312.035156 55.453125 314.09375 56.140625 315.125 57.683594 C 316.152344 59.230469 316.152344 61.289062 314.953125 62.835938 C 301.734375 79.144531 289.886719 99.058594 279.757812 122.40625 C 276.496094 129.789062 275.808594 138.375 277.867188 146.269531 C 300.359375 232.625 312.71875 344.902344 312.71875 462.160156 C 312.71875 528.429688 308.773438 592.464844 301.21875 652.554688 C 300.875 654.957031 298.8125 656.503906 296.410156 656.332031 C 294.007812 655.988281 292.460938 653.925781 292.632812 651.523438 C 300.1875 591.777344 304.136719 528.085938 304.136719 462.160156 C 304.136719 345.589844 291.773438 234.171875 269.628906 148.503906 C 267.054688 138.71875 267.910156 128.246094 272.03125 119.144531 C 280.445312 100.089844 289.886719 83.09375 300.359375 68.5 C 139.148438 121.550781 28.070312 274.515625 28.070312 444.820312 C 28.070312 663.710938 206.105469 841.746094 425 841.746094 C 643.898438 841.746094 821.933594 663.710938 821.933594 444.820312 C 821.933594 274.515625 710.851562 121.550781 550.15625 68.15625 C 560.628906 82.75 570.074219 99.746094 578.484375 118.800781 C 582.605469 128.074219 583.292969 138.375 580.890625 148.160156 C 558.570312 233.828125 546.382812 345.246094 546.382812 461.816406 C 546.382812 527.742188 550.15625 591.4375 557.882812 651.179688 C 558.226562 653.582031 556.511719 655.644531 554.105469 655.988281 C 551.703125 656.332031 549.644531 654.613281 549.300781 652.210938 C 541.746094 592.121094 537.796875 527.914062 537.796875 461.816406 C 537.796875 344.5625 550.15625 232.28125 572.648438 145.925781 C 574.707031 138.03125 574.023438 129.617188 570.761719 122.0625 C 560.460938 98.886719 548.613281 78.800781 535.566406 62.492188 C 534.363281 60.945312 534.363281 58.886719 535.394531 57.339844 C 536.421875 55.796875 538.3125 55.109375 540.199219 55.625 C 622.4375 79.832031 696.433594 130.992188 748.453125 199.664062 C 802.359375 270.566406 830.859375 355.203125 830.859375 444.648438 C 830.859375 552.980469 788.625 654.785156 712.054688 731.355469 C 635.484375 807.921875 533.503906 850.5 425.171875 850.5 Z M 425.171875 850.5 " fill-opacity="1" fill-rule="nonzero"/></g><path fill="#0b1c13" d="M 666.042969 208.761719 L 583.636719 208.761719 C 581.234375 208.761719 579.34375 206.875 579.34375 204.46875 C 579.34375 202.066406 581.234375 200.179688 583.636719 200.179688 L 666.042969 200.179688 C 668.449219 200.179688 670.335938 202.066406 670.335938 204.46875 C 670.335938 206.875 668.449219 208.761719 666.042969 208.761719 Z M 666.042969 208.761719 " fill-opacity="1" fill-rule="nonzero"/><path fill="#0b1c13" d="M 266.367188 208.761719 L 183.101562 208.761719 C 180.695312 208.761719 178.808594 206.875 178.808594 204.46875 C 178.808594 202.066406 180.695312 200.179688 183.101562 200.179688 L 266.367188 200.179688 C 268.769531 200.179688 270.660156 202.066406 270.660156 204.46875 C 270.660156 206.875 268.769531 208.761719 266.367188 208.761719 Z M 266.367188 208.761719 " fill-opacity="1" fill-rule="nonzero"/><path fill="#0b1c13" d="M 735.917969 310.566406 L 577.972656 310.566406 C 575.566406 310.566406 573.679688 308.679688 573.679688 306.277344 C 573.679688 303.871094 575.566406 301.984375 577.972656 301.984375 L 735.917969 301.984375 C 738.324219 301.984375 740.210938 303.871094 740.210938 306.277344 C 740.210938 308.679688 738.324219 310.566406 735.917969 310.566406 Z M 735.917969 310.566406 " fill-opacity="1" fill-rule="nonzero"/><path fill="#0b1c13" d="M 263.789062 310.566406 L 113.226562 310.566406 C 110.820312 310.566406 108.933594 308.679688 108.933594 306.277344 C 108.933594 303.871094 110.820312 301.984375 113.226562 301.984375 L 263.789062 301.984375 C 266.195312 301.984375 268.082031 303.871094 268.082031 306.277344 C 268.082031 308.679688 266.023438 310.566406 263.789062 310.566406 Z M 263.789062 310.566406 " fill-opacity="1" fill-rule="nonzero"/><path fill="#0b1c13" d="M 488.695312 783.03125 C 487.835938 783.03125 486.980469 782.6875 486.292969 782.34375 C 485.433594 781.65625 484.746094 780.625 484.574219 779.597656 C 483.886719 775.992188 483.546875 772.558594 483.546875 769.125 C 483.546875 737.878906 508.953125 712.296875 540.371094 712.296875 C 540.714844 712.296875 540.886719 712.296875 541.230469 712.296875 C 539.855469 705.945312 539.34375 699.59375 539.34375 693.414062 C 539.34375 650.835938 567.15625 613.582031 607.5 601.222656 C 599.945312 583.023438 596.167969 563.96875 596.167969 544.394531 C 596.167969 461.472656 663.640625 394.175781 746.390625 394.175781 C 751.886719 394.175781 757.894531 394.519531 764.589844 395.378906 C 766.480469 395.550781 768.023438 397.09375 768.367188 399.15625 C 770.253906 414.261719 771.285156 429.199219 771.285156 443.449219 C 771.285156 609.632812 652.824219 752.472656 489.726562 783.203125 C 489.210938 783.03125 489.039062 783.03125 488.695312 783.03125 Z M 540.371094 721.054688 C 513.761719 721.054688 492.128906 742.683594 492.128906 769.296875 C 492.128906 770.839844 492.128906 772.386719 492.300781 773.757812 C 649.046875 742.171875 762.359375 603.96875 762.359375 443.277344 C 762.359375 430.398438 761.5 417.007812 759.953125 403.445312 C 754.976562 402.933594 750.511719 402.761719 746.21875 402.761719 C 668.105469 402.761719 604.582031 466.28125 604.582031 544.394531 C 604.582031 564.480469 608.703125 583.882812 617.113281 602.25 C 617.628906 603.453125 617.628906 604.65625 617.113281 605.855469 C 616.597656 607.058594 615.570312 607.917969 614.367188 608.089844 C 575.222656 617.875 547.925781 653.070312 547.925781 693.242188 C 547.925781 700.625 548.957031 708.175781 551.015625 715.730469 C 551.359375 717.105469 551.015625 718.648438 550.15625 719.679688 C 549.300781 720.710938 547.753906 721.226562 546.382812 721.054688 C 543.976562 721.054688 542.089844 721.054688 540.371094 721.054688 Z M 540.371094 721.054688 " fill-opacity="1" fill-rule="nonzero"/><path fill="#0b1c13" d="M 488.695312 783.03125 C 487.835938 783.03125 486.980469 782.6875 486.292969 782.34375 C 485.433594 781.65625 484.746094 780.625 484.574219 779.597656 C 483.886719 775.992188 483.546875 772.558594 483.546875 769.125 C 483.546875 737.878906 508.953125 712.296875 540.371094 712.296875 C 540.714844 712.296875 540.886719 712.296875 541.230469 712.296875 C 539.855469 705.945312 539.34375 699.59375 539.34375 693.414062 C 539.34375 650.835938 567.15625 613.582031 607.5 601.222656 C 599.945312 583.023438 596.167969 563.96875 596.167969 544.394531 C 596.167969 461.472656 663.640625 394.175781 746.390625 394.175781 C 751.886719 394.175781 757.894531 394.519531 764.589844 395.378906 C 766.480469 395.550781 768.023438 397.09375 768.367188 399.15625 C 770.253906 414.261719 771.285156 429.199219 771.285156 443.449219 C 771.285156 609.632812 652.824219 752.472656 489.726562 783.203125 C 489.210938 783.03125 489.039062 783.03125 488.695312 783.03125 Z M 540.371094 721.054688 C 513.761719 721.054688 492.128906 742.683594 492.128906 769.296875 C 492.128906 770.839844 492.128906 772.386719 492.300781 773.757812 C 649.046875 742.171875 762.359375 603.96875 762.359375 443.277344 C 762.359375 430.398438 761.5 417.007812 759.953125 403.445312 C 754.976562 402.933594 750.511719 402.761719 746.21875 402.761719 C 668.105469 402.761719 604.582031 466.28125 604.582031 544.394531 C 604.582031 564.480469 608.703125 583.882812 617.113281 602.25 C 617.628906 603.453125 617.628906 604.65625 617.113281 605.855469 C 616.597656 607.058594 615.570312 607.917969 614.367188 608.089844 C 575.222656 617.875 547.925781 653.070312 547.925781 693.242188 C 547.925781 700.625 548.957031 708.175781 551.015625 715.730469 C 551.359375 717.105469 551.015625 718.648438 550.15625 719.679688 C 549.300781 720.710938 547.753906 721.226562 546.382812 721.054688 C 543.976562 721.054688 542.089844 721.054688 540.371094 721.054688 Z M 540.371094 721.054688 " fill-opacity="1" fill-rule="nonzero"/><path fill="#0b1c13" d="M 649.90625 613.925781 C 647.503906 613.925781 645.613281 612.039062 645.613281 609.632812 C 645.613281 591.777344 659.691406 577.1875 677.203125 576.15625 C 676.6875 573.238281 676.515625 570.320312 676.515625 567.570312 C 676.515625 542.164062 693.855469 520.015625 718.40625 513.835938 C 720.640625 513.320312 723.042969 514.695312 723.558594 516.925781 C 724.074219 519.160156 722.699219 521.5625 720.46875 522.078125 C 699.523438 527.398438 684.929688 546.113281 684.929688 567.570312 C 684.929688 571.519531 685.445312 575.46875 686.472656 579.589844 C 686.816406 580.964844 686.472656 582.507812 685.617188 583.539062 C 684.757812 584.570312 683.210938 585.082031 681.839844 584.910156 C 680.636719 584.738281 679.777344 584.738281 678.75 584.738281 C 665.015625 584.738281 653.855469 595.898438 653.855469 609.632812 C 654.199219 611.867188 652.308594 613.925781 649.90625 613.925781 Z M 649.90625 613.925781 " fill-opacity="1" fill-rule="nonzero"/><path fill="#0b1c13" d="M 201.984375 613.925781 C 199.582031 613.925781 197.691406 612.039062 197.691406 609.632812 C 197.691406 595.898438 186.535156 584.738281 172.800781 584.738281 C 171.941406 584.738281 170.910156 584.738281 169.707031 584.910156 C 168.335938 585.082031 166.960938 584.570312 165.929688 583.539062 C 165.074219 582.507812 164.730469 580.964844 165.074219 579.589844 C 166.101562 575.46875 166.617188 571.519531 166.617188 567.570312 C 166.617188 546.113281 152.023438 527.398438 131.078125 522.078125 C 128.847656 521.5625 127.304688 519.160156 127.988281 516.925781 C 128.503906 514.695312 130.910156 513.148438 133.140625 513.835938 C 157.863281 520.015625 175.03125 542.164062 175.03125 567.570312 C 175.03125 570.492188 174.859375 573.238281 174.34375 576.15625 C 192.027344 577.015625 205.933594 591.777344 205.933594 609.632812 C 206.277344 611.867188 204.386719 613.925781 201.984375 613.925781 Z M 201.984375 613.925781 " fill-opacity="1" fill-rule="nonzero"/><path fill="#0b1c13" d="M 289.542969 514.007812 L 263.789062 514.007812 C 261.386719 514.007812 259.5 512.121094 259.5 509.714844 C 259.5 507.3125 261.386719 505.425781 263.789062 505.425781 L 289.542969 505.425781 C 291.945312 505.425781 293.835938 507.3125 293.835938 509.714844 C 293.835938 512.121094 291.773438 514.007812 289.542969 514.007812 Z M 289.542969 514.007812 " fill-opacity="1" fill-rule="nonzero"/><path fill="#0b1c13" d="M 285.59375 412.375 L 190.996094 412.375 C 188.59375 412.375 186.707031 410.484375 186.707031 408.082031 C 186.707031 405.679688 188.59375 403.789062 190.996094 403.789062 L 285.59375 403.789062 C 288 403.789062 289.886719 405.679688 289.886719 408.082031 C 289.886719 410.484375 288 412.375 285.59375 412.375 Z M 285.59375 412.375 " fill-opacity="1" fill-rule="nonzero"/><path fill="#0b1c13" d="M 586.726562 514.007812 L 564.75 514.007812 C 562.347656 514.007812 560.460938 512.121094 560.460938 509.714844 C 560.460938 507.3125 562.347656 505.425781 564.75 505.425781 L 586.554688 505.425781 C 588.957031 505.425781 590.847656 507.3125 590.847656 509.714844 C 590.847656 512.121094 588.957031 514.007812 586.726562 514.007812 Z M 586.726562 514.007812 " fill-opacity="1" fill-rule="nonzero"/><path fill="#0b1c13" d="M 659.347656 412.375 L 564.75 412.375 C 562.347656 412.375 560.460938 410.484375 560.460938 408.082031 C 560.460938 405.679688 562.347656 403.789062 564.75 403.789062 L 659.347656 403.789062 C 661.753906 403.789062 663.640625 405.679688 663.640625 408.082031 C 663.640625 410.484375 661.753906 412.375 659.347656 412.375 Z M 659.347656 412.375 " fill-opacity="1" fill-rule="nonzero"/></svg>