<svg xmlns="http://www.w3.org/2000/svg" xmlns:xlink="http://www.w3.org/1999/xlink" width="1133" zoomAndPan="magnify" viewBox="0 0 850.5 850.499973" height="1133" preserveAspectRatio="xMidYMid meet" version="1.0"><defs><clipPath id="0dc7d80224"><path d="M 398 803 L 419 803 L 419 850 L 398 850 Z M 398 803 " clip-rule="nonzero"/></clipPath><clipPath id="1503551314"><path d="M 425 803 L 446 803 L 446 850 L 425 850 Z M 425 803 " clip-rule="nonzero"/></clipPath><clipPath id="87f19423bb"><path d="M 726 175 L 752.765625 175 L 752.765625 202 L 726 202 Z M 726 175 " clip-rule="nonzero"/></clipPath><clipPath id="1307f9973d"><path d="M 97.265625 172 L 124 172 L 124 199 L 97.265625 199 Z M 97.265625 172 " clip-rule="nonzero"/></clipPath></defs><path fill="#fabf90" d="M 369.6875 267.667969 C 369.6875 267.667969 266.28125 394.164062 224.640625 256.757812 L 207.210938 256.757812 C 207.210938 256.757812 241.4375 415.332031 357.90625 318.226562 L 369.6875 267.667969 " fill-opacity="1" fill-rule="nonzero"/><path fill="#f1af80" d="M 288.941406 349.699219 C 244.382812 349.699219 221.542969 301.160156 212.304688 274.246094 C 214.015625 273.082031 215.5 271.683594 216.691406 270.089844 C 225.984375 293.917969 249.226562 340.738281 288.339844 340.738281 C 305.84375 340.738281 326.535156 331.359375 350.554688 306.382812 C 348.828125 313.03125 347.707031 319.828125 347.125 326.664062 C 324.546875 343.175781 305.28125 349.699219 288.941406 349.699219 M 209.035156 263.835938 C 207.792969 259.417969 207.210938 256.757812 207.210938 256.757812 L 211.953125 256.757812 C 211.875 259.4375 210.800781 261.882812 209.035156 263.835938 " fill-opacity="1" fill-rule="nonzero"/><path fill="#ffffff" d="M 334.386719 282.460938 C 334.386719 282.460938 310.382812 269.945312 317.277344 288.769531 C 317.277344 288.769531 312.757812 297.242188 320.179688 303.523438 C 320.179688 303.523438 315.335938 310.878906 321.144531 315.71875 C 321.144531 315.71875 317.527344 322.355469 325.148438 328.082031 C 325.148438 328.082031 319.523438 341.878906 336.964844 343.820312 L 334.386719 282.460938 " fill-opacity="1" fill-rule="nonzero"/><g clip-path="url(#0dc7d80224)"><path fill="#141517" d="M 401.507812 804.402344 C 401.507812 804.402344 390.78125 815.585938 411.363281 850.148438 C 411.363281 850.148438 426.53125 817.007812 411.9375 803.417969 L 401.507812 804.402344 " fill-opacity="1" fill-rule="nonzero"/></g><path fill="#fabf90" d="M 409.484375 645.046875 C 409.484375 645.046875 413.53125 668 409.414062 709.265625 C 409.414062 709.265625 415.554688 749.410156 412.964844 806.570312 C 412.964844 806.570312 416.671875 823.09375 410.296875 832.445312 C 410.296875 832.445312 403.628906 829.828125 401.972656 809.546875 C 401.972656 809.546875 391.632812 782.300781 384.667969 710.933594 C 384.667969 710.933594 373.4375 681.554688 369.367188 648.820312 L 409.484375 645.046875 " fill-opacity="1" fill-rule="nonzero"/><g clip-path="url(#1503551314)"><path fill="#141517" d="M 431.347656 803.660156 C 431.347656 803.660156 418.527344 812.332031 431.355469 850.460938 C 431.355469 850.460938 453.15625 821.265625 441.75 804.914062 L 431.347656 803.660156 " fill-opacity="1" fill-rule="nonzero"/></g><path fill="#fabf90" d="M 472.691406 649.570312 C 472.691406 649.570312 471.816406 672.855469 459.109375 712.320312 C 459.109375 712.320312 456.65625 752.871094 442.109375 808.203125 C 442.109375 808.203125 442.242188 825.132812 434.042969 832.9375 C 434.042969 832.9375 428.078125 828.96875 430.730469 808.800781 C 430.730469 808.800781 426.351562 779.972656 434.570312 708.746094 C 434.570312 708.746094 429.769531 677.648438 432.679688 644.796875 L 472.691406 649.570312 " fill-opacity="1" fill-rule="nonzero"/><path fill="#fabf90" d="M 369.6875 267.667969 C 369.6875 267.667969 426.761719 240.675781 479.316406 271.609375 C 479.316406 271.609375 534.558594 349.027344 440.507812 487.257812 L 400.082031 487.257812 C 400.082031 487.257812 303.785156 351.195312 369.6875 267.667969 " fill-opacity="1" fill-rule="nonzero"/><path fill="#f1af80" d="M 400.074219 487.25 C 399.519531 486.46875 346.617188 411.328125 346.625 338.652344 C 346.632812 313.664062 352.890625 288.964844 369.6875 267.667969 C 369.6875 267.667969 385.300781 260.285156 407.71875 257.671875 L 407.71875 267.667969 L 439.753906 267.667969 L 439.753906 257.902344 C 452.574219 259.703125 466.085938 263.824219 479.316406 271.609375 C 479.316406 271.609375 480.113281 272.730469 481.347656 274.925781 L 492.121094 321.121094 C 493.042969 321.890625 493.972656 322.652344 494.886719 323.386719 C 495.234375 327.597656 495.433594 332.039062 495.433594 336.726562 C 495.433594 337.433594 495.433594 338.140625 495.421875 338.851562 C 495.421875 338.472656 495.421875 338.097656 495.414062 337.722656 C 495.421875 336.921875 495.421875 336.136719 495.414062 335.347656 L 346.679688 335.347656 C 346.652344 336.464844 346.644531 337.585938 346.644531 338.714844 C 346.660156 411.375 399.519531 486.460938 400.074219 487.25 " fill-opacity="1" fill-rule="nonzero"/><path fill="#fabf90" d="M 480.328125 270.5625 C 480.328125 270.5625 583.746094 397.058594 625.375 259.652344 L 642.816406 259.652344 C 642.816406 259.652344 608.589844 418.21875 492.121094 321.121094 L 480.328125 270.5625 " fill-opacity="1" fill-rule="nonzero"/><path fill="#f1af80" d="M 640.980469 266.726562 C 639.226562 264.773438 638.152344 262.320312 638.070312 259.652344 L 642.816406 259.652344 C 642.816406 259.652344 642.242188 262.3125 640.980469 266.726562 " fill-opacity="1" fill-rule="nonzero"/><path fill="#f1af80" d="M 561.085938 352.59375 C 542.839844 352.59375 520.976562 344.46875 494.886719 323.386719 C 493.972656 322.652344 493.042969 321.890625 492.121094 321.121094 L 485.726562 293.675781 C 515.703125 330.453125 540.929688 343.632812 561.675781 343.632812 C 600.800781 343.632812 624.03125 296.820312 633.335938 272.972656 C 634.527344 274.566406 636.011719 275.972656 637.722656 277.128906 C 628.480469 304.0625 605.644531 352.59375 561.085938 352.59375 " fill-opacity="1" fill-rule="nonzero"/><path fill="#ffffff" d="M 515.648438 285.355469 C 515.648438 285.355469 539.640625 272.839844 532.75 291.660156 C 532.75 291.660156 537.269531 300.136719 529.847656 306.417969 C 529.847656 306.417969 534.683594 313.773438 528.878906 318.621094 C 528.878906 318.621094 532.496094 325.25 524.878906 330.972656 C 524.878906 330.972656 530.492188 344.78125 513.070312 346.714844 L 515.648438 285.355469 " fill-opacity="1" fill-rule="nonzero"/><path fill="#dbd8d5" d="M 485.726562 317.867188 C 485.726562 317.867188 488.511719 286.816406 476.371094 269.945312 C 476.371094 269.945312 525.953125 254.929688 522.570312 308.414062 C 522.570312 308.414062 522.648438 331.492188 514.144531 344.269531 L 496.660156 346.714844 L 485.726562 317.867188 " fill-opacity="1" fill-rule="nonzero"/><path fill="#fabf90" d="M 626.824219 261.28125 C 626.824219 261.28125 604.085938 262.734375 615.699219 238.515625 L 648.617188 238.515625 C 648.617188 238.515625 667.984375 257.429688 640.390625 261.289062 L 626.824219 261.28125 " fill-opacity="1" fill-rule="nonzero"/><path fill="#fef3d9" d="M 743.921875 309.007812 C 743.824219 306.105469 742.953125 302.207031 739.222656 299.984375 L 739.222656 201.050781 C 699.15625 207.097656 659.082031 201.050781 659.082031 201.050781 L 659.082031 299.984375 C 659.082031 299.984375 654.3125 301.007812 653.710938 309.007812 L 743.921875 309.007812 " fill-opacity="1" fill-rule="nonzero"/><path fill="#fef3d9" d="M 664.785156 259.347656 C 664.785156 265.878906 658.804688 271.171875 651.429688 271.171875 C 644.042969 271.171875 638.070312 265.878906 638.070312 259.347656 L 638.070312 239.609375 C 638.070312 233.085938 644.042969 227.792969 651.429688 227.792969 C 658.804688 227.792969 664.785156 233.085938 664.785156 239.609375 L 664.785156 259.347656 M 649.332031 218.359375 C 638.75 218.359375 630.164062 225.957031 630.164062 235.328125 L 630.164062 263.628906 C 630.164062 273 638.75 280.605469 649.332031 280.605469 C 659.917969 280.605469 668.503906 273 668.503906 263.628906 L 668.503906 235.328125 C 668.503906 225.957031 659.917969 218.359375 649.332031 218.359375 " fill-opacity="1" fill-rule="nonzero"/><path fill="#f3b527" d="M 735.460938 206.28125 L 735.460938 298.558594 C 699.15625 318.609375 662.84375 298.558594 662.84375 298.558594 L 662.84375 206.28125 C 662.84375 206.28125 699.15625 211.773438 735.460938 206.28125 " fill-opacity="1" fill-rule="nonzero"/><path fill="#ee9824" d="M 702.925781 299.527344 C 684.207031 299.527344 670.515625 295.316406 662.84375 292.136719 L 662.84375 298.558594 L 662.84375 258.460938 C 672.523438 271.441406 692.453125 290.980469 724.726562 290.980469 C 728.164062 290.980469 731.746094 290.757812 735.460938 290.28125 L 735.460938 295.523438 C 723.394531 298.425781 712.496094 299.527344 702.925781 299.527344 " fill-opacity="1" fill-rule="nonzero"/><path fill="#f0a27d" d="M 700.5 307.464844 C 700.5 307.464844 700.492188 307.464844 700.492188 307.464844 C 700.492188 307.464844 700.5 307.464844 700.5 307.464844 M 700.5 307.464844 C 711.136719 307.464844 723.089844 305.289062 735.050781 298.785156 C 723.089844 305.289062 711.144531 307.464844 700.5 307.464844 " fill-opacity="1" fill-rule="nonzero"/><path fill="#eb8223" d="M 700.5 307.464844 C 700.5 307.464844 700.492188 307.464844 700.492188 307.464844 C 679.164062 307.464844 663.128906 298.710938 662.84375 298.558594 L 662.84375 292.136719 C 670.515625 295.316406 684.207031 299.527344 702.925781 299.527344 C 712.496094 299.527344 723.394531 298.425781 735.460938 295.523438 L 735.460938 298.558594 C 735.328125 298.632812 735.191406 298.710938 735.050781 298.785156 C 723.089844 305.289062 711.136719 307.464844 700.5 307.464844 " fill-opacity="1" fill-rule="nonzero"/><path fill="#fef3d9" d="M 680.355469 221.25 C 680.355469 223 678.941406 224.421875 677.1875 224.421875 C 675.441406 224.421875 674.015625 223 674.015625 221.25 C 674.015625 219.496094 675.441406 218.082031 677.1875 218.082031 C 678.941406 218.082031 680.355469 219.496094 680.355469 221.25 " fill-opacity="1" fill-rule="nonzero"/><path fill="#fef3d9" d="M 717.5625 244.367188 C 717.5625 246.113281 716.140625 247.539062 714.394531 247.539062 C 712.648438 247.539062 711.234375 246.113281 711.234375 244.367188 C 711.234375 242.609375 712.648438 241.195312 714.394531 241.195312 C 716.140625 241.195312 717.5625 242.609375 717.5625 244.367188 " fill-opacity="1" fill-rule="nonzero"/><path fill="#fef3d9" d="M 705.496094 261.148438 C 705.496094 262.902344 704.070312 264.320312 702.328125 264.320312 C 700.570312 264.320312 699.15625 262.902344 699.15625 261.148438 C 699.15625 259.398438 700.570312 257.984375 702.328125 257.984375 C 704.070312 257.984375 705.496094 259.398438 705.496094 261.148438 " fill-opacity="1" fill-rule="nonzero"/><path fill="#fef3d9" d="M 689.746094 273.429688 C 689.746094 275.175781 688.324219 276.601562 686.578125 276.601562 C 684.832031 276.601562 683.410156 275.175781 683.410156 273.429688 C 683.410156 271.675781 684.832031 270.257812 686.578125 270.257812 C 688.324219 270.257812 689.746094 271.675781 689.746094 273.429688 " fill-opacity="1" fill-rule="nonzero"/><path fill="#fef3d9" d="M 722.875 284.609375 C 722.875 286.359375 721.449219 287.78125 719.703125 287.78125 C 717.949219 287.78125 716.527344 286.359375 716.527344 284.609375 C 716.527344 282.855469 717.949219 281.4375 719.703125 281.4375 C 721.449219 281.4375 722.875 282.855469 722.875 284.609375 " fill-opacity="1" fill-rule="nonzero"/><path fill="#fef3d9" d="M 708.65625 220.375 C 708.65625 222.121094 707.242188 223.546875 705.496094 223.546875 C 703.742188 223.546875 702.328125 222.121094 702.328125 220.375 C 702.328125 218.617188 703.742188 217.203125 705.496094 217.203125 C 707.242188 217.203125 708.65625 218.617188 708.65625 220.375 " fill-opacity="1" fill-rule="nonzero"/><path fill="#fef3d9" d="M 685.457031 247.539062 C 685.457031 248.605469 684.597656 249.480469 683.523438 249.480469 C 682.449219 249.480469 681.582031 248.605469 681.582031 247.539062 C 681.582031 246.460938 682.449219 245.59375 683.523438 245.59375 C 684.597656 245.59375 685.457031 246.460938 685.457031 247.539062 " fill-opacity="1" fill-rule="nonzero"/><path fill="#fef3d9" d="M 728.09375 268.304688 C 728.09375 269.390625 727.222656 270.257812 726.148438 270.257812 C 725.074219 270.257812 724.214844 269.390625 724.214844 268.304688 C 724.214844 267.230469 725.074219 266.371094 726.148438 266.371094 C 727.222656 266.371094 728.09375 267.230469 728.09375 268.304688 " fill-opacity="1" fill-rule="nonzero"/><path fill="#fef3d9" d="M 696.410156 278.546875 C 696.410156 279.621094 695.539062 280.480469 694.457031 280.480469 C 693.390625 280.480469 692.523438 279.621094 692.523438 278.546875 C 692.523438 277.460938 693.390625 276.601562 694.457031 276.601562 C 695.539062 276.601562 696.410156 277.460938 696.410156 278.546875 " fill-opacity="1" fill-rule="nonzero"/><path fill="#fef3d9" d="M 685.457031 289.71875 C 685.457031 290.792969 684.597656 291.660156 683.523438 291.660156 C 682.449219 291.660156 681.582031 290.792969 681.582031 289.71875 C 681.582031 288.640625 682.449219 287.78125 683.523438 287.78125 C 684.597656 287.78125 685.457031 288.640625 685.457031 289.71875 " fill-opacity="1" fill-rule="nonzero"/><path fill="#fef3d9" d="M 670.445312 272.203125 C 670.445312 273.269531 669.578125 274.148438 668.503906 274.148438 C 667.425781 274.148438 666.550781 273.269531 666.550781 272.203125 C 666.550781 271.128906 667.425781 270.257812 668.503906 270.257812 C 669.578125 270.257812 670.445312 271.128906 670.445312 272.203125 " fill-opacity="1" fill-rule="nonzero"/><path fill="#fef3d9" d="M 687.410156 228.097656 C 687.410156 229.171875 686.542969 230.039062 685.457031 230.039062 C 684.394531 230.039062 683.523438 229.171875 683.523438 228.097656 C 683.523438 227.03125 684.394531 226.160156 685.457031 226.160156 C 686.542969 226.160156 687.410156 227.03125 687.410156 228.097656 " fill-opacity="1" fill-rule="nonzero"/><path fill="#fef3d9" d="M 724.808594 251.425781 C 724.808594 252.492188 723.9375 253.371094 722.875 253.371094 C 721.800781 253.371094 720.929688 252.492188 720.929688 251.425781 C 720.929688 250.34375 721.800781 249.480469 722.875 249.480469 C 723.9375 249.480469 724.808594 250.34375 724.808594 251.425781 " fill-opacity="1" fill-rule="nonzero"/><path fill="#fef3d9" d="M 721.636719 226.160156 C 721.636719 227.226562 720.777344 228.097656 719.703125 228.097656 C 718.621094 228.097656 717.753906 227.226562 717.753906 226.160156 C 717.753906 225.085938 718.621094 224.21875 719.703125 224.21875 C 720.777344 224.21875 721.636719 225.085938 721.636719 226.160156 " fill-opacity="1" fill-rule="nonzero"/><path fill="#fef3d9" d="M 673.308594 247.539062 C 673.308594 248.605469 672.441406 249.480469 671.367188 249.480469 C 670.292969 249.480469 669.414062 248.605469 669.414062 247.539062 C 669.414062 246.460938 670.292969 245.59375 671.367188 245.59375 C 672.441406 245.59375 673.308594 246.460938 673.308594 247.539062 " fill-opacity="1" fill-rule="nonzero"/><path fill="#ffffff" d="M 716.792969 173.410156 C 716.792969 185.425781 707.0625 195.171875 695.066406 195.171875 C 683.058594 195.171875 673.328125 185.425781 673.328125 173.410156 C 673.328125 161.40625 683.058594 151.664062 695.066406 151.664062 C 707.0625 151.664062 716.792969 161.40625 716.792969 173.410156 " fill-opacity="1" fill-rule="nonzero"/><path fill="#ffffff" d="M 734.941406 180.15625 C 734.941406 187.226562 729.210938 192.957031 722.140625 192.957031 C 715.074219 192.957031 709.34375 187.226562 709.34375 180.15625 C 709.34375 173.085938 715.074219 167.34375 722.140625 167.34375 C 729.210938 167.34375 734.941406 173.085938 734.941406 180.15625 " fill-opacity="1" fill-rule="nonzero"/><g clip-path="url(#87f19423bb)"><path fill="#ffffff" d="M 752.8125 188.101562 C 752.8125 195.296875 746.984375 201.128906 739.792969 201.128906 C 732.613281 201.128906 726.777344 195.296875 726.777344 188.101562 C 726.777344 180.910156 732.613281 175.078125 739.792969 175.078125 C 746.984375 175.078125 752.8125 180.910156 752.8125 188.101562 " fill-opacity="1" fill-rule="nonzero"/></g><path fill="#ffffff" d="M 743.285156 198.039062 C 743.285156 205.359375 737.351562 211.289062 730.042969 211.289062 C 722.722656 211.289062 716.792969 205.359375 716.792969 198.039062 C 716.792969 190.71875 722.722656 184.796875 730.042969 184.796875 C 737.351562 184.796875 743.285156 190.71875 743.285156 198.039062 " fill-opacity="1" fill-rule="nonzero"/><path fill="#ffffff" d="M 722.140625 194.722656 C 722.140625 204.847656 713.9375 213.054688 703.820312 213.054688 C 693.714844 213.054688 685.511719 204.847656 685.511719 194.722656 C 685.511719 184.601562 693.714844 176.402344 703.820312 176.402344 C 713.9375 176.402344 722.140625 184.601562 722.140625 194.722656 " fill-opacity="1" fill-rule="nonzero"/><path fill="#ffffff" d="M 703.507812 184.796875 C 703.507812 200.339844 690.910156 212.945312 675.378906 212.945312 C 659.835938 212.945312 647.238281 200.339844 647.238281 184.796875 C 647.238281 169.242188 659.835938 156.636719 675.378906 156.636719 C 690.910156 156.636719 703.507812 169.242188 703.507812 184.796875 " fill-opacity="1" fill-rule="nonzero"/><path fill="#ffffff" d="M 672.46875 223.1875 C 672.46875 234.886719 668.546875 244.367188 663.703125 244.367188 C 658.867188 244.367188 654.9375 234.886719 654.9375 223.1875 C 654.9375 211.484375 658.867188 202 663.703125 202 C 668.546875 202 672.46875 211.484375 672.46875 223.1875 " fill-opacity="1" fill-rule="nonzero"/><path fill="#ffffff" d="M 677.464844 212.300781 C 677.464844 215.535156 674.957031 218.160156 671.867188 218.160156 C 668.769531 218.160156 666.253906 215.535156 666.253906 212.300781 C 666.253906 209.058594 668.769531 206.433594 671.867188 206.433594 C 674.957031 206.433594 677.464844 209.058594 677.464844 212.300781 " fill-opacity="1" fill-rule="nonzero"/><path fill="#ffffff" d="M 661.339844 208.988281 C 661.339844 212.839844 658.789062 215.976562 655.65625 215.976562 C 652.511719 215.976562 649.976562 212.839844 649.976562 208.988281 C 649.976562 205.125 652.511719 202 655.65625 202 C 658.789062 202 661.339844 205.125 661.339844 208.988281 " fill-opacity="1" fill-rule="nonzero"/><path fill="#ffffff" d="M 666.558594 220.554688 C 666.558594 225.113281 663.355469 228.820312 659.386719 228.820312 C 655.429688 228.820312 652.214844 225.113281 652.214844 220.554688 C 652.214844 215.992188 655.429688 212.300781 659.386719 212.300781 C 663.355469 212.300781 666.558594 215.992188 666.558594 220.554688 " fill-opacity="1" fill-rule="nonzero"/><path fill="#fabf90" d="M 622.125 253.058594 C 628.015625 253.441406 633.21875 247.222656 633.765625 239.160156 C 634.300781 231.105469 629.960938 224.242188 624.078125 223.851562 C 618.203125 223.457031 612.984375 229.671875 612.449219 237.746094 C 611.910156 245.800781 616.234375 252.652344 622.125 253.058594 " fill-opacity="1" fill-rule="nonzero"/><path fill="#fabf90" d="M 630.164062 241.195312 C 630.164062 249.992188 634.929688 257.125 640.792969 257.125 C 646.675781 257.125 651.429688 249.992188 651.429688 241.195312 C 651.429688 232.398438 646.675781 225.265625 640.792969 225.265625 C 634.929688 225.265625 630.164062 232.398438 630.164062 241.195312 " fill-opacity="1" fill-rule="nonzero"/><path fill="#dbd8d5" d="M 357.90625 314.75 C 357.90625 314.75 357.558594 284.539062 369.6875 267.667969 C 369.6875 267.667969 324.082031 252.035156 327.449219 305.523438 C 327.449219 305.523438 327.375 328.589844 335.882812 341.375 L 353.367188 343.820312 L 357.90625 314.75 " fill-opacity="1" fill-rule="nonzero"/><path fill="#bebab8" d="M 346.679688 335.347656 C 345.003906 409.421875 400.082031 487.257812 400.082031 487.257812 L 440.507812 487.257812 C 484.320312 422.851562 495.71875 371.667969 495.414062 335.347656 L 346.679688 335.347656 " fill-opacity="1" fill-rule="nonzero"/><path fill="#3f90bf" d="M 459.800781 335.347656 C 454.542969 352.78125 440.335938 394.78125 421.023438 411.300781 C 401.722656 394.78125 387.511719 352.78125 382.257812 335.347656 L 346.679688 335.347656 C 345.003906 409.421875 400.082031 487.257812 400.082031 487.257812 L 441.992188 487.257812 C 441.992188 487.257812 497.0625 409.421875 495.386719 335.347656 L 459.800781 335.347656 " fill-opacity="1" fill-rule="nonzero"/><path fill="#f9a72b" d="M 463.773438 352.214844 L 454.257812 352.214844 C 447.140625 372.160156 435.519531 398.910156 421.023438 411.300781 C 406.546875 398.910156 394.925781 372.160156 387.808594 352.214844 L 368.660156 352.214844 C 368.660156 352.214844 395.9375 408.167969 421.023438 429.972656 C 421.023438 429.972656 452.871094 404.789062 463.773438 352.214844 " fill-opacity="1" fill-rule="nonzero"/><path fill="#fabf90" d="M 407.71875 267.667969 L 439.753906 267.667969 L 439.753906 232.792969 L 407.71875 232.792969 Z M 407.71875 267.667969 " fill-opacity="1" fill-rule="nonzero"/><path fill="#f1af80" d="M 439.753906 267.667969 L 407.71875 267.667969 L 407.71875 241.050781 C 408.097656 241.167969 408.488281 241.277344 408.882812 241.375 C 408.882812 241.375 414.34375 244.304688 423.109375 244.304688 C 427.34375 244.304688 432.351562 243.613281 437.882812 241.589844 C 437.910156 241.578125 437.945312 241.570312 437.972656 241.5625 C 437.980469 241.5625 437.988281 241.5625 438 241.554688 C 438.015625 241.542969 438.035156 241.542969 438.054688 241.535156 C 438.070312 241.535156 438.078125 241.535156 438.089844 241.527344 C 438.105469 241.527344 438.125 241.515625 438.140625 241.515625 C 438.152344 241.515625 438.167969 241.507812 438.179688 241.507812 C 438.195312 241.5 438.203125 241.5 438.222656 241.5 C 438.257812 241.480469 438.292969 241.472656 438.332031 241.464844 L 438.339844 241.464844 C 438.367188 241.453125 438.375 241.453125 438.394531 241.445312 C 438.402344 241.445312 438.417969 241.4375 438.429688 241.4375 C 438.445312 241.4375 438.464844 241.429688 438.472656 241.429688 C 438.492188 241.417969 438.5 241.417969 438.507812 241.417969 C 438.527344 241.410156 438.546875 241.410156 438.5625 241.402344 C 438.570312 241.402344 438.582031 241.402344 438.589844 241.402344 C 438.652344 241.382812 438.714844 241.355469 438.785156 241.347656 C 438.785156 241.339844 438.796875 241.339844 438.804688 241.339844 C 438.824219 241.328125 438.839844 241.328125 438.859375 241.320312 C 438.875 241.320312 438.875 241.320312 438.886719 241.3125 C 438.902344 241.3125 438.929688 241.300781 438.949219 241.300781 C 438.957031 241.292969 438.957031 241.292969 438.976562 241.292969 C 438.984375 241.292969 439.011719 241.285156 439.027344 241.277344 C 439.039062 241.277344 439.046875 241.277344 439.046875 241.277344 C 439.117188 241.25 439.179688 241.238281 439.242188 241.222656 C 439.253906 241.210938 439.261719 241.210938 439.261719 241.210938 C 439.289062 241.203125 439.304688 241.203125 439.324219 241.195312 L 439.34375 241.195312 C 439.359375 241.1875 439.386719 241.175781 439.40625 241.167969 C 439.414062 241.167969 439.421875 241.167969 439.421875 241.167969 C 439.484375 241.148438 439.558594 241.132812 439.628906 241.113281 C 439.628906 241.113281 439.636719 241.105469 439.636719 241.105469 C 439.65625 241.105469 439.671875 241.097656 439.691406 241.097656 C 439.710938 241.085938 439.71875 241.085938 439.726562 241.085938 C 439.734375 241.078125 439.746094 241.078125 439.753906 241.070312 L 439.753906 267.667969 " fill-opacity="1" fill-rule="nonzero"/><path fill="#51baec" d="M 490.382812 118.542969 C 490.382812 118.542969 509.371094 88.816406 527.109375 83.171875 C 527.109375 83.171875 535.148438 88.28125 537.386719 97.730469 C 537.386719 97.730469 502.199219 106.324219 490.382812 118.542969 " fill-opacity="1" fill-rule="nonzero"/><path fill="#51baec" d="M 490.8125 121.1875 C 490.8125 121.1875 489.566406 85.933594 500.957031 71.203125 C 500.957031 71.203125 510.472656 70.835938 517.671875 77.339844 C 517.671875 77.339844 493.597656 104.414062 490.8125 121.1875 " fill-opacity="1" fill-rule="nonzero"/><path fill="#51baec" d="M 355.335938 118.222656 C 355.335938 118.222656 336.347656 88.496094 318.613281 82.851562 C 318.613281 82.851562 310.582031 87.957031 308.332031 97.410156 C 308.332031 97.410156 343.527344 106.011719 355.335938 118.222656 " fill-opacity="1" fill-rule="nonzero"/><path fill="#51baec" d="M 354.914062 120.863281 C 354.914062 120.863281 356.160156 85.609375 344.761719 70.871094 C 344.761719 70.871094 335.253906 70.515625 328.046875 77.007812 C 328.046875 77.007812 352.121094 104.09375 354.914062 120.863281 " fill-opacity="1" fill-rule="nonzero"/><path fill="#f46b28" d="M 361.496094 132.65625 C 361.496094 146.226562 350.019531 157.230469 335.863281 157.230469 C 321.699219 157.230469 310.230469 146.226562 310.230469 132.65625 C 310.230469 119.082031 321.699219 108.078125 335.863281 108.078125 C 350.019531 108.078125 361.496094 119.082031 361.496094 132.65625 " fill-opacity="1" fill-rule="nonzero"/><path fill="#db6022" d="M 310.328125 134.660156 C 311.402344 147.292969 322.417969 157.230469 335.863281 157.230469 C 349.554688 157.230469 360.707031 146.933594 361.425781 133.972656 C 337.761719 143.15625 318.117188 137.691406 310.328125 134.660156 " fill-opacity="1" fill-rule="nonzero"/><path fill="#f46b28" d="M 533.644531 132.65625 C 533.644531 146.226562 522.175781 157.230469 508.011719 157.230469 C 493.867188 157.230469 482.378906 146.226562 482.378906 132.65625 C 482.378906 119.082031 493.867188 108.078125 508.011719 108.078125 C 522.175781 108.078125 533.644531 119.082031 533.644531 132.65625 " fill-opacity="1" fill-rule="nonzero"/><path fill="#db6022" d="M 490.382812 131.855469 L 482.398438 132.832031 C 482.488281 146.328125 493.910156 157.230469 508.011719 157.230469 C 517.789062 157.230469 526.273438 151.988281 530.609375 144.265625 C 509.847656 151.09375 490.382812 131.855469 490.382812 131.855469 " fill-opacity="1" fill-rule="nonzero"/><path fill="#fabf90" d="M 488.851562 156.683594 C 486.605469 165.570312 491.3125 174.449219 499.417969 176.507812 C 507.511719 178.578125 515.917969 173.050781 518.171875 164.171875 C 520.4375 155.292969 515.71875 146.414062 507.617188 144.347656 C 499.523438 142.285156 491.125 147.8125 488.851562 156.683594 " fill-opacity="1" fill-rule="nonzero"/><path fill="#eda97b" d="M 502.863281 176.941406 C 501.71875 176.941406 500.5625 176.804688 499.417969 176.507812 C 497.761719 176.089844 496.246094 175.378906 494.902344 174.449219 C 495.136719 172.683594 495.332031 170.910156 495.496094 169.136719 C 495.628906 169.253906 495.761719 169.378906 495.890625 169.496094 C 496.128906 169.71875 496.355469 169.933594 496.585938 170.148438 C 496.847656 170.308594 497.117188 170.460938 497.367188 170.625 C 498.34375 171.339844 499.425781 171.582031 500.339844 171.867188 C 501.316406 172.066406 502.085938 172.039062 502.757812 172.121094 C 504.125 171.929688 504.859375 171.804688 504.859375 171.804688 C 504.859375 171.804688 504.109375 171.804688 502.800781 171.804688 C 502.175781 171.652344 501.296875 171.554688 500.5 171.285156 C 499.675781 170.902344 498.726562 170.570312 497.886719 169.863281 C 497.660156 169.710938 497.429688 169.546875 497.203125 169.386719 C 497.015625 169.179688 496.820312 168.964844 496.625 168.75 C 496.273438 168.375 495.898438 168.015625 495.621094 167.558594 C 495.636719 167.34375 495.65625 167.128906 495.675781 166.914062 C 496.105469 167.039062 496.550781 167.113281 497.027344 167.113281 C 498.414062 167.113281 499.667969 166.492188 500.554688 165.535156 C 501.441406 164.566406 501.976562 163.242188 501.976562 161.796875 C 501.976562 160.347656 501.441406 159.03125 500.554688 158.0625 C 499.667969 157.09375 498.414062 156.476562 497.027344 156.476562 C 496.695312 156.476562 496.371094 156.511719 496.058594 156.574219 C 496.058594 155.941406 496.058594 155.292969 496.058594 154.648438 C 496.453125 154.640625 497.015625 154.621094 497.6875 154.605469 C 498.039062 154.59375 498.414062 154.578125 498.808594 154.570312 C 499.191406 154.640625 499.605469 154.703125 500.015625 154.773438 C 500.445312 154.847656 500.882812 154.925781 501.332031 155 C 501.789062 155.0625 502.183594 155.3125 502.621094 155.457031 C 503.042969 155.636719 503.488281 155.777344 503.894531 155.992188 C 504.269531 156.253906 504.644531 156.503906 505.003906 156.746094 C 505.386719 156.96875 505.691406 157.273438 505.96875 157.5625 C 506.246094 157.855469 506.5625 158.097656 506.765625 158.386719 C 507.664062 159.503906 508.011719 160.4375 508.011719 160.4375 C 508.011719 160.4375 507.824219 159.46875 507.082031 158.171875 C 506.910156 157.847656 506.640625 157.542969 506.390625 157.183594 C 506.148438 156.835938 505.878906 156.46875 505.511719 156.164062 C 505.164062 155.839844 504.796875 155.507812 504.4375 155.167969 C 504.046875 154.863281 503.589844 154.640625 503.160156 154.363281 C 502.710938 154.128906 502.289062 153.78125 501.816406 153.636719 C 501.339844 153.476562 500.875 153.3125 500.417969 153.152344 C 499.960938 153.011719 499.515625 152.859375 499.09375 152.714844 C 498.664062 152.660156 498.253906 152.605469 497.875 152.554688 C 497.679688 152.527344 497.484375 152.507812 497.304688 152.480469 C 497.367188 152.417969 497.429688 152.355469 497.5 152.292969 C 498.539062 151.378906 499.703125 150.609375 500.949219 150.167969 C 502.128906 149.75 503.195312 149.542969 504.359375 149.542969 C 504.457031 149.542969 504.5625 149.550781 504.671875 149.550781 C 505.28125 149.632812 506.03125 149.660156 506.480469 149.777344 C 507.054688 149.917969 507.589844 150.089844 508.074219 150.332031 C 510.078125 151.199219 511.414062 152.605469 512.183594 153.644531 C 512.558594 154.175781 512.855469 154.613281 513.007812 154.9375 C 513.132812 155.152344 513.214844 155.292969 513.25 155.367188 C 513.265625 155.394531 513.277344 155.410156 513.277344 155.410156 C 513.277344 155.410156 513.265625 155.394531 513.25 155.367188 C 513.1875 155.179688 513.007812 154.480469 512.441406 153.484375 C 512.113281 152.894531 511.65625 152.195312 511.011719 151.496094 C 510.375 150.789062 509.542969 150.0625 508.484375 149.507812 C 507.957031 149.210938 507.382812 148.976562 506.765625 148.773438 C 506.042969 148.546875 505.503906 148.519531 504.832031 148.378906 C 504.457031 148.332031 504.0625 148.316406 503.640625 148.316406 C 502.605469 148.316406 501.484375 148.457031 500.480469 148.816406 C 499.039062 149.28125 497.644531 150.082031 496.453125 151.128906 C 496.292969 151.261719 496.148438 151.40625 496.003906 151.550781 C 495.960938 149.890625 495.890625 148.234375 495.800781 146.585938 C 498.296875 144.875 501.199219 143.917969 504.1875 143.917969 C 505.324219 143.917969 506.472656 144.050781 507.617188 144.347656 C 514.339844 146.066406 518.738281 152.472656 518.738281 159.675781 C 518.738281 161.152344 518.558594 162.667969 518.171875 164.171875 C 516.238281 171.789062 509.765625 176.941406 502.863281 176.941406 M 497.027344 165.480469 C 496.585938 165.480469 496.167969 165.390625 495.789062 165.222656 C 495.925781 162.910156 496.015625 160.597656 496.042969 158.269531 C 496.355469 158.160156 496.6875 158.109375 497.027344 158.109375 C 497.929688 158.109375 498.746094 158.492188 499.355469 159.15625 C 499.960938 159.820312 500.347656 160.75 500.347656 161.796875 C 500.347656 162.839844 499.960938 163.769531 499.355469 164.433594 C 498.746094 165.097656 497.929688 165.480469 497.027344 165.480469 " fill-opacity="1" fill-rule="nonzero"/><path fill="#ac7657" d="M 508.011719 160.4375 C 508.011719 160.4375 507.664062 159.503906 506.765625 158.386719 C 506.5625 158.097656 506.246094 157.855469 505.96875 157.5625 C 505.691406 157.273438 505.386719 156.96875 505.003906 156.746094 C 504.644531 156.503906 504.269531 156.253906 503.894531 155.992188 C 503.488281 155.777344 503.042969 155.636719 502.621094 155.457031 C 502.183594 155.3125 501.789062 155.0625 501.332031 155 C 500.882812 154.925781 500.445312 154.847656 500.015625 154.773438 C 499.605469 154.703125 499.191406 154.640625 498.808594 154.570312 C 498.414062 154.578125 498.039062 154.59375 497.6875 154.605469 C 497.015625 154.621094 496.453125 154.640625 496.058594 154.648438 C 496.050781 154.40625 496.050781 154.15625 496.050781 153.914062 C 496.425781 153.394531 496.847656 152.921875 497.304688 152.480469 C 497.484375 152.507812 497.679688 152.527344 497.875 152.554688 C 498.253906 152.605469 498.664062 152.660156 499.09375 152.714844 C 499.515625 152.859375 499.960938 153.011719 500.417969 153.152344 C 500.875 153.3125 501.339844 153.476562 501.816406 153.636719 C 502.289062 153.78125 502.710938 154.128906 503.160156 154.363281 C 503.589844 154.640625 504.046875 154.863281 504.4375 155.167969 C 504.796875 155.507812 505.164062 155.839844 505.511719 156.164062 C 505.878906 156.46875 506.148438 156.835938 506.390625 157.183594 C 506.640625 157.542969 506.910156 157.847656 507.082031 158.171875 C 507.824219 159.46875 508.011719 160.4375 508.011719 160.4375 " fill-opacity="1" fill-rule="nonzero"/><path fill="#ac7657" d="M 497.027344 167.113281 C 496.550781 167.113281 496.105469 167.039062 495.675781 166.914062 C 495.710938 166.351562 495.753906 165.785156 495.789062 165.222656 C 496.167969 165.390625 496.585938 165.480469 497.027344 165.480469 C 497.929688 165.480469 498.746094 165.097656 499.355469 164.433594 C 499.960938 163.769531 500.347656 162.839844 500.347656 161.796875 C 500.347656 160.75 499.960938 159.820312 499.355469 159.15625 C 498.746094 158.492188 497.929688 158.109375 497.027344 158.109375 C 496.6875 158.109375 496.355469 158.160156 496.042969 158.269531 C 496.050781 157.703125 496.058594 157.140625 496.058594 156.574219 C 496.371094 156.511719 496.695312 156.476562 497.027344 156.476562 C 498.414062 156.476562 499.667969 157.09375 500.554688 158.0625 C 501.441406 159.03125 501.976562 160.347656 501.976562 161.796875 C 501.976562 163.242188 501.441406 164.566406 500.554688 165.535156 C 499.667969 166.492188 498.414062 167.113281 497.027344 167.113281 " fill-opacity="1" fill-rule="nonzero"/><path fill="#ac7657" d="M 502.757812 172.121094 C 502.085938 172.039062 501.316406 172.066406 500.339844 171.867188 C 499.425781 171.582031 498.34375 171.339844 497.367188 170.625 C 497.117188 170.460938 496.847656 170.308594 496.585938 170.148438 C 496.355469 169.933594 496.128906 169.71875 495.890625 169.496094 C 495.761719 169.378906 495.628906 169.253906 495.496094 169.136719 C 495.539062 168.609375 495.585938 168.078125 495.621094 167.558594 C 495.898438 168.015625 496.273438 168.375 496.625 168.75 C 496.820312 168.964844 497.015625 169.179688 497.203125 169.386719 C 497.429688 169.546875 497.660156 169.710938 497.886719 169.863281 C 498.726562 170.570312 499.675781 170.902344 500.5 171.285156 C 501.296875 171.554688 502.175781 171.652344 502.800781 171.804688 C 504.109375 171.804688 504.859375 171.804688 504.859375 171.804688 C 504.859375 171.804688 504.125 171.929688 502.757812 172.121094 M 513.277344 155.410156 C 513.277344 155.410156 513.265625 155.394531 513.25 155.367188 C 513.265625 155.394531 513.277344 155.410156 513.277344 155.410156 M 513.25 155.367188 C 513.214844 155.292969 513.132812 155.152344 513.007812 154.9375 C 512.855469 154.613281 512.558594 154.175781 512.183594 153.644531 C 511.414062 152.605469 510.078125 151.199219 508.074219 150.332031 C 507.589844 150.089844 507.054688 149.917969 506.480469 149.777344 C 506.03125 149.660156 505.28125 149.632812 504.671875 149.550781 C 504.5625 149.550781 504.457031 149.542969 504.359375 149.542969 C 503.195312 149.542969 502.128906 149.75 500.949219 150.167969 C 499.703125 150.609375 498.539062 151.378906 497.5 152.292969 C 497.429688 152.355469 497.367188 152.417969 497.304688 152.480469 C 496.847656 152.921875 496.425781 153.394531 496.050781 153.914062 C 496.042969 153.125 496.023438 152.339844 496.003906 151.550781 C 496.148438 151.40625 496.292969 151.261719 496.453125 151.128906 C 497.644531 150.082031 499.039062 149.28125 500.480469 148.816406 C 501.484375 148.457031 502.605469 148.316406 503.640625 148.316406 C 504.0625 148.316406 504.457031 148.332031 504.832031 148.378906 C 505.503906 148.519531 506.042969 148.546875 506.765625 148.773438 C 507.382812 148.976562 507.957031 149.210938 508.484375 149.507812 C 509.542969 150.0625 510.375 150.789062 511.011719 151.496094 C 511.65625 152.195312 512.113281 152.894531 512.441406 153.484375 C 513.007812 154.480469 513.1875 155.179688 513.25 155.367188 " fill-opacity="1" fill-rule="nonzero"/><path fill="#fabf90" d="M 357.332031 156.683594 C 359.597656 165.570312 354.871094 174.449219 346.777344 176.507812 C 338.683594 178.578125 330.285156 173.050781 328.019531 164.171875 C 325.765625 155.292969 330.484375 146.414062 338.585938 144.347656 C 346.671875 142.285156 355.078125 147.8125 357.332031 156.683594 " fill-opacity="1" fill-rule="nonzero"/><path fill="#eda97b" d="M 343.339844 176.941406 C 336.429688 176.941406 329.964844 171.789062 328.019531 164.171875 C 327.636719 162.667969 327.457031 161.152344 327.457031 159.675781 C 327.464844 152.472656 331.863281 146.066406 338.585938 144.347656 C 339.722656 144.050781 340.878906 143.917969 342.015625 143.917969 C 345.480469 143.917969 348.835938 145.207031 351.566406 147.464844 C 351.460938 149.257812 351.386719 151.046875 351.34375 152.847656 C 351.191406 152.652344 351.03125 152.453125 350.867188 152.265625 L 350.878906 152.230469 C 350.878906 152.230469 350.859375 152.230469 350.832031 152.230469 C 350.5 151.84375 350.136719 151.46875 349.75 151.128906 C 348.550781 150.082031 347.164062 149.28125 345.710938 148.816406 C 344.710938 148.457031 343.582031 148.316406 342.550781 148.316406 C 342.128906 148.316406 341.738281 148.332031 341.359375 148.378906 C 340.699219 148.519531 340.152344 148.546875 339.425781 148.773438 C 338.808594 148.976562 338.234375 149.210938 337.71875 149.507812 C 336.660156 150.0625 335.820312 150.789062 335.183594 151.496094 C 334.539062 152.195312 334.082031 152.894531 333.75 153.484375 C 333.1875 154.480469 333.015625 155.179688 332.945312 155.367188 C 332.925781 155.402344 332.917969 155.410156 332.917969 155.410156 C 332.925781 155.410156 332.9375 155.402344 332.945312 155.367188 C 332.988281 155.292969 333.070312 155.152344 333.1875 154.9375 C 333.347656 154.613281 333.632812 154.175781 334.019531 153.644531 C 334.78125 152.605469 336.113281 151.199219 338.121094 150.320312 C 338.613281 150.089844 339.148438 149.917969 339.714844 149.777344 C 340.160156 149.660156 340.914062 149.632812 341.53125 149.550781 C 341.628906 149.550781 341.738281 149.542969 341.84375 149.542969 C 343 149.542969 344.066406 149.75 345.246094 150.167969 C 346.5 150.609375 347.664062 151.378906 348.703125 152.292969 C 348.765625 152.355469 348.828125 152.417969 348.898438 152.480469 C 348.710938 152.507812 348.523438 152.527344 348.328125 152.554688 C 347.949219 152.605469 347.539062 152.660156 347.101562 152.714844 C 346.679688 152.859375 346.230469 153.011719 345.773438 153.152344 C 345.316406 153.3125 344.863281 153.476562 344.378906 153.636719 C 343.902344 153.78125 343.484375 154.128906 343.042969 154.363281 C 342.605469 154.640625 342.148438 154.863281 341.753906 155.167969 C 341.398438 155.507812 341.039062 155.839844 340.6875 156.164062 C 340.324219 156.46875 340.042969 156.835938 339.804688 157.183594 C 339.5625 157.542969 339.285156 157.847656 339.113281 158.171875 C 338.378906 159.46875 338.183594 160.4375 338.183594 160.4375 C 338.183594 160.4375 338.53125 159.503906 339.4375 158.386719 C 339.640625 158.097656 339.945312 157.855469 340.222656 157.5625 C 340.511719 157.273438 340.804688 156.96875 341.191406 156.746094 C 341.558594 156.503906 341.933594 156.253906 342.308594 155.992188 C 342.703125 155.777344 343.160156 155.636719 343.582031 155.457031 C 344.019531 155.3125 344.40625 155.0625 344.871094 155 C 345.308594 154.925781 345.757812 154.847656 346.175781 154.773438 C 346.597656 154.703125 347 154.640625 347.386719 154.570312 C 347.789062 154.578125 348.164062 154.59375 348.515625 154.605469 C 349.5625 154.632812 350.351562 154.648438 350.652344 154.660156 C 350.859375 154.988281 351.046875 155.320312 351.21875 155.671875 C 351.246094 155.707031 351.273438 155.75 351.289062 155.796875 C 351.289062 156.191406 351.289062 156.585938 351.289062 156.988281 C 350.644531 156.65625 349.929688 156.476562 349.175781 156.476562 C 349.167969 156.476562 349.167969 156.476562 349.167969 156.476562 C 347.78125 156.476562 346.527344 157.09375 345.648438 158.0625 C 344.761719 159.03125 344.226562 160.347656 344.226562 161.796875 C 344.226562 163.242188 344.761719 164.566406 345.648438 165.535156 C 346.535156 166.492188 347.78125 167.113281 349.167969 167.113281 C 349.167969 167.113281 349.167969 167.113281 349.175781 167.113281 C 349.855469 167.113281 350.5 166.96875 351.082031 166.699219 C 350.957031 166.921875 350.832031 167.136719 350.691406 167.34375 C 350.414062 167.910156 349.964844 168.320312 349.578125 168.75 L 348.988281 169.386719 C 348.757812 169.546875 348.53125 169.710938 348.316406 169.863281 C 347.46875 170.570312 346.519531 170.902344 345.695312 171.285156 C 344.898438 171.554688 344.027344 171.652344 343.394531 171.804688 C 342.085938 171.804688 341.335938 171.804688 341.335938 171.804688 C 341.335938 171.804688 342.066406 171.929688 343.4375 172.121094 C 344.117188 172.039062 344.878906 172.066406 345.855469 171.867188 C 346.769531 171.582031 347.851562 171.339844 348.828125 170.625 C 349.078125 170.472656 349.347656 170.308594 349.605469 170.148438 C 349.839844 169.933594 350.0625 169.71875 350.304688 169.496094 C 350.78125 169.054688 351.296875 168.625 351.65625 168.035156 C 351.664062 168.015625 351.683594 168 351.691406 167.980469 C 351.84375 169.898438 352.023438 171.816406 352.257812 173.714844 C 350.691406 175.011719 348.835938 175.980469 346.777344 176.507812 C 345.632812 176.804688 344.476562 176.941406 343.339844 176.941406 M 349.175781 165.480469 C 348.273438 165.480469 347.457031 165.097656 346.839844 164.433594 C 346.230469 163.769531 345.847656 162.839844 345.847656 161.796875 C 345.847656 160.75 346.230469 159.820312 346.839844 159.15625 C 347.457031 158.492188 348.273438 158.109375 349.175781 158.109375 C 349.984375 158.109375 350.714844 158.421875 351.296875 158.957031 C 351.324219 160.796875 351.378906 162.632812 351.46875 164.460938 C 350.859375 165.105469 350.0625 165.480469 349.175781 165.480469 " fill-opacity="1" fill-rule="nonzero"/><path fill="#ac7657" d="M 338.183594 160.4375 C 338.183594 160.4375 338.378906 159.46875 339.113281 158.171875 C 339.285156 157.847656 339.5625 157.542969 339.804688 157.183594 C 340.042969 156.835938 340.324219 156.46875 340.6875 156.164062 C 341.039062 155.839844 341.398438 155.507812 341.753906 155.167969 C 342.148438 154.863281 342.605469 154.640625 343.042969 154.363281 C 343.484375 154.128906 343.902344 153.78125 344.378906 153.636719 C 344.863281 153.476562 345.316406 153.3125 345.773438 153.152344 C 346.230469 153.011719 346.679688 152.859375 347.101562 152.714844 C 347.539062 152.660156 347.949219 152.605469 348.328125 152.554688 C 348.523438 152.527344 348.710938 152.507812 348.898438 152.480469 C 349.5625 153.125 350.152344 153.859375 350.652344 154.660156 C 350.351562 154.648438 349.5625 154.632812 348.515625 154.605469 C 348.164062 154.59375 347.789062 154.578125 347.386719 154.570312 C 347 154.640625 346.597656 154.703125 346.175781 154.773438 C 345.757812 154.847656 345.308594 154.925781 344.871094 155 C 344.40625 155.0625 344.019531 155.3125 343.582031 155.457031 C 343.160156 155.636719 342.703125 155.777344 342.308594 155.992188 C 341.933594 156.253906 341.558594 156.503906 341.191406 156.746094 C 340.804688 156.96875 340.511719 157.273438 340.222656 157.5625 C 339.945312 157.855469 339.640625 158.097656 339.4375 158.386719 C 338.53125 159.503906 338.183594 160.4375 338.183594 160.4375 M 350.867188 152.265625 C 350.859375 152.257812 350.851562 152.25 350.832031 152.230469 C 350.859375 152.230469 350.878906 152.230469 350.878906 152.230469 L 350.867188 152.265625 " fill-opacity="1" fill-rule="nonzero"/><path fill="#ac7657" d="M 349.175781 167.113281 C 349.167969 167.113281 349.167969 167.113281 349.167969 167.113281 C 347.78125 167.113281 346.535156 166.492188 345.648438 165.535156 C 344.761719 164.566406 344.226562 163.242188 344.226562 161.796875 C 344.226562 160.347656 344.761719 159.03125 345.648438 158.0625 C 346.527344 157.09375 347.78125 156.476562 349.167969 156.476562 C 349.167969 156.476562 349.167969 156.476562 349.175781 156.476562 C 349.929688 156.476562 350.644531 156.65625 351.289062 156.988281 C 351.289062 157.640625 351.289062 158.304688 351.296875 158.957031 C 350.714844 158.421875 349.984375 158.109375 349.175781 158.109375 C 348.273438 158.109375 347.457031 158.492188 346.839844 159.15625 C 346.230469 159.820312 345.847656 160.75 345.847656 161.796875 C 345.847656 162.839844 346.230469 163.769531 346.839844 164.433594 C 347.457031 165.097656 348.273438 165.480469 349.175781 165.480469 C 350.0625 165.480469 350.859375 165.105469 351.46875 164.460938 C 351.496094 164.890625 351.511719 165.328125 351.539062 165.757812 C 351.40625 166.089844 351.253906 166.402344 351.082031 166.699219 C 350.5 166.96875 349.855469 167.113281 349.175781 167.113281 " fill-opacity="1" fill-rule="nonzero"/><path fill="#ac7657" d="M 343.4375 172.121094 C 342.066406 171.929688 341.335938 171.804688 341.335938 171.804688 C 341.335938 171.804688 342.085938 171.804688 343.394531 171.804688 C 344.027344 171.652344 344.898438 171.554688 345.695312 171.285156 C 346.519531 170.902344 347.46875 170.570312 348.316406 169.863281 C 348.53125 169.710938 348.757812 169.546875 348.988281 169.386719 L 349.578125 168.75 C 349.964844 168.320312 350.414062 167.910156 350.691406 167.34375 C 350.832031 167.136719 350.957031 166.921875 351.082031 166.699219 C 351.253906 166.402344 351.40625 166.089844 351.539062 165.757812 C 351.585938 166.503906 351.640625 167.246094 351.691406 167.980469 C 351.683594 168 351.664062 168.015625 351.65625 168.035156 C 351.296875 168.625 350.78125 169.054688 350.304688 169.496094 C 350.0625 169.71875 349.839844 169.933594 349.605469 170.148438 C 349.347656 170.308594 349.078125 170.472656 348.828125 170.625 C 347.851562 171.339844 346.769531 171.582031 345.855469 171.867188 C 344.878906 172.066406 344.117188 172.039062 343.4375 172.121094 M 351.289062 155.796875 C 351.273438 155.75 351.246094 155.707031 351.21875 155.671875 C 351.046875 155.320312 350.859375 154.988281 350.652344 154.660156 C 350.152344 153.859375 349.5625 153.125 348.898438 152.480469 C 348.828125 152.417969 348.765625 152.355469 348.703125 152.292969 C 347.664062 151.378906 346.5 150.609375 345.246094 150.167969 C 344.066406 149.75 343 149.542969 341.84375 149.542969 C 341.738281 149.542969 341.628906 149.550781 341.53125 149.550781 C 340.914062 149.632812 340.160156 149.660156 339.714844 149.777344 C 339.148438 149.917969 338.613281 150.089844 338.121094 150.320312 C 336.113281 151.199219 334.78125 152.605469 334.019531 153.644531 C 333.632812 154.175781 333.347656 154.613281 333.1875 154.9375 C 333.070312 155.152344 332.988281 155.292969 332.945312 155.367188 C 333.015625 155.179688 333.1875 154.480469 333.75 153.484375 C 334.082031 152.894531 334.539062 152.195312 335.183594 151.496094 C 335.820312 150.789062 336.660156 150.0625 337.71875 149.507812 C 338.234375 149.210938 338.808594 148.976562 339.425781 148.773438 C 340.152344 148.546875 340.699219 148.519531 341.359375 148.378906 C 341.738281 148.332031 342.128906 148.316406 342.550781 148.316406 C 343.582031 148.316406 344.710938 148.457031 345.710938 148.816406 C 347.164062 149.28125 348.550781 150.082031 349.75 151.128906 C 350.136719 151.46875 350.5 151.84375 350.832031 152.230469 C 350.851562 152.25 350.859375 152.257812 350.867188 152.265625 C 351.03125 152.453125 351.191406 152.652344 351.34375 152.847656 C 351.316406 153.835938 351.296875 154.8125 351.289062 155.796875 M 332.917969 155.410156 C 332.917969 155.410156 332.925781 155.402344 332.945312 155.367188 C 332.9375 155.402344 332.925781 155.410156 332.917969 155.410156 " fill-opacity="1" fill-rule="nonzero"/><path fill="#fabf90" d="M 437.882812 241.589844 C 543.117188 214.046875 473.445312 54.601562 473.445312 54.601562 C 445.359375 20.996094 424.320312 44.566406 424.320312 44.566406 C 424.300781 44.566406 422.625 43.089844 419.617188 41.601562 C 411.597656 37.632812 394.09375 33.675781 373.644531 58.132812 C 373.644531 58.132812 304.734375 213.304688 408.882812 241.375 C 408.882812 241.375 420.925781 247.816406 437.882812 241.589844 " fill-opacity="1" fill-rule="nonzero"/><path fill="#bf1b2c" d="M 411.75 183.855469 C 411.75 183.855469 426.441406 185.316406 434.167969 183.855469 C 434.167969 183.855469 434.167969 205.546875 422.878906 207.839844 C 422.878906 207.839844 411.75 207.839844 411.75 183.855469 " fill-opacity="1" fill-rule="nonzero"/><path fill="#f79081" d="M 375.445312 185.953125 C 364.59375 185.953125 355.800781 177.15625 355.800781 166.296875 C 355.800781 155.445312 364.59375 146.65625 375.445312 146.65625 C 386.285156 146.65625 395.070312 155.445312 395.070312 166.296875 C 395.070312 177.15625 386.285156 185.953125 375.445312 185.953125 " fill-opacity="1" fill-rule="nonzero"/><path fill="#f79081" d="M 470.757812 185.953125 C 459.90625 185.953125 451.113281 177.15625 451.113281 166.296875 C 451.113281 155.445312 459.90625 146.65625 470.757812 146.65625 C 481.589844 146.65625 490.382812 155.445312 490.382812 166.296875 C 490.382812 177.15625 481.589844 185.953125 470.757812 185.953125 " fill-opacity="1" fill-rule="nonzero"/><path fill="#db6022" d="M 380.824219 122.074219 C 380.824219 122.074219 392.75 106.1875 412.449219 118.992188 C 412.449219 118.992188 393.152344 94.148438 380.824219 122.074219 " fill-opacity="1" fill-rule="nonzero"/><path fill="#db6022" d="M 466.925781 122.074219 C 466.925781 122.074219 454.722656 105.382812 435.3125 118.992188 C 435.3125 118.992188 454.605469 94.148438 466.925781 122.074219 " fill-opacity="1" fill-rule="nonzero"/><path fill="#eca26b" d="M 431.015625 159.378906 C 431.527344 156.941406 431.832031 154.226562 431.832031 151.335938 C 431.832031 141.253906 428.277344 133.066406 423.898438 133.066406 C 419.511719 133.066406 415.964844 141.253906 415.964844 151.335938 C 415.964844 154.09375 416.234375 156.691406 416.707031 159.039062 C 413.878906 161.773438 408.105469 168.519531 418.5 169.601562 C 418.5 169.601562 422.296875 181.777344 428.070312 169.601562 C 428.070312 169.601562 439.53125 170.015625 431.015625 159.378906 " fill-opacity="1" fill-rule="nonzero"/><path fill="#291712" d="M 405.464844 140.914062 C 404.9375 139.480469 404.507812 138.003906 403.960938 136.585938 C 403.441406 135.171875 402.914062 133.746094 402.285156 132.394531 C 401.992188 131.703125 401.660156 131.042969 401.308594 130.398438 C 400.96875 129.742188 400.566406 129.144531 400.144531 128.585938 C 399.726562 128.039062 399.257812 127.519531 398.757812 127.234375 C 398.265625 126.886719 397.792969 126.867188 397.316406 126.984375 C 396.824219 127.082031 396.304688 127.46875 395.832031 127.90625 C 395.355469 128.371094 394.917969 128.917969 394.523438 129.511719 C 393.71875 130.703125 393 131.992188 392.367188 133.34375 C 391.113281 136.03125 390.027344 138.871094 389.082031 141.710938 L 388.652344 142.976562 L 387.789062 142.027344 C 386.589844 140.683594 385.402344 139.265625 384.101562 138.003906 L 383.152344 137.027344 C 382.820312 136.695312 382.527344 136.347656 382.152344 136.085938 C 381.453125 135.523438 380.746094 134.929688 380.039062 134.320312 C 380.835938 134.761719 381.65625 135.207031 382.453125 135.683594 C 382.882812 135.90625 383.234375 136.195312 383.601562 136.480469 L 384.71875 137.3125 C 385.480469 137.859375 386.171875 138.476562 386.859375 139.097656 C 387.566406 139.707031 388.246094 140.332031 388.910156 140.996094 L 387.621094 141.308594 C 388.355469 138.289062 389.304688 135.359375 390.574219 132.511719 C 391.230469 131.097656 391.925781 129.679688 392.859375 128.363281 C 393.316406 127.699219 393.851562 127.054688 394.480469 126.464844 C 395.113281 125.898438 395.859375 125.308594 396.871094 125.09375 C 397.855469 124.859375 399.035156 125.121094 399.753906 125.695312 C 400.539062 126.222656 401.066406 126.902344 401.542969 127.582031 C 401.992188 128.273438 402.382812 128.980469 402.6875 129.707031 C 403.011719 130.433594 403.316406 131.160156 403.539062 131.902344 C 404.023438 133.378906 404.425781 134.867188 404.710938 136.382812 C 405.035156 137.886719 405.265625 139.390625 405.464844 140.914062 " fill-opacity="1" fill-rule="nonzero"/><path fill="#291712" d="M 442.011719 140.914062 C 442.207031 139.390625 442.429688 137.886719 442.761719 136.382812 C 443.039062 134.859375 443.441406 133.378906 443.933594 131.902344 C 444.160156 131.160156 444.464844 130.433594 444.785156 129.707031 C 445.089844 128.980469 445.476562 128.273438 445.929688 127.582031 C 446.398438 126.902344 446.925781 126.222656 447.722656 125.695312 C 448.4375 125.121094 449.621094 124.859375 450.597656 125.09375 C 451.617188 125.308594 452.359375 125.898438 452.996094 126.464844 C 453.621094 127.054688 454.148438 127.691406 454.605469 128.363281 C 455.546875 129.679688 456.246094 131.097656 456.898438 132.511719 C 458.160156 135.359375 459.121094 138.289062 459.851562 141.308594 L 458.5625 140.996094 C 459.226562 140.332031 459.90625 139.707031 460.613281 139.097656 C 461.304688 138.476562 461.992188 137.859375 462.753906 137.3125 L 463.863281 136.472656 C 464.242188 136.195312 464.589844 135.898438 465.019531 135.683594 C 465.816406 135.207031 466.640625 134.761719 467.4375 134.320312 C 466.730469 134.929688 466.023438 135.523438 465.324219 136.085938 C 464.949219 136.347656 464.652344 136.695312 464.328125 137.027344 L 463.371094 138.003906 C 462.074219 139.265625 460.882812 140.683594 459.683594 142.015625 L 458.824219 142.976562 L 458.394531 141.710938 C 457.4375 138.871094 456.363281 136.03125 455.097656 133.34375 C 454.472656 131.992188 453.757812 130.703125 452.949219 129.511719 C 452.558594 128.917969 452.117188 128.371094 451.644531 127.914062 C 451.167969 127.46875 450.640625 127.082031 450.15625 126.984375 C 449.671875 126.867188 449.199219 126.886719 448.707031 127.234375 C 448.207031 127.519531 447.738281 128.039062 447.328125 128.585938 C 446.90625 129.144531 446.503906 129.742188 446.164062 130.398438 C 445.816406 131.042969 445.484375 131.703125 445.1875 132.394531 C 444.5625 133.746094 444.035156 135.171875 443.515625 136.585938 C 442.960938 138.003906 442.539062 139.480469 442.011719 140.914062 " fill-opacity="1" fill-rule="nonzero"/><path fill="#ffffff" d="M 412.535156 184.992188 C 412.535156 184.992188 424.015625 189.507812 433.21875 184.992188 C 433.21875 184.992188 422.214844 228.589844 412.535156 184.992188 " fill-opacity="1" fill-rule="nonzero"/><path fill="#f46b28" d="M 353.304688 130.15625 C 353.304688 130.15625 405.105469 127.089844 423.675781 61.976562 C 423.675781 61.976562 439.074219 125.855469 495.371094 130.15625 C 495.371094 130.15625 496.472656 5.09375 427.722656 25.441406 C 427.722656 25.441406 353.304688 0.246094 353.304688 130.15625 " fill-opacity="1" fill-rule="nonzero"/><path fill="#db6022" d="M 423.675781 61.976562 C 423.675781 61.976562 439.074219 125.855469 495.371094 130.15625 C 451.179688 105.507812 424.335938 34.640625 424.335938 34.640625 C 413.207031 99.074219 353.304688 130.15625 353.304688 130.15625 C 353.304688 130.15625 405.105469 127.089844 423.675781 61.976562 " fill-opacity="1" fill-rule="nonzero"/><path fill="#75381f" d="M 495.371094 130.15625 C 495.34375 130.144531 495.324219 130.144531 495.308594 130.144531 C 495.324219 130.144531 495.34375 130.144531 495.371094 130.15625 " fill-opacity="1" fill-rule="nonzero"/><path fill="#75381f" d="M 495.371094 130.15625 C 495.046875 129.976562 494.742188 129.796875 494.429688 129.617188 L 492.648438 123.460938 C 492.003906 121.152344 491.199219 118.902344 490.472656 116.609375 C 488.871094 112.101562 487.179688 107.621094 485.226562 103.242188 C 483.273438 98.886719 481.160156 94.597656 478.832031 90.4375 C 476.558594 86.253906 474.007812 82.25 471.472656 78.261719 C 470.09375 76.347656 468.816406 74.355469 467.320312 72.539062 C 465.949219 70.621094 464.417969 68.828125 462.914062 67.027344 C 461.332031 65.300781 459.71875 63.589844 457.980469 62.019531 C 456.261719 60.445312 454.445312 58.972656 452.546875 57.628906 C 450.648438 56.277344 448.6875 55.015625 446.601562 53.984375 C 444.535156 52.898438 442.332031 52.113281 440.101562 51.449219 C 437.382812 50.667969 434.523438 50.203125 431.660156 50.203125 C 431.492188 50.203125 431.3125 50.210938 431.132812 50.210938 C 430.980469 49.882812 430.828125 49.558594 430.675781 49.234375 C 431.507812 49.121094 432.359375 49.046875 433.210938 49.003906 C 433.683594 48.984375 434.167969 48.976562 434.652344 48.976562 C 436.621094 48.976562 438.609375 49.136719 440.550781 49.566406 C 445.375 50.589844 450.015625 52.570312 454.167969 55.21875 C 456.226562 56.601562 458.1875 58.097656 460.050781 59.699219 C 461.914062 61.3125 463.640625 63.050781 465.351562 64.816406 C 466.972656 66.652344 468.617188 68.472656 470.085938 70.425781 C 471.597656 72.351562 472.878906 74.429688 474.257812 76.4375 C 475.484375 78.53125 476.855469 80.558594 477.957031 82.726562 C 479.074219 84.882812 480.195312 87.035156 481.179688 89.246094 C 482.21875 91.433594 483.183594 93.644531 484.078125 95.894531 C 485.039062 98.109375 485.898438 100.367188 486.710938 102.640625 C 488.484375 107.121094 490.097656 111.65625 491.574219 116.234375 C 492.234375 118.175781 492.945312 120.113281 493.570312 122.054688 C 492.308594 113.519531 490.542969 105.035156 488.546875 96.65625 C 485.914062 85.636719 482.476562 74.796875 477.820312 64.59375 C 475.429688 59.53125 472.84375 54.546875 469.59375 50.058594 C 466.390625 45.542969 462.636719 41.414062 458.109375 38.332031 C 453.59375 35.257812 448.347656 33.226562 442.816406 32.785156 C 441.769531 32.699219 440.722656 32.660156 439.664062 32.660156 C 435.152344 32.660156 430.585938 33.441406 426.179688 34.828125 L 426.109375 34.640625 L 426.164062 34.453125 C 426.144531 34.453125 426.128906 34.445312 426.109375 34.433594 C 431.125 32.320312 436.546875 30.726562 442.171875 30.726562 C 442.421875 30.726562 442.671875 30.726562 442.921875 30.726562 C 448.804688 30.78125 454.785156 32.480469 459.816406 35.679688 C 464.894531 38.824219 469.15625 43.089844 472.71875 47.75 C 476.238281 52.46875 479.171875 57.566406 481.574219 62.863281 C 486.425781 73.453125 489.480469 84.667969 491.867188 95.921875 C 493.023438 101.546875 493.917969 107.21875 494.617188 112.917969 C 495.414062 123.183594 495.371094 130.128906 495.371094 130.15625 " fill-opacity="1" fill-rule="nonzero"/><path fill="#71361e" d="M 495.371094 130.15625 C 495.34375 130.144531 495.324219 130.144531 495.308594 130.144531 C 495.054688 130.121094 494.804688 130.082031 494.554688 130.066406 L 494.429688 129.617188 C 494.742188 129.796875 495.046875 129.976562 495.371094 130.15625 M 426.171875 50.820312 L 426.109375 50.632812 L 426.144531 50.4375 C 426.128906 50.4375 426.109375 50.4375 426.101562 50.425781 C 427.570312 49.828125 429.109375 49.460938 430.675781 49.234375 C 430.828125 49.558594 430.980469 49.882812 431.132812 50.210938 C 429.476562 50.25 427.8125 50.4375 426.171875 50.820312 " fill-opacity="1" fill-rule="nonzero"/><path fill="#75381f" d="M 353.304688 130.15625 C 353.304688 130.109375 353.304688 130.074219 353.304688 130.039062 C 353.3125 125.53125 353.410156 121.222656 353.589844 117.082031 C 353.8125 115.640625 354.019531 114.199219 354.269531 112.757812 C 355.320312 107.03125 356.367188 101.316406 357.746094 95.679688 C 358.441406 92.859375 359.050781 90.019531 359.8125 87.214844 C 360.539062 84.402344 361.414062 81.625 362.238281 78.828125 C 363.90625 73.253906 365.945312 67.753906 368.425781 62.433594 C 370.886719 57.085938 374.121094 52.074219 377.863281 47.460938 C 381.746094 42.945312 386.386719 38.996094 391.683594 36.148438 C 396.949219 33.21875 402.964844 31.835938 408.875 31.613281 C 409.339844 31.59375 409.816406 31.585938 410.28125 31.585938 C 415.714844 31.585938 421.085938 32.722656 426.109375 34.433594 C 426.082031 34.445312 426.066406 34.453125 426.046875 34.460938 L 426.109375 34.640625 L 426.066406 34.828125 C 421.9375 33.988281 417.808594 33.511719 413.699219 33.511719 C 412.132812 33.511719 410.566406 33.585938 409.007812 33.726562 C 403.386719 34.292969 397.996094 36.066406 393.144531 38.816406 C 388.300781 41.574219 384.128906 45.402344 380.511719 49.703125 C 376.804688 53.949219 373.832031 58.796875 370.996094 63.75 C 368.238281 68.738281 365.863281 73.988281 363.824219 79.375 C 362.785156 82.0625 361.953125 84.8125 361.121094 87.582031 C 360.324219 90.347656 359.515625 93.125 358.917969 95.949219 C 357.691406 101.59375 356.625 107.273438 356 113.007812 C 355.917969 113.714844 355.875 114.421875 355.792969 115.128906 C 357.253906 110.453125 358.910156 105.839844 360.734375 101.28125 C 364.441406 92.015625 368.925781 82.976562 374.792969 74.777344 C 380.574219 66.5625 387.878906 59.152344 396.816406 54.207031 C 401.320312 51.851562 406.207031 50.148438 411.230469 49.523438 C 412.8125 49.316406 414.398438 49.21875 415.984375 49.21875 C 417.585938 49.21875 419.1875 49.316406 420.773438 49.496094 C 420.683594 49.808594 420.585938 50.113281 420.488281 50.425781 C 420.433594 50.425781 420.378906 50.425781 420.335938 50.425781 C 412.472656 50.425781 404.773438 52.621094 398.257812 56.734375 C 390.019531 61.699219 383.574219 69.152344 378.09375 77.082031 C 372.667969 85.109375 368.148438 93.78125 364.28125 102.75 C 360.65625 111.332031 357.511719 120.21875 355.039062 129.195312 C 353.921875 129.832031 353.304688 130.15625 353.304688 130.15625 " fill-opacity="1" fill-rule="nonzero"/><path fill="#71361e" d="M 353.304688 130.15625 C 353.304688 130.15625 353.921875 129.832031 355.039062 129.195312 C 354.96875 129.457031 354.898438 129.726562 354.824219 129.992188 C 353.859375 130.121094 353.304688 130.15625 353.304688 130.15625 M 426.074219 50.820312 C 424.210938 50.5625 422.339844 50.4375 420.488281 50.425781 C 420.585938 50.113281 420.683594 49.808594 420.773438 49.496094 C 422.574219 49.710938 424.355469 50.023438 426.101562 50.425781 C 426.082031 50.4375 426.066406 50.445312 426.046875 50.453125 L 426.109375 50.632812 L 426.074219 50.820312 " fill-opacity="1" fill-rule="nonzero"/><path fill="#582c1b" d="M 426.109375 34.640625 L 426.046875 34.460938 C 426.066406 34.453125 426.082031 34.445312 426.109375 34.433594 C 426.128906 34.445312 426.144531 34.453125 426.164062 34.453125 L 426.109375 34.640625 " fill-opacity="1" fill-rule="nonzero"/><path fill="#572b1a" d="M 426.109375 50.632812 L 426.046875 50.453125 C 426.066406 50.445312 426.082031 50.4375 426.101562 50.425781 C 426.109375 50.4375 426.128906 50.4375 426.144531 50.4375 L 426.109375 50.632812 " fill-opacity="1" fill-rule="nonzero"/><path fill="#eaa476" d="M 437.972656 241.5625 C 437.980469 241.5625 437.988281 241.5625 438 241.554688 C 437.988281 241.5625 437.980469 241.5625 437.972656 241.5625 M 438.054688 241.535156 C 438.070312 241.535156 438.078125 241.535156 438.089844 241.527344 C 438.078125 241.535156 438.070312 241.535156 438.054688 241.535156 M 438.140625 241.515625 C 438.152344 241.515625 438.167969 241.507812 438.179688 241.507812 C 438.167969 241.507812 438.152344 241.515625 438.140625 241.515625 M 438.222656 241.5 C 438.257812 241.480469 438.292969 241.472656 438.332031 241.464844 C 438.292969 241.472656 438.257812 241.480469 438.222656 241.5 M 438.339844 241.464844 C 438.367188 241.453125 438.375 241.453125 438.394531 241.445312 C 438.375 241.453125 438.367188 241.453125 438.339844 241.464844 M 438.429688 241.4375 C 438.445312 241.4375 438.457031 241.429688 438.472656 241.429688 C 438.464844 241.429688 438.445312 241.4375 438.429688 241.4375 M 438.507812 241.417969 C 438.535156 241.410156 438.546875 241.410156 438.5625 241.402344 C 438.546875 241.410156 438.527344 241.410156 438.507812 241.417969 M 438.589844 241.402344 C 438.652344 241.382812 438.722656 241.355469 438.785156 241.347656 C 438.714844 241.355469 438.652344 241.382812 438.589844 241.402344 M 438.804688 241.339844 C 438.824219 241.328125 438.839844 241.328125 438.859375 241.320312 C 438.839844 241.328125 438.824219 241.328125 438.804688 241.339844 M 438.886719 241.3125 C 438.902344 241.3125 438.929688 241.300781 438.949219 241.300781 C 438.929688 241.300781 438.902344 241.3125 438.886719 241.3125 M 438.976562 241.292969 C 438.992188 241.285156 439.011719 241.285156 439.027344 241.277344 C 439.011719 241.285156 438.984375 241.292969 438.976562 241.292969 M 439.046875 241.277344 C 439.109375 241.257812 439.179688 241.230469 439.242188 241.222656 C 439.179688 241.238281 439.117188 241.25 439.046875 241.277344 M 439.261719 241.210938 C 439.289062 241.203125 439.304688 241.203125 439.324219 241.195312 C 439.304688 241.203125 439.289062 241.203125 439.261719 241.210938 M 439.34375 241.195312 C 439.367188 241.1875 439.378906 241.175781 439.40625 241.167969 C 439.386719 241.175781 439.359375 241.1875 439.34375 241.195312 M 439.421875 241.167969 C 439.484375 241.148438 439.558594 241.132812 439.628906 241.113281 C 439.558594 241.132812 439.484375 241.148438 439.421875 241.167969 M 439.636719 241.105469 C 439.664062 241.105469 439.671875 241.097656 439.691406 241.097656 C 439.671875 241.097656 439.65625 241.105469 439.636719 241.105469 " fill-opacity="1" fill-rule="nonzero"/><path fill="#eaa476" d="M 439.726562 241.085938 C 439.734375 241.085938 439.753906 241.078125 439.753906 241.070312 C 439.746094 241.078125 439.734375 241.078125 439.726562 241.085938 " fill-opacity="1" fill-rule="nonzero"/><path fill="#f4d9c6" d="M 439.808594 241.058594 C 439.824219 241.050781 439.84375 241.050781 439.863281 241.042969 C 439.84375 241.050781 439.824219 241.050781 439.808594 241.058594 M 439.886719 241.035156 C 439.925781 241.023438 439.949219 241.023438 439.976562 241.015625 C 439.949219 241.023438 439.925781 241.023438 439.886719 241.035156 M 440.023438 240.996094 C 440.03125 240.996094 440.050781 240.996094 440.058594 240.988281 C 440.039062 240.996094 440.03125 240.996094 440.023438 240.996094 M 440.101562 240.980469 C 440.113281 240.972656 440.128906 240.972656 440.148438 240.960938 C 440.128906 240.972656 440.113281 240.972656 440.101562 240.980469 M 440.191406 240.953125 C 440.210938 240.945312 440.210938 240.945312 440.226562 240.945312 C 440.21875 240.945312 440.203125 240.945312 440.191406 240.953125 M 440.292969 240.925781 C 440.300781 240.917969 440.300781 240.917969 440.308594 240.917969 C 440.300781 240.917969 440.300781 240.917969 440.292969 240.925781 M 440.480469 240.863281 C 440.488281 240.863281 440.496094 240.863281 440.507812 240.863281 C 440.496094 240.863281 440.488281 240.863281 440.480469 240.863281 M 440.570312 240.84375 L 440.585938 240.835938 C 440.585938 240.835938 440.578125 240.835938 440.570312 240.84375 M 440.667969 240.820312 L 440.675781 240.808594 C 440.675781 240.808594 440.667969 240.808594 440.667969 240.820312 " fill-opacity="1" fill-rule="nonzero"/><path fill="#f1af80" d="M 423.109375 244.304688 C 414.34375 244.304688 408.882812 241.375 408.882812 241.375 C 373.914062 231.949219 358.46875 208.179688 353.367188 180.773438 C 360.171875 192.679688 383.628906 228.347656 420.398438 228.347656 C 421.375 228.347656 422.359375 228.320312 423.351562 228.265625 C 461.859375 226.285156 483.585938 201.21875 492.351562 187.566406 C 486.085938 211.628906 471.019531 231.929688 440.675781 240.808594 L 440.667969 240.820312 C 440.640625 240.820312 440.613281 240.828125 440.585938 240.835938 L 440.570312 240.84375 C 440.550781 240.84375 440.523438 240.855469 440.507812 240.863281 C 440.496094 240.863281 440.488281 240.863281 440.480469 240.863281 C 440.453125 240.871094 440.425781 240.882812 440.398438 240.890625 C 440.371094 240.898438 440.335938 240.90625 440.308594 240.917969 C 440.300781 240.917969 440.300781 240.917969 440.292969 240.925781 C 440.273438 240.925781 440.246094 240.933594 440.226562 240.945312 C 440.210938 240.945312 440.210938 240.945312 440.191406 240.953125 C 440.175781 240.953125 440.164062 240.960938 440.148438 240.960938 C 440.128906 240.972656 440.113281 240.972656 440.101562 240.980469 C 440.09375 240.980469 440.078125 240.988281 440.058594 240.988281 C 440.050781 240.996094 440.03125 240.996094 440.023438 240.996094 C 440.003906 241.007812 439.996094 241.007812 439.976562 241.015625 C 439.949219 241.023438 439.925781 241.023438 439.886719 241.035156 C 439.878906 241.042969 439.871094 241.042969 439.863281 241.042969 C 439.84375 241.050781 439.824219 241.050781 439.808594 241.058594 C 439.796875 241.058594 439.789062 241.070312 439.78125 241.070312 C 439.773438 241.070312 439.761719 241.070312 439.753906 241.070312 C 439.753906 241.078125 439.734375 241.085938 439.726562 241.085938 C 439.71875 241.085938 439.710938 241.085938 439.691406 241.097656 C 439.671875 241.097656 439.664062 241.105469 439.636719 241.105469 C 439.636719 241.105469 439.628906 241.113281 439.628906 241.113281 C 439.558594 241.132812 439.484375 241.148438 439.421875 241.167969 C 439.414062 241.167969 439.414062 241.167969 439.40625 241.167969 C 439.378906 241.175781 439.367188 241.1875 439.34375 241.195312 C 439.34375 241.195312 439.332031 241.195312 439.324219 241.195312 C 439.304688 241.203125 439.289062 241.203125 439.261719 241.210938 C 439.261719 241.210938 439.253906 241.210938 439.242188 241.222656 C 439.179688 241.230469 439.109375 241.257812 439.046875 241.277344 C 439.039062 241.277344 439.039062 241.277344 439.027344 241.277344 C 439.011719 241.285156 438.992188 241.285156 438.976562 241.292969 C 438.957031 241.292969 438.957031 241.300781 438.949219 241.300781 C 438.929688 241.300781 438.902344 241.3125 438.886719 241.3125 C 438.875 241.320312 438.867188 241.320312 438.859375 241.320312 C 438.839844 241.328125 438.824219 241.328125 438.804688 241.339844 C 438.796875 241.339844 438.785156 241.339844 438.785156 241.347656 C 438.722656 241.355469 438.652344 241.382812 438.589844 241.402344 C 438.582031 241.402344 438.570312 241.402344 438.5625 241.402344 C 438.546875 241.410156 438.535156 241.410156 438.507812 241.417969 C 438.5 241.417969 438.492188 241.429688 438.472656 241.429688 C 438.457031 241.429688 438.445312 241.4375 438.429688 241.4375 C 438.417969 241.445312 438.402344 241.445312 438.394531 241.445312 C 438.375 241.453125 438.367188 241.453125 438.339844 241.464844 C 438.339844 241.464844 438.339844 241.464844 438.332031 241.464844 C 438.292969 241.472656 438.257812 241.480469 438.222656 241.5 C 438.203125 241.5 438.195312 241.5 438.179688 241.507812 C 438.167969 241.507812 438.152344 241.515625 438.140625 241.515625 C 438.125 241.515625 438.105469 241.527344 438.089844 241.527344 C 438.078125 241.535156 438.070312 241.535156 438.054688 241.535156 C 438.035156 241.542969 438.015625 241.542969 438 241.554688 C 437.988281 241.5625 437.980469 241.5625 437.972656 241.5625 C 437.9375 241.570312 437.910156 241.578125 437.882812 241.589844 C 432.351562 243.613281 427.34375 244.304688 423.109375 244.304688 " fill-opacity="1" fill-rule="nonzero"/><path fill="#6d3128" d="M 384.757812 262.292969 C 381.683594 263.796875 364.296875 303.523438 364.296875 303.523438 L 371.074219 303.523438 C 389.964844 272.03125 400.585938 258.691406 400.585938 258.691406 C 400.585938 258.691406 395.847656 256.828125 384.757812 262.292969 " fill-opacity="1" fill-rule="nonzero"/><path fill="#6d3128" d="M 461.464844 262.292969 C 464.535156 263.796875 481.914062 303.523438 481.914062 303.523438 L 475.136719 303.523438 C 456.253906 272.03125 445.636719 258.691406 445.636719 258.691406 C 445.636719 258.691406 450.363281 256.828125 461.464844 262.292969 " fill-opacity="1" fill-rule="nonzero"/><path fill="#fabf90" d="M 409.816406 335.742188 C 409.816406 357.074219 392.527344 374.355469 371.199219 374.355469 C 349.894531 374.355469 332.613281 357.074219 332.613281 335.742188 C 332.613281 314.410156 349.894531 297.117188 371.199219 297.117188 C 392.527344 297.117188 409.816406 314.410156 409.816406 335.742188 " fill-opacity="1" fill-rule="nonzero"/><path fill="#dbd8d5" d="M 409.816406 335.742188 C 409.816406 333.816406 409.617188 331.933594 409.351562 330.078125 C 369.5625 337.863281 333.089844 330.078125 333.078125 330.070312 C 332.800781 331.925781 332.613281 333.804688 332.613281 335.742188 C 332.613281 357.074219 349.894531 374.355469 371.199219 374.355469 C 392.527344 374.355469 409.816406 357.074219 409.816406 335.742188 " fill-opacity="1" fill-rule="nonzero"/><path fill="#ffffff" d="M 333.078125 330.070312 C 333.078125 330.070312 321.851562 338.714844 337.492188 335.730469 C 337.492188 335.730469 341.835938 335.640625 344.960938 338.070312 C 348.074219 340.5 351.871094 341.152344 356.230469 337.199219 C 360.574219 333.25 364.03125 340.023438 364.03125 340.023438 C 364.03125 340.023438 369.242188 343.867188 375.472656 338.589844 C 375.472656 338.589844 377.90625 335.820312 383.457031 339.628906 C 389 343.445312 391.425781 339.457031 393.164062 337.730469 C 394.898438 335.992188 400.96875 335.640625 403.226562 337.730469 C 403.226562 337.730469 420.148438 339.089844 409.351562 330.078125 C 409.351562 330.078125 375.472656 337.523438 333.078125 330.070312 " fill-opacity="1" fill-rule="nonzero"/><path fill="#fabf90" d="M 511.144531 335.742188 C 511.144531 357.074219 493.867188 374.355469 472.546875 374.355469 C 451.222656 374.355469 433.945312 357.074219 433.945312 335.742188 C 433.945312 314.410156 451.222656 297.117188 472.546875 297.117188 C 493.867188 297.117188 511.144531 314.410156 511.144531 335.742188 " fill-opacity="1" fill-rule="nonzero"/><path fill="#dbd8d5" d="M 511.144531 335.742188 C 511.144531 333.816406 510.957031 331.933594 510.679688 330.078125 C 470.902344 337.863281 434.417969 330.078125 434.410156 330.070312 C 434.132812 331.925781 433.945312 333.804688 433.945312 335.742188 C 433.945312 357.074219 451.222656 374.355469 472.546875 374.355469 C 493.867188 374.355469 511.144531 357.074219 511.144531 335.742188 " fill-opacity="1" fill-rule="nonzero"/><path fill="#ffffff" d="M 434.410156 330.070312 C 434.410156 330.070312 423.183594 338.714844 438.832031 335.730469 C 438.832031 335.730469 443.164062 335.640625 446.289062 338.070312 C 449.40625 340.5 453.203125 341.152344 457.5625 337.199219 C 461.914062 333.25 465.359375 340.023438 465.359375 340.023438 C 465.359375 340.023438 470.578125 343.867188 476.808594 338.589844 C 476.808594 338.589844 479.246094 335.820312 484.796875 339.628906 C 490.339844 343.445312 492.765625 339.457031 494.5 337.730469 C 496.238281 335.992188 502.308594 335.640625 504.5625 337.730469 C 504.5625 337.730469 521.476562 339.089844 510.679688 330.078125 C 510.679688 330.078125 476.808594 337.523438 434.410156 330.070312 " fill-opacity="1" fill-rule="nonzero"/><path fill="#291712" d="M 391.757812 372.671875 L 442.984375 383.125 L 398.660156 397.425781 L 432.78125 411.921875 L 433.316406 410.683594 L 402.507812 397.59375 L 448.285156 382.832031 L 392.035156 371.34375 L 391.765625 372.671875 " fill-opacity="1" fill-rule="nonzero"/><path fill="#291712" d="M 407.433594 411.910156 L 440.972656 396.421875 L 397.667969 382.917969 L 449.378906 373.953125 L 449.15625 372.625 L 391.9375 382.550781 L 437.230469 396.664062 L 406.859375 410.691406 L 407.433594 411.910156 " fill-opacity="1" fill-rule="nonzero"/><path fill="#291712" d="M 394.46875 372.761719 C 394.46875 374.175781 393.316406 375.332031 391.898438 375.332031 C 390.476562 375.332031 389.320312 374.175781 389.320312 372.761719 C 389.320312 371.335938 390.476562 370.179688 391.898438 370.179688 C 393.316406 370.179688 394.46875 371.335938 394.46875 372.761719 " fill-opacity="1" fill-rule="nonzero"/><path fill="#291712" d="M 394.46875 381.636719 C 394.46875 383.0625 393.316406 384.210938 391.898438 384.210938 C 390.476562 384.210938 389.320312 383.0625 389.320312 381.636719 C 389.320312 380.214844 390.476562 379.058594 391.898438 379.058594 C 393.316406 379.058594 394.46875 380.214844 394.46875 381.636719 " fill-opacity="1" fill-rule="nonzero"/><path fill="#291712" d="M 401.730469 397.300781 C 401.730469 398.722656 400.574219 399.878906 399.160156 399.878906 C 397.738281 399.878906 396.582031 398.722656 396.582031 397.300781 C 396.582031 395.882812 397.738281 394.71875 399.160156 394.71875 C 400.574219 394.71875 401.730469 395.882812 401.730469 397.300781 " fill-opacity="1" fill-rule="nonzero"/><path fill="#291712" d="M 410.773438 411.300781 C 410.773438 412.726562 409.617188 413.875 408.203125 413.875 C 406.78125 413.875 405.625 412.726562 405.625 411.300781 C 405.625 409.878906 406.78125 408.730469 408.203125 408.730469 C 409.617188 408.730469 410.773438 409.878906 410.773438 411.300781 " fill-opacity="1" fill-rule="nonzero"/><path fill="#291712" d="M 435.652344 411.300781 C 435.652344 412.726562 434.507812 413.875 433.082031 413.875 C 431.667969 413.875 430.503906 412.726562 430.503906 411.300781 C 430.503906 409.878906 431.667969 408.730469 433.082031 408.730469 C 434.507812 408.730469 435.652344 409.878906 435.652344 411.300781 " fill-opacity="1" fill-rule="nonzero"/><path fill="#291712" d="M 443.730469 396.609375 C 443.730469 398.035156 442.574219 399.179688 441.152344 399.179688 C 439.726562 399.179688 438.582031 398.035156 438.582031 396.609375 C 438.582031 395.183594 439.726562 394.027344 441.152344 394.027344 C 442.574219 394.027344 443.730469 395.183594 443.730469 396.609375 " fill-opacity="1" fill-rule="nonzero"/><path fill="#291712" d="M 450.785156 382.8125 C 450.785156 384.226562 449.628906 385.390625 448.207031 385.390625 C 446.789062 385.390625 445.636719 384.226562 445.636719 382.8125 C 445.636719 381.398438 446.789062 380.242188 448.207031 380.242188 C 449.628906 380.242188 450.785156 381.398438 450.785156 382.8125 " fill-opacity="1" fill-rule="nonzero"/><path fill="#291712" d="M 451.839844 373.289062 C 451.839844 374.714844 450.695312 375.859375 449.269531 375.859375 C 447.847656 375.859375 446.691406 374.714844 446.691406 373.289062 C 446.691406 371.863281 447.847656 370.71875 449.269531 370.71875 C 450.695312 370.71875 451.839844 371.863281 451.839844 373.289062 " fill-opacity="1" fill-rule="nonzero"/><path fill="#dbd8d5" d="M 442.492188 487.257812 L 399.5625 487.257812 C 399.5625 487.257812 293.535156 520.78125 243.183594 669.300781 L 598.882812 669.300781 C 548.523438 520.78125 442.492188 487.257812 442.492188 487.257812 " fill-opacity="1" fill-rule="nonzero"/><path fill="#bebab8" d="M 272.996094 603.054688 C 261.992188 622.085938 251.769531 643.988281 243.183594 669.300781 L 598.882812 669.300781 C 591.003906 646.066406 581.757812 625.648438 571.785156 607.730469 C 424.085938 683.785156 314.589844 630.648438 272.996094 603.054688 " fill-opacity="1" fill-rule="nonzero"/><path fill="#3f90bf" d="M 441.859375 487.257812 L 400.207031 487.257812 C 400.207031 487.257812 347.117188 546.515625 339.363281 594.480469 L 502.691406 594.480469 C 494.949219 546.515625 441.859375 487.257812 441.859375 487.257812 " fill-opacity="1" fill-rule="nonzero"/><path fill="#ffffff" d="M 243.183594 669.300781 C 243.183594 669.300781 247.714844 657.238281 257.882812 663.269531 C 257.882812 663.269531 267.5625 667.605469 273.371094 665.4375 C 279.191406 663.269531 281.894531 661.585938 287.320312 665.4375 C 287.320312 665.4375 297.589844 655.976562 305.335938 665.4375 C 305.335938 665.4375 316.320312 657.804688 320.1875 666.800781 C 320.1875 666.800781 327.921875 657.132812 336.3125 666.179688 C 336.3125 666.179688 346.320312 657.9375 352.777344 666.980469 C 352.777344 666.980469 360.519531 658.753906 367.304688 666.503906 C 367.304688 666.503906 375.855469 657.132812 384.40625 666.34375 C 384.40625 666.34375 391.828125 656.648438 399.25 666.34375 C 399.25 666.34375 409.742188 657.617188 416.683594 666.980469 C 416.683594 666.980469 428.464844 656.820312 441.847656 666.179688 C 441.847656 666.179688 457.667969 657.894531 469.128906 665.265625 C 469.128906 665.265625 478.011719 656.121094 489.460938 665.265625 C 489.460938 665.265625 499.953125 655.117188 506.890625 665.25 C 506.890625 665.25 518.191406 657.894531 523.355469 665.027344 C 523.355469 665.027344 537.878906 657.417969 542.5625 665.027344 C 542.5625 665.027344 553.367188 655.484375 560.949219 665.027344 C 560.949219 665.027344 572.894531 655.484375 581.925781 665.027344 C 581.925781 665.027344 595.007812 656.613281 601.613281 665.027344 C 601.613281 665.027344 608.230469 673.609375 600.488281 676.351562 C 600.488281 676.351562 585.8125 678.929688 582.410156 673.285156 C 582.410156 673.285156 570.46875 681.679688 561.765625 673.929688 C 561.765625 673.929688 552.570312 679.90625 542.714844 674.574219 C 542.714844 674.574219 531.414062 681.511719 523.507812 673.445312 C 523.507812 673.445312 513.667969 680.722656 506.410156 673.929688 C 506.410156 673.929688 497.699219 680.390625 488.816406 674.414062 C 488.816406 674.414062 477.035156 681.195312 469.933594 674.898438 C 469.933594 674.898438 452.339844 683.777344 442.179688 675.222656 C 442.179688 675.222656 422.007812 684.90625 417.003906 676.511719 C 417.003906 676.511719 404.417969 682.164062 399.582031 674.414062 C 399.582031 674.414062 391.023438 679.90625 384.566406 674.414062 C 384.566406 674.414062 375.203125 681.195312 366.976562 674.414062 C 366.976562 674.414062 357.449219 679.089844 353.421875 673.761719 C 353.421875 673.761719 344.066406 678.132812 334.699219 673.285156 C 334.699219 673.285156 324.539062 677.800781 317.429688 672.800781 C 317.429688 672.800781 305.335938 677.960938 301.136719 672.480469 C 301.136719 672.480469 289.835938 680.75 285.003906 671.988281 C 285.003906 671.988281 273.058594 679.261719 269.664062 671.503906 C 269.664062 671.503906 243.808594 680.328125 243.183594 669.300781 " fill-opacity="1" fill-rule="nonzero"/><path fill="#367ea4" d="M 441.992188 487.257812 L 400.082031 487.257812 C 400.082031 487.257812 400.082031 487.257812 400.074219 487.257812 C 399.941406 487.0625 387.109375 468.863281 374.066406 441.816406 C 387.074219 455.003906 403.457031 465.433594 422.777344 465.433594 C 435.269531 465.433594 448.976562 461.070312 463.785156 450.292969 C 452.324219 472.601562 442.117188 487.078125 441.992188 487.257812 " fill-opacity="1" fill-rule="nonzero"/><path fill="#6e94aa" d="M 339.363281 594.480469 C 339.8125 591.75 340.402344 588.972656 341.117188 586.175781 C 340.402344 588.972656 339.8125 591.738281 339.363281 594.480469 " fill-opacity="1" fill-rule="nonzero"/><path fill="#367ea4" d="M 502.691406 594.480469 L 339.363281 594.480469 C 339.8125 591.738281 340.402344 588.972656 341.117188 586.175781 C 343.625 576.417969 347.707031 566.386719 352.585938 556.609375 C 362.792969 564.925781 385.917969 579.832031 420.46875 579.832031 C 440.425781 579.832031 464.195312 574.859375 491.484375 560.757812 C 496.792969 572.019531 500.929688 583.542969 502.691406 594.480469 " fill-opacity="1" fill-rule="nonzero"/><path fill="#fabf90" d="M 223.183594 258.386719 C 223.183594 258.386719 245.941406 259.847656 234.320312 235.621094 L 201.398438 235.621094 C 201.398438 235.621094 182.042969 254.527344 209.636719 258.394531 L 223.183594 258.386719 " fill-opacity="1" fill-rule="nonzero"/><path fill="#fef3d9" d="M 106.105469 306.113281 C 106.195312 303.210938 107.070312 299.320312 110.804688 297.089844 L 110.804688 198.144531 C 150.867188 204.203125 190.941406 198.144531 190.941406 198.144531 L 190.941406 297.089844 C 190.941406 297.089844 195.714844 298.113281 196.304688 306.113281 L 106.105469 306.113281 " fill-opacity="1" fill-rule="nonzero"/><path fill="#fef3d9" d="M 185.230469 236.722656 C 185.230469 230.191406 191.21875 224.890625 198.597656 224.890625 C 205.972656 224.890625 211.964844 230.191406 211.964844 236.722656 L 211.964844 256.453125 C 211.964844 262.984375 205.972656 268.277344 198.597656 268.277344 C 191.21875 268.277344 185.230469 262.984375 185.230469 256.453125 L 185.230469 236.722656 M 181.523438 232.433594 L 181.523438 260.734375 C 181.523438 270.113281 190.101562 277.710938 200.691406 277.710938 C 211.273438 277.710938 219.859375 270.113281 219.859375 260.734375 L 219.859375 232.433594 C 219.859375 223.0625 211.273438 215.464844 200.691406 215.464844 C 190.101562 215.464844 181.523438 223.0625 181.523438 232.433594 " fill-opacity="1" fill-rule="nonzero"/><path fill="#f3b527" d="M 114.566406 203.386719 L 114.566406 295.667969 C 150.867188 315.707031 187.183594 295.667969 187.183594 295.667969 L 187.183594 203.386719 C 187.183594 203.386719 150.867188 208.878906 114.566406 203.386719 " fill-opacity="1" fill-rule="nonzero"/><path fill="#ee9824" d="M 147.109375 296.632812 C 137.527344 296.632812 126.632812 295.53125 114.566406 292.628906 L 114.566406 295.667969 L 114.566406 287.386719 C 118.289062 287.863281 121.871094 288.085938 125.308594 288.085938 C 157.574219 288.085938 177.503906 268.539062 187.183594 255.566406 L 187.183594 289.242188 C 179.519531 292.421875 165.820312 296.632812 147.109375 296.632812 " fill-opacity="1" fill-rule="nonzero"/><path fill="#f0a27d" d="M 149.527344 304.570312 C 149.527344 304.570312 149.535156 304.570312 149.535156 304.570312 C 149.535156 304.570312 149.527344 304.570312 149.527344 304.570312 M 149.515625 304.570312 C 138.917969 304.570312 127 302.402344 115.066406 295.945312 C 127 302.402344 138.917969 304.570312 149.515625 304.570312 " fill-opacity="1" fill-rule="nonzero"/><path fill="#eb8223" d="M 149.527344 304.570312 C 149.527344 304.570312 149.527344 304.570312 149.515625 304.570312 C 138.917969 304.570312 127 302.402344 115.066406 295.945312 C 114.894531 295.855469 114.734375 295.757812 114.566406 295.667969 L 114.566406 292.628906 C 126.632812 295.53125 137.527344 296.632812 147.109375 296.632812 C 165.820312 296.632812 179.519531 292.421875 187.183594 289.242188 L 187.183594 295.667969 C 186.957031 295.792969 170.898438 304.570312 149.535156 304.570312 C 149.535156 304.570312 149.527344 304.570312 149.527344 304.570312 " fill-opacity="1" fill-rule="nonzero"/><path fill="#fef3d9" d="M 169.660156 218.359375 C 169.660156 220.105469 171.09375 221.53125 172.839844 221.53125 C 174.585938 221.53125 176 220.105469 176 218.359375 C 176 216.601562 174.585938 215.1875 172.839844 215.1875 C 171.09375 215.1875 169.660156 216.601562 169.660156 218.359375 " fill-opacity="1" fill-rule="nonzero"/><path fill="#fef3d9" d="M 132.460938 241.472656 C 132.460938 243.21875 133.886719 244.644531 135.628906 244.644531 C 137.375 244.644531 138.792969 243.21875 138.792969 241.472656 C 138.792969 239.714844 137.375 238.300781 135.628906 238.300781 C 133.886719 238.300781 132.460938 239.714844 132.460938 241.472656 " fill-opacity="1" fill-rule="nonzero"/><path fill="#fef3d9" d="M 144.53125 258.253906 C 144.53125 260.007812 145.953125 261.425781 147.699219 261.425781 C 149.453125 261.425781 150.867188 260.007812 150.867188 258.253906 C 150.867188 256.507812 149.453125 255.082031 147.699219 255.082031 C 145.953125 255.082031 144.53125 256.507812 144.53125 258.253906 " fill-opacity="1" fill-rule="nonzero"/><path fill="#fef3d9" d="M 160.277344 270.535156 C 160.277344 272.28125 161.691406 273.699219 163.4375 273.699219 C 165.195312 273.699219 166.609375 272.28125 166.609375 270.535156 C 166.609375 268.78125 165.195312 267.363281 163.4375 267.363281 C 161.691406 267.363281 160.277344 268.78125 160.277344 270.535156 " fill-opacity="1" fill-rule="nonzero"/><path fill="#fef3d9" d="M 127.160156 281.707031 C 127.160156 283.464844 128.574219 284.886719 130.332031 284.886719 C 132.078125 284.886719 133.492188 283.464844 133.492188 281.707031 C 133.492188 279.960938 132.078125 278.546875 130.332031 278.546875 C 128.574219 278.546875 127.160156 279.960938 127.160156 281.707031 " fill-opacity="1" fill-rule="nonzero"/><path fill="#fef3d9" d="M 141.371094 217.472656 C 141.371094 219.226562 142.785156 220.652344 144.53125 220.652344 C 146.285156 220.652344 147.699219 219.226562 147.699219 217.472656 C 147.699219 215.722656 146.285156 214.308594 144.53125 214.308594 C 142.785156 214.308594 141.371094 215.722656 141.371094 217.472656 " fill-opacity="1" fill-rule="nonzero"/><path fill="#fef3d9" d="M 164.558594 244.644531 C 164.558594 245.710938 165.425781 246.589844 166.492188 246.589844 C 167.566406 246.589844 168.433594 245.710938 168.433594 244.644531 C 168.433594 243.570312 167.566406 242.699219 166.492188 242.699219 C 165.425781 242.699219 164.558594 243.570312 164.558594 244.644531 " fill-opacity="1" fill-rule="nonzero"/><path fill="#fef3d9" d="M 121.933594 265.421875 C 121.933594 266.496094 122.800781 267.363281 123.875 267.363281 C 124.941406 267.363281 125.808594 266.496094 125.808594 265.421875 C 125.808594 264.34375 124.941406 263.46875 123.875 263.46875 C 122.800781 263.46875 121.933594 264.34375 121.933594 265.421875 " fill-opacity="1" fill-rule="nonzero"/><path fill="#fef3d9" d="M 153.617188 275.644531 C 153.617188 276.71875 154.496094 277.585938 155.558594 277.585938 C 156.632812 277.585938 157.503906 276.71875 157.503906 275.644531 C 157.503906 274.578125 156.632812 273.699219 155.558594 273.699219 C 154.496094 273.699219 153.617188 274.578125 153.617188 275.644531 " fill-opacity="1" fill-rule="nonzero"/><path fill="#fef3d9" d="M 164.558594 286.824219 C 164.558594 287.898438 165.425781 288.769531 166.492188 288.769531 C 167.566406 288.769531 168.433594 287.898438 168.433594 286.824219 C 168.433594 285.75 167.566406 284.886719 166.492188 284.886719 C 165.425781 284.886719 164.558594 285.75 164.558594 286.824219 " fill-opacity="1" fill-rule="nonzero"/><path fill="#fef3d9" d="M 179.589844 269.308594 C 179.589844 270.375 180.449219 271.242188 181.523438 271.242188 C 182.605469 271.242188 183.464844 270.375 183.464844 269.308594 C 183.464844 268.234375 182.605469 267.363281 181.523438 267.363281 C 180.449219 267.363281 179.589844 268.234375 179.589844 269.308594 " fill-opacity="1" fill-rule="nonzero"/><path fill="#fef3d9" d="M 162.613281 225.203125 C 162.613281 226.285156 163.472656 227.15625 164.558594 227.15625 C 165.625 227.15625 166.492188 226.285156 166.492188 225.203125 C 166.492188 224.136719 165.625 223.257812 164.558594 223.257812 C 163.472656 223.257812 162.613281 224.136719 162.613281 225.203125 " fill-opacity="1" fill-rule="nonzero"/><path fill="#fef3d9" d="M 125.210938 248.53125 C 125.210938 249.609375 126.078125 250.476562 127.160156 250.476562 C 128.226562 250.476562 129.105469 249.609375 129.105469 248.53125 C 129.105469 247.457031 128.226562 246.589844 127.160156 246.589844 C 126.078125 246.589844 125.210938 247.457031 125.210938 248.53125 " fill-opacity="1" fill-rule="nonzero"/><path fill="#fef3d9" d="M 128.378906 223.257812 C 128.378906 224.332031 129.257812 225.203125 130.332031 225.203125 C 131.394531 225.203125 132.265625 224.332031 132.265625 223.257812 C 132.265625 222.191406 131.394531 221.324219 130.332031 221.324219 C 129.257812 221.324219 128.378906 222.191406 128.378906 223.257812 " fill-opacity="1" fill-rule="nonzero"/><path fill="#fef3d9" d="M 176.726562 244.644531 C 176.726562 245.710938 177.585938 246.589844 178.660156 246.589844 C 179.742188 246.589844 180.609375 245.710938 180.609375 244.644531 C 180.609375 243.570312 179.742188 242.699219 178.660156 242.699219 C 177.585938 242.699219 176.726562 243.570312 176.726562 244.644531 " fill-opacity="1" fill-rule="nonzero"/><path fill="#ffffff" d="M 133.222656 170.523438 C 133.222656 182.539062 142.953125 192.277344 154.960938 192.277344 C 166.964844 192.277344 176.699219 182.539062 176.699219 170.523438 C 176.699219 158.511719 166.964844 148.773438 154.960938 148.773438 C 142.953125 148.773438 133.222656 158.511719 133.222656 170.523438 " fill-opacity="1" fill-rule="nonzero"/><path fill="#ffffff" d="M 115.082031 177.261719 C 115.082031 184.332031 120.8125 190.074219 127.886719 190.074219 C 134.949219 190.074219 140.679688 184.332031 140.679688 177.261719 C 140.679688 170.183594 134.949219 164.449219 127.886719 164.449219 C 120.8125 164.449219 115.082031 170.183594 115.082031 177.261719 " fill-opacity="1" fill-rule="nonzero"/><g clip-path="url(#1307f9973d)"><path fill="#ffffff" d="M 97.214844 185.210938 C 97.214844 192.414062 103.03125 198.234375 110.230469 198.234375 C 117.421875 198.234375 123.238281 192.414062 123.238281 185.210938 C 123.238281 178.015625 117.421875 172.183594 110.230469 172.183594 C 103.03125 172.183594 97.214844 178.015625 97.214844 185.210938 " fill-opacity="1" fill-rule="nonzero"/></g><path fill="#ffffff" d="M 106.738281 195.152344 C 106.738281 202.464844 112.675781 208.394531 119.988281 208.394531 C 127.304688 208.394531 133.222656 202.464844 133.222656 195.152344 C 133.222656 187.824219 127.304688 181.894531 119.988281 181.894531 C 112.675781 181.894531 106.738281 187.824219 106.738281 195.152344 " fill-opacity="1" fill-rule="nonzero"/><path fill="#ffffff" d="M 127.886719 191.828125 C 127.886719 201.953125 136.078125 210.160156 146.195312 210.160156 C 156.3125 210.160156 164.511719 201.953125 164.511719 191.828125 C 164.511719 181.714844 156.3125 173.5 146.195312 173.5 C 136.078125 173.5 127.886719 181.714844 127.886719 191.828125 " fill-opacity="1" fill-rule="nonzero"/><path fill="#ffffff" d="M 146.519531 181.894531 C 146.519531 197.445312 159.113281 210.054688 174.648438 210.054688 C 190.191406 210.054688 202.785156 197.445312 202.785156 181.894531 C 202.785156 166.339844 190.191406 153.746094 174.648438 153.746094 C 159.113281 153.746094 146.519531 166.339844 146.519531 181.894531 " fill-opacity="1" fill-rule="nonzero"/><path fill="#ffffff" d="M 177.546875 220.285156 C 177.546875 231.984375 181.480469 241.472656 186.3125 241.472656 C 191.15625 241.472656 195.085938 231.984375 195.085938 220.285156 C 195.085938 208.59375 191.15625 199.105469 186.3125 199.105469 C 181.480469 199.105469 177.546875 208.59375 177.546875 220.285156 " fill-opacity="1" fill-rule="nonzero"/><path fill="#ffffff" d="M 172.554688 209.398438 C 172.554688 212.640625 175.070312 215.265625 178.15625 215.265625 C 181.253906 215.265625 183.761719 212.640625 183.761719 209.398438 C 183.761719 206.164062 181.253906 203.53125 178.15625 203.53125 C 175.070312 203.53125 172.554688 206.164062 172.554688 209.398438 " fill-opacity="1" fill-rule="nonzero"/><path fill="#ffffff" d="M 188.6875 206.09375 C 188.6875 209.945312 191.238281 213.070312 194.371094 213.070312 C 197.503906 213.070312 200.054688 209.945312 200.054688 206.09375 C 200.054688 202.230469 197.503906 199.105469 194.371094 199.105469 C 191.238281 199.105469 188.6875 202.230469 188.6875 206.09375 " fill-opacity="1" fill-rule="nonzero"/><path fill="#ffffff" d="M 183.464844 217.660156 C 183.464844 222.226562 186.671875 225.929688 190.636719 225.929688 C 194.59375 225.929688 197.808594 222.226562 197.808594 217.660156 C 197.808594 213.097656 194.59375 209.398438 190.636719 209.398438 C 186.671875 209.398438 183.464844 213.097656 183.464844 217.660156 " fill-opacity="1" fill-rule="nonzero"/><path fill="#fabf90" d="M 227.898438 250.152344 C 222.007812 250.546875 216.808594 244.339844 216.261719 236.277344 C 215.722656 228.214844 220.066406 221.351562 225.9375 220.957031 C 231.832031 220.570312 237.039062 226.78125 237.578125 234.84375 C 238.117188 242.90625 233.78125 249.757812 227.898438 250.152344 " fill-opacity="1" fill-rule="nonzero"/><path fill="#fabf90" d="M 219.859375 238.300781 C 219.859375 247.097656 215.097656 254.230469 209.222656 254.230469 C 203.359375 254.230469 198.597656 247.097656 198.597656 238.300781 C 198.597656 229.496094 203.359375 222.371094 209.222656 222.371094 C 215.097656 222.371094 219.859375 229.496094 219.859375 238.300781 " fill-opacity="1" fill-rule="nonzero"/></svg>