<svg xmlns="http://www.w3.org/2000/svg" xmlns:xlink="http://www.w3.org/1999/xlink" width="1133" zoomAndPan="magnify" viewBox="0 0 850.5 850.499973" height="1133" preserveAspectRatio="xMidYMid meet" version="1.0"><defs><clipPath id="e2251c1670"><path d="M 323 442 L 516.867188 442 L 516.867188 739.800781 L 323 739.800781 Z M 323 442 " clip-rule="nonzero"/></clipPath><clipPath id="bf1b55f318"><path d="M 323 544 L 516.867188 544 L 516.867188 739.800781 L 323 739.800781 Z M 323 544 " clip-rule="nonzero"/></clipPath><clipPath id="075c58a178"><path d="M 359 681 L 476 681 L 476 739.800781 L 359 739.800781 Z M 359 681 " clip-rule="nonzero"/></clipPath></defs><path fill="#fabf90" d="M 353.730469 456.53125 C 353.730469 456.53125 219.828125 620.175781 165.914062 442.410156 L 143.34375 442.410156 C 143.34375 442.410156 187.660156 647.558594 338.46875 521.9375 L 353.730469 456.53125 " fill-opacity="1" fill-rule="nonzero"/><path fill="#f1af80" d="M 249.167969 562.652344 C 191.46875 562.644531 161.894531 499.851562 149.929688 465.019531 C 152.152344 463.535156 154.074219 461.710938 155.617188 459.652344 C 167.65625 490.488281 197.738281 551.070312 248.394531 551.0625 C 271.058594 551.050781 297.835938 538.933594 328.953125 506.597656 C 326.710938 515.214844 325.269531 523.996094 324.515625 532.847656 C 295.269531 554.207031 270.332031 562.660156 249.167969 562.652344 M 145.703125 451.550781 C 144.085938 445.847656 143.34375 442.410156 143.34375 442.410156 L 149.476562 442.410156 C 149.375 445.863281 147.988281 449.039062 145.703125 451.550781 " fill-opacity="1" fill-rule="nonzero"/><path fill="#ffffff" d="M 308.007812 475.660156 C 308.007812 475.660156 276.933594 459.46875 285.851562 483.824219 C 285.851562 483.824219 280.011719 494.789062 289.617188 502.917969 C 289.617188 502.917969 283.339844 512.421875 290.871094 518.6875 C 290.871094 518.6875 286.1875 527.277344 296.058594 534.679688 C 296.058594 534.679688 288.773438 552.539062 311.355469 555.042969 L 308.007812 475.660156 " fill-opacity="1" fill-rule="nonzero"/><g clip-path="url(#e2251c1670)"><path fill="#fabf90" d="M 445.917969 739.890625 C 567.007812 561.519531 495.6875 461.621094 495.6875 461.621094 C 427.628906 421.601562 353.730469 456.53125 353.730469 456.53125 C 271.511719 560.628906 384.230469 727.808594 392.574219 739.890625 L 445.917969 739.890625 " fill-opacity="1" fill-rule="nonzero"/></g><path fill="#f1af80" d="M 378.175781 717.042969 C 357.847656 682.40625 323.863281 614.613281 323.863281 548.386719 C 323.863281 516.050781 331.972656 484.078125 353.730469 456.53125 C 353.730469 456.53125 373.941406 446.972656 402.972656 443.589844 L 402.972656 456.53125 L 444.457031 456.53125 L 444.457031 443.898438 C 461.058594 446.226562 478.558594 451.550781 495.6875 461.621094 C 495.6875 461.621094 496.710938 463.070312 498.316406 465.917969 L 512.269531 525.671875 C 513.457031 526.671875 514.65625 527.652344 515.84375 528.601562 C 516.296875 534.046875 516.550781 539.804688 516.550781 545.871094 C 516.550781 546.644531 516.542969 547.414062 516.53125 548.195312 C 516.53125 547.851562 516.53125 547.515625 516.53125 547.160156 C 516.542969 546.125 516.53125 545.101562 516.523438 544.085938 L 323.9375 544.085938 C 323.902344 545.507812 323.882812 546.941406 323.882812 548.367188 C 323.875 614.625 357.855469 682.421875 378.175781 717.042969 " fill-opacity="1" fill-rule="nonzero"/><path fill="#fabf90" d="M 497 460.269531 C 497 460.269531 630.910156 623.921875 684.816406 446.144531 L 707.386719 446.144531 C 707.386719 446.144531 663.070312 651.304688 512.269531 525.671875 L 497 460.269531 " fill-opacity="1" fill-rule="nonzero"/><path fill="#f1af80" d="M 705.027344 455.308594 C 702.742188 452.785156 701.347656 449.609375 701.253906 446.144531 L 707.386719 446.144531 C 707.386719 446.144531 706.652344 449.582031 705.027344 455.308594 " fill-opacity="1" fill-rule="nonzero"/><path fill="#f1af80" d="M 601.5625 566.398438 C 577.941406 566.398438 549.617188 555.875 515.84375 528.601562 C 514.65625 527.652344 513.457031 526.671875 512.269531 525.671875 L 503.976562 490.171875 C 542.796875 537.746094 575.464844 554.796875 602.335938 554.796875 C 652.992188 554.796875 683.074219 494.234375 695.121094 463.386719 C 696.65625 465.457031 698.578125 467.269531 700.800781 468.765625 C 688.835938 503.597656 659.261719 566.398438 601.5625 566.398438 " fill-opacity="1" fill-rule="nonzero"/><path fill="#ffffff" d="M 542.734375 479.398438 C 542.734375 479.398438 573.804688 463.207031 564.878906 487.5625 C 564.878906 487.5625 570.730469 498.535156 561.121094 506.652344 C 561.121094 506.652344 567.382812 516.167969 559.871094 522.433594 C 559.871094 522.433594 564.542969 531.015625 554.679688 538.425781 C 554.679688 538.425781 561.945312 556.285156 539.386719 558.789062 L 542.734375 479.398438 " fill-opacity="1" fill-rule="nonzero"/><path fill="#dbd8d5" d="M 503.976562 521.472656 C 503.976562 521.472656 507.589844 481.292969 491.867188 459.46875 C 491.867188 459.46875 556.070312 440.042969 551.6875 509.238281 C 551.6875 509.238281 551.796875 539.089844 540.78125 555.632812 L 518.140625 558.789062 L 503.976562 521.472656 " fill-opacity="1" fill-rule="nonzero"/><path fill="#fabf90" d="M 686.703125 448.25 C 686.703125 448.25 657.238281 450.144531 672.289062 418.808594 L 714.917969 418.808594 C 714.917969 418.808594 739.992188 443.269531 704.257812 448.269531 L 686.703125 448.25 " fill-opacity="1" fill-rule="nonzero"/><path fill="#fef3d9" d="M 838.324219 510 C 838.195312 506.246094 837.0625 501.203125 832.226562 498.328125 L 832.226562 370.328125 C 780.34375 378.164062 728.460938 370.328125 728.460938 370.328125 L 728.460938 498.328125 C 728.460938 498.328125 722.285156 499.652344 721.503906 510 L 838.324219 510 " fill-opacity="1" fill-rule="nonzero"/><path fill="#fef3d9" d="M 735.847656 445.757812 C 735.847656 454.210938 728.097656 461.058594 718.554688 461.058594 C 708.992188 461.058594 701.246094 454.210938 701.246094 445.757812 L 701.246094 420.222656 C 701.246094 411.78125 708.992188 404.929688 718.554688 404.929688 C 728.097656 404.929688 735.847656 411.78125 735.847656 420.222656 L 735.847656 445.757812 M 715.84375 392.722656 C 702.136719 392.722656 691.011719 402.5625 691.011719 414.683594 L 691.011719 451.296875 C 691.011719 463.425781 702.136719 473.257812 715.84375 473.257812 C 729.542969 473.257812 740.65625 463.425781 740.65625 451.296875 L 740.65625 414.683594 C 740.65625 402.5625 729.542969 392.722656 715.84375 392.722656 " fill-opacity="1" fill-rule="nonzero"/><path fill="#f3b527" d="M 827.363281 377.105469 L 827.363281 496.484375 C 780.34375 522.425781 733.332031 496.484375 733.332031 496.484375 L 733.332031 377.105469 C 733.332031 377.105469 780.34375 384.207031 827.363281 377.105469 " fill-opacity="1" fill-rule="nonzero"/><path fill="#ee9824" d="M 785.234375 497.746094 C 760.992188 497.746094 743.257812 492.296875 733.332031 488.175781 L 733.332031 496.484375 L 733.332031 444.605469 C 745.863281 461.402344 771.671875 486.679688 813.464844 486.679688 C 817.910156 486.679688 822.546875 486.398438 827.363281 485.78125 L 827.363281 492.558594 C 811.734375 496.324219 797.636719 497.746094 785.234375 497.746094 " fill-opacity="1" fill-rule="nonzero"/><path fill="#f0a27d" d="M 782.09375 508.015625 C 796.019531 508.015625 811.695312 505.128906 827.363281 496.484375 L 827.363281 492.558594 L 827.363281 496.484375 C 811.695312 505.128906 796.027344 508.015625 782.09375 508.015625 " fill-opacity="1" fill-rule="nonzero"/><path fill="#eb8223" d="M 782.085938 508.015625 C 754.472656 508.015625 733.695312 496.695312 733.34375 496.496094 C 733.332031 496.484375 733.332031 496.484375 733.332031 496.484375 L 733.332031 488.175781 C 743.257812 492.296875 760.992188 497.746094 785.234375 497.746094 C 797.636719 497.746094 811.734375 496.324219 827.363281 492.558594 L 827.363281 496.484375 C 811.695312 505.128906 796.019531 508.015625 782.09375 508.015625 C 782.09375 508.015625 782.09375 508.015625 782.085938 508.015625 " fill-opacity="1" fill-rule="nonzero"/><path fill="#fef3d9" d="M 756.011719 396.46875 C 756.011719 398.726562 754.179688 400.570312 751.902344 400.570312 C 749.644531 400.570312 747.804688 398.726562 747.804688 396.46875 C 747.804688 394.203125 749.644531 392.371094 751.902344 392.371094 C 754.179688 392.371094 756.011719 394.203125 756.011719 396.46875 " fill-opacity="1" fill-rule="nonzero"/><path fill="#fef3d9" d="M 804.195312 426.375 C 804.195312 428.640625 802.351562 430.480469 800.085938 430.480469 C 797.816406 430.480469 795.992188 428.640625 795.992188 426.375 C 795.992188 424.105469 797.816406 422.273438 800.085938 422.273438 C 802.351562 422.273438 804.195312 424.105469 804.195312 426.375 " fill-opacity="1" fill-rule="nonzero"/><path fill="#fef3d9" d="M 788.554688 448.085938 C 788.554688 450.363281 786.710938 452.1875 784.453125 452.1875 C 782.183594 452.1875 780.34375 450.363281 780.34375 448.085938 C 780.34375 445.828125 782.183594 443.988281 784.453125 443.988281 C 786.710938 443.988281 788.554688 445.828125 788.554688 448.085938 " fill-opacity="1" fill-rule="nonzero"/><path fill="#fef3d9" d="M 768.167969 463.976562 C 768.167969 466.238281 766.328125 468.078125 764.058594 468.078125 C 761.800781 468.078125 759.960938 466.238281 759.960938 463.976562 C 759.960938 461.710938 761.800781 459.871094 764.058594 459.871094 C 766.328125 459.871094 768.167969 461.710938 768.167969 463.976562 " fill-opacity="1" fill-rule="nonzero"/><path fill="#fef3d9" d="M 811.0625 478.4375 C 811.0625 480.695312 809.21875 482.542969 806.953125 482.542969 C 804.691406 482.542969 802.851562 480.695312 802.851562 478.4375 C 802.851562 476.167969 804.691406 474.335938 806.953125 474.335938 C 809.21875 474.335938 811.0625 476.167969 811.0625 478.4375 " fill-opacity="1" fill-rule="nonzero"/><path fill="#fef3d9" d="M 792.664062 395.335938 C 792.664062 397.59375 790.820312 399.433594 788.554688 399.433594 C 786.296875 399.433594 784.453125 397.59375 784.453125 395.335938 C 784.453125 393.066406 786.296875 391.226562 788.554688 391.226562 C 790.820312 391.226562 792.664062 393.066406 792.664062 395.335938 " fill-opacity="1" fill-rule="nonzero"/><path fill="#fef3d9" d="M 762.617188 430.480469 C 762.617188 431.859375 761.5 432.996094 760.113281 432.996094 C 758.726562 432.996094 757.589844 431.859375 757.589844 430.480469 C 757.589844 429.09375 758.726562 427.960938 760.113281 427.960938 C 761.5 427.960938 762.617188 429.09375 762.617188 430.480469 " fill-opacity="1" fill-rule="nonzero"/><path fill="#fef3d9" d="M 817.828125 457.347656 C 817.828125 458.746094 816.703125 459.871094 815.316406 459.871094 C 813.917969 459.871094 812.804688 458.746094 812.804688 457.347656 C 812.804688 455.960938 813.917969 454.835938 815.316406 454.835938 C 816.703125 454.835938 817.828125 455.960938 817.828125 457.347656 " fill-opacity="1" fill-rule="nonzero"/><path fill="#fef3d9" d="M 776.789062 470.589844 C 776.789062 471.976562 775.664062 473.101562 774.273438 473.101562 C 772.886719 473.101562 771.761719 471.976562 771.761719 470.589844 C 771.761719 469.203125 772.886719 468.078125 774.273438 468.078125 C 775.664062 468.078125 776.789062 469.203125 776.789062 470.589844 " fill-opacity="1" fill-rule="nonzero"/><path fill="#fef3d9" d="M 762.617188 485.046875 C 762.617188 486.4375 761.5 487.5625 760.113281 487.5625 C 758.726562 487.5625 757.589844 486.4375 757.589844 485.046875 C 757.589844 483.660156 758.726562 482.542969 760.113281 482.542969 C 761.5 482.542969 762.617188 483.660156 762.617188 485.046875 " fill-opacity="1" fill-rule="nonzero"/><path fill="#fef3d9" d="M 743.167969 462.382812 C 743.167969 463.769531 742.042969 464.902344 740.65625 464.902344 C 739.265625 464.902344 738.132812 463.769531 738.132812 462.382812 C 738.132812 460.992188 739.265625 459.871094 740.65625 459.871094 C 742.042969 459.871094 743.167969 460.992188 743.167969 462.382812 " fill-opacity="1" fill-rule="nonzero"/><path fill="#fef3d9" d="M 765.140625 405.332031 C 765.140625 406.726562 764.023438 407.84375 762.617188 407.84375 C 761.238281 407.84375 760.113281 406.726562 760.113281 405.332031 C 760.113281 403.941406 761.238281 402.816406 762.617188 402.816406 C 764.023438 402.816406 765.140625 403.941406 765.140625 405.332031 " fill-opacity="1" fill-rule="nonzero"/><path fill="#fef3d9" d="M 813.574219 435.507812 C 813.574219 436.894531 812.449219 438.019531 811.0625 438.019531 C 809.664062 438.019531 808.546875 436.894531 808.546875 435.507812 C 808.546875 434.109375 809.664062 432.996094 811.0625 432.996094 C 812.449219 432.996094 813.574219 434.109375 813.574219 435.507812 " fill-opacity="1" fill-rule="nonzero"/><path fill="#fef3d9" d="M 809.464844 402.816406 C 809.464844 404.207031 808.347656 405.332031 806.953125 405.332031 C 805.5625 405.332031 804.4375 404.207031 804.4375 402.816406 C 804.4375 401.429688 805.5625 400.304688 806.953125 400.304688 C 808.347656 400.304688 809.464844 401.429688 809.464844 402.816406 " fill-opacity="1" fill-rule="nonzero"/><path fill="#fef3d9" d="M 746.878906 430.480469 C 746.878906 431.859375 745.753906 432.996094 744.363281 432.996094 C 742.976562 432.996094 741.84375 431.859375 741.84375 430.480469 C 741.84375 429.09375 742.976562 427.960938 744.363281 427.960938 C 745.753906 427.960938 746.878906 429.09375 746.878906 430.480469 " fill-opacity="1" fill-rule="nonzero"/><path fill="#ffffff" d="M 803.195312 334.582031 C 803.195312 350.121094 790.59375 362.726562 775.054688 362.726562 C 759.503906 362.726562 746.914062 350.121094 746.914062 334.582031 C 746.914062 319.046875 759.503906 306.449219 775.054688 306.449219 C 790.59375 306.449219 803.195312 319.046875 803.195312 334.582031 " fill-opacity="1" fill-rule="nonzero"/><path fill="#ffffff" d="M 826.691406 343.300781 C 826.691406 352.453125 819.269531 359.871094 810.117188 359.871094 C 800.964844 359.871094 793.550781 352.453125 793.550781 343.300781 C 793.550781 334.15625 800.964844 326.730469 810.117188 326.730469 C 819.269531 326.730469 826.691406 334.15625 826.691406 343.300781 " fill-opacity="1" fill-rule="nonzero"/><path fill="#ffffff" d="M 849.835938 353.578125 C 849.835938 362.890625 842.277344 370.445312 832.96875 370.445312 C 823.671875 370.445312 816.125 362.890625 816.125 353.578125 C 816.125 344.28125 823.671875 336.722656 832.96875 336.722656 C 842.277344 336.722656 849.835938 344.28125 849.835938 353.578125 " fill-opacity="1" fill-rule="nonzero"/><path fill="#ffffff" d="M 837.496094 366.4375 C 837.496094 375.90625 829.804688 383.582031 820.34375 383.582031 C 810.871094 383.582031 803.195312 375.90625 803.195312 366.4375 C 803.195312 356.96875 810.871094 349.304688 820.34375 349.304688 C 829.804688 349.304688 837.496094 356.96875 837.496094 366.4375 " fill-opacity="1" fill-rule="nonzero"/><path fill="#ffffff" d="M 810.117188 362.148438 C 810.117188 375.246094 799.496094 385.875 786.402344 385.875 C 773.296875 385.875 762.691406 375.246094 762.691406 362.148438 C 762.691406 349.058594 773.296875 338.4375 786.402344 338.4375 C 799.496094 338.4375 810.117188 349.058594 810.117188 362.148438 " fill-opacity="1" fill-rule="nonzero"/><path fill="#ffffff" d="M 785.996094 349.304688 C 785.996094 369.414062 769.675781 385.722656 749.5625 385.722656 C 729.433594 385.722656 713.128906 369.414062 713.128906 349.304688 C 713.128906 329.1875 729.433594 312.878906 749.5625 312.878906 C 769.675781 312.878906 785.996094 329.1875 785.996094 349.304688 " fill-opacity="1" fill-rule="nonzero"/><path fill="#ffffff" d="M 745.796875 398.972656 C 745.796875 414.109375 740.71875 426.375 734.449219 426.375 C 728.179688 426.375 723.101562 414.109375 723.101562 398.972656 C 723.101562 383.835938 728.179688 371.5625 734.449219 371.5625 C 740.71875 371.5625 745.796875 383.835938 745.796875 398.972656 " fill-opacity="1" fill-rule="nonzero"/><path fill="#ffffff" d="M 752.265625 384.886719 C 752.265625 389.078125 749.019531 392.46875 745.007812 392.46875 C 741.007812 392.46875 737.75 389.078125 737.75 384.886719 C 737.75 380.695312 741.007812 377.292969 745.007812 377.292969 C 749.019531 377.292969 752.265625 380.695312 752.265625 384.886719 " fill-opacity="1" fill-rule="nonzero"/><path fill="#ffffff" d="M 731.375 380.605469 C 731.375 385.59375 728.082031 389.640625 724.015625 389.640625 C 719.960938 389.640625 716.667969 385.59375 716.667969 380.605469 C 716.667969 375.609375 719.960938 371.5625 724.015625 371.5625 C 728.082031 371.5625 731.375 375.609375 731.375 380.605469 " fill-opacity="1" fill-rule="nonzero"/><path fill="#ffffff" d="M 738.140625 395.570312 C 738.140625 401.46875 733.988281 406.265625 728.859375 406.265625 C 723.726562 406.265625 719.570312 401.46875 719.570312 395.570312 C 719.570312 389.675781 723.726562 384.886719 728.859375 384.886719 C 733.988281 384.886719 738.140625 389.675781 738.140625 395.570312 " fill-opacity="1" fill-rule="nonzero"/><path fill="#fabf90" d="M 680.609375 437.609375 C 688.226562 438.121094 694.96875 430.074219 695.667969 419.644531 C 696.375 409.222656 690.75 400.34375 683.136719 399.835938 C 675.519531 399.328125 668.769531 407.371094 668.070312 417.800781 C 667.371094 428.234375 672.988281 437.101562 680.609375 437.609375 " fill-opacity="1" fill-rule="nonzero"/><path fill="#fabf90" d="M 691.011719 422.273438 C 691.011719 433.65625 697.191406 442.890625 704.785156 442.890625 C 712.386719 442.890625 718.554688 433.65625 718.554688 422.273438 C 718.554688 410.890625 712.386719 401.65625 704.785156 401.65625 C 697.191406 401.65625 691.011719 410.890625 691.011719 422.273438 " fill-opacity="1" fill-rule="nonzero"/><path fill="#dbd8d5" d="M 338.46875 517.4375 C 338.46875 517.4375 338.015625 478.34375 353.730469 456.53125 C 353.730469 456.53125 294.660156 436.296875 299.035156 505.492188 C 299.035156 505.492188 298.933594 535.34375 309.949219 551.886719 L 332.582031 555.042969 L 338.46875 517.4375 " fill-opacity="1" fill-rule="nonzero"/><g clip-path="url(#bf1b55f318)"><path fill="#bebab8" d="M 445.917969 739.890625 C 502.234375 656.910156 516.921875 590.933594 516.523438 544.085938 L 323.9375 544.085938 C 321.867188 635.421875 386.515625 731.128906 392.574219 739.890625 L 445.917969 739.890625 " fill-opacity="1" fill-rule="nonzero"/><path fill="#3f90bf" d="M 447.851562 739.890625 C 453.917969 731.128906 518.566406 635.421875 516.488281 544.085938 L 470.410156 544.085938 C 463.609375 566.632812 445.210938 620.980469 420.207031 642.351562 C 395.214844 620.980469 376.808594 566.632812 370.003906 544.085938 L 323.9375 544.085938 C 321.867188 635.421875 386.515625 731.128906 392.574219 739.890625 L 447.851562 739.890625 " fill-opacity="1" fill-rule="nonzero"/></g><path fill="#f9a72b" d="M 475.566406 565.898438 L 463.234375 565.898438 C 454.019531 591.714844 438.976562 626.316406 420.207031 642.351562 C 401.457031 626.316406 386.40625 591.714844 377.199219 565.898438 L 352.394531 565.898438 C 352.394531 565.898438 387.722656 638.296875 420.207031 666.503906 C 420.207031 666.503906 461.441406 633.917969 475.566406 565.898438 " fill-opacity="1" fill-rule="nonzero"/><path fill="#fabf90" d="M 402.972656 456.53125 L 444.457031 456.53125 L 444.457031 411.40625 L 402.972656 411.40625 Z M 402.972656 456.53125 " fill-opacity="1" fill-rule="nonzero"/><path fill="#f1af80" d="M 444.457031 456.53125 L 402.972656 456.53125 L 402.972656 422.09375 C 403.46875 422.238281 403.976562 422.375 404.476562 422.507812 C 404.476562 422.507812 411.5625 426.292969 422.902344 426.292969 C 428.390625 426.292969 434.867188 425.402344 442.027344 422.78125 C 442.0625 422.773438 442.105469 422.753906 442.132812 422.746094 C 442.152344 422.746094 442.171875 422.734375 442.1875 422.734375 C 442.214844 422.726562 442.214844 422.726562 442.242188 422.71875 C 442.269531 422.71875 442.289062 422.710938 442.316406 422.699219 C 442.335938 422.699219 442.335938 422.699219 442.34375 422.691406 C 442.371094 422.691406 442.398438 422.683594 442.425781 422.671875 L 442.441406 422.671875 C 443.113281 422.492188 443.792969 422.300781 444.457031 422.121094 L 444.457031 456.53125 " fill-opacity="1" fill-rule="nonzero"/><path fill="#51baec" d="M 510.019531 263.601562 C 510.019531 263.601562 534.613281 225.144531 557.566406 217.84375 C 557.566406 217.84375 567.980469 224.445312 570.875 236.671875 C 570.875 236.671875 525.324219 247.792969 510.019531 263.601562 " fill-opacity="1" fill-rule="nonzero"/><path fill="#51baec" d="M 510.5625 267.011719 C 510.5625 267.011719 508.957031 221.398438 523.710938 202.339844 C 523.710938 202.339844 536.019531 201.871094 545.355469 210.285156 C 545.355469 210.285156 514.175781 245.316406 510.5625 267.011719 " fill-opacity="1" fill-rule="nonzero"/><path fill="#51baec" d="M 335.148438 263.183594 C 335.148438 263.183594 310.554688 224.71875 287.585938 217.414062 C 287.585938 217.414062 277.1875 224.027344 274.285156 236.246094 C 274.285156 236.246094 319.84375 247.375 335.148438 263.183594 " fill-opacity="1" fill-rule="nonzero"/><path fill="#51baec" d="M 334.605469 266.59375 C 334.605469 266.59375 336.210938 220.980469 321.449219 201.921875 C 321.449219 201.921875 309.148438 201.453125 299.804688 209.859375 C 299.804688 209.859375 330.984375 244.890625 334.605469 266.59375 " fill-opacity="1" fill-rule="nonzero"/><path fill="#f46b28" d="M 343.125 281.851562 C 343.125 299.417969 328.253906 313.648438 309.929688 313.648438 C 291.59375 313.648438 276.734375 299.417969 276.734375 281.851562 C 276.734375 264.289062 291.59375 250.058594 309.929688 250.058594 C 328.253906 250.058594 343.125 264.289062 343.125 281.851562 " fill-opacity="1" fill-rule="nonzero"/><path fill="#db6022" d="M 276.871094 284.453125 C 278.261719 300.796875 292.511719 313.648438 309.929688 313.648438 C 327.65625 313.648438 342.097656 300.324219 343.023438 283.554688 C 312.386719 295.4375 286.949219 288.371094 276.871094 284.453125 " fill-opacity="1" fill-rule="nonzero"/><path fill="#f46b28" d="M 566.039062 281.851562 C 566.039062 299.417969 551.179688 313.648438 532.84375 313.648438 C 514.519531 313.648438 499.652344 299.417969 499.652344 281.851562 C 499.652344 264.289062 514.519531 250.058594 532.84375 250.058594 C 551.179688 250.058594 566.039062 264.289062 566.039062 281.851562 " fill-opacity="1" fill-rule="nonzero"/><path fill="#db6022" d="M 510.019531 280.824219 L 499.667969 282.078125 C 499.785156 299.535156 514.59375 313.648438 532.84375 313.648438 C 545.5 313.648438 556.496094 306.867188 562.101562 296.878906 C 535.222656 305.703125 510.019531 280.824219 510.019531 280.824219 " fill-opacity="1" fill-rule="nonzero"/><path fill="#fabf90" d="M 508.03125 312.941406 C 505.113281 324.433594 511.226562 335.917969 521.722656 338.59375 C 532.191406 341.257812 543.078125 334.113281 546 322.628906 C 548.9375 311.136719 542.824219 299.65625 532.328125 296.980469 C 521.859375 294.3125 510.980469 301.460938 508.03125 312.941406 " fill-opacity="1" fill-rule="nonzero"/><path fill="#eda97b" d="M 526.167969 339.144531 C 524.699219 339.144531 523.199219 338.964844 521.722656 338.59375 C 519.574219 338.039062 517.613281 337.125 515.871094 335.917969 C 516.179688 333.566406 516.433594 331.21875 516.652344 328.851562 C 516.851562 329.042969 517.050781 329.222656 517.25 329.414062 C 517.550781 329.695312 517.847656 329.976562 518.140625 330.25 C 518.472656 330.457031 518.808594 330.664062 519.136719 330.863281 C 520.378906 331.789062 521.757812 332.117188 522.917969 332.507812 C 524.171875 332.769531 525.167969 332.75 526.039062 332.859375 C 527.773438 332.632812 528.761719 332.496094 528.761719 332.496094 C 528.761719 332.496094 527.792969 332.515625 526.085938 332.542969 C 525.261719 332.363281 524.152344 332.253906 523.09375 331.90625 C 522.023438 331.425781 520.769531 331.011719 519.652344 330.09375 C 519.363281 329.894531 519.0625 329.6875 518.753906 329.476562 C 518.511719 329.203125 518.257812 328.933594 517.984375 328.652344 C 517.585938 328.214844 517.132812 327.789062 516.777344 327.273438 C 516.8125 326.828125 516.851562 326.382812 516.878906 325.941406 C 517.429688 326.113281 518.011719 326.203125 518.621094 326.203125 C 520.34375 326.203125 521.902344 325.441406 523.011719 324.234375 C 524.117188 323.027344 524.796875 321.367188 524.796875 319.554688 C 524.796875 317.742188 524.117188 316.082031 523.011719 314.875 C 521.902344 313.667969 520.34375 312.898438 518.621094 312.898438 L 518.609375 312.898438 C 518.183594 312.898438 517.765625 312.941406 517.367188 313.03125 C 517.367188 312.007812 517.367188 310.972656 517.359375 309.941406 C 517.757812 309.929688 518.300781 309.859375 518.9375 309.859375 C 519.117188 309.859375 519.308594 309.867188 519.507812 309.886719 C 519.960938 309.902344 520.453125 309.921875 520.96875 309.941406 C 521.476562 310.011719 522.023438 310.085938 522.574219 310.167969 C 523.136719 310.230469 523.691406 310.421875 524.273438 310.546875 C 524.851562 310.675781 525.394531 310.9375 525.96875 311.128906 C 527.074219 311.609375 528.144531 312.1875 529.042969 312.90625 C 529.96875 313.585938 530.695312 314.382812 531.273438 315.109375 C 532.4375 316.578125 532.855469 317.785156 532.855469 317.785156 C 532.855469 317.785156 532.589844 316.535156 531.601562 314.890625 C 531.09375 314.085938 530.441406 313.152344 529.558594 312.316406 C 528.707031 311.445312 527.644531 310.683594 526.511719 310.023438 C 525.921875 309.742188 525.359375 309.386719 524.753906 309.167969 C 524.152344 308.953125 523.574219 308.671875 522.972656 308.523438 C 522.375 308.363281 521.804688 308.207031 521.257812 308.0625 C 520.695312 307.972656 520.179688 307.882812 519.691406 307.808594 C 519.238281 307.71875 518.820312 307.671875 518.449219 307.644531 C 518.636719 307.445312 518.835938 307.246094 519.054688 307.082031 C 520.414062 305.859375 521.976562 304.878906 523.628906 304.308594 C 525.132812 303.789062 526.53125 303.535156 527.992188 303.535156 C 528.171875 303.535156 528.355469 303.535156 528.535156 303.546875 C 529.332031 303.65625 530.277344 303.691406 530.894531 303.863281 C 531.636719 304.054688 532.335938 304.28125 532.980469 304.597656 C 534.269531 305.1875 535.367188 305.941406 536.238281 306.71875 C 537.117188 307.492188 537.789062 308.296875 538.269531 308.988281 C 538.769531 309.675781 539.121094 310.257812 539.320312 310.675781 C 539.546875 311.074219 539.65625 311.292969 539.65625 311.292969 C 539.65625 311.292969 539.566406 311.066406 539.402344 310.636719 C 539.25 310.195312 538.996094 309.578125 538.542969 308.816406 C 538.105469 308.0625 537.507812 307.183594 536.664062 306.285156 C 535.839844 305.378906 534.75 304.472656 533.390625 303.773438 C 532.71875 303.390625 531.984375 303.101562 531.183594 302.839844 C 530.285156 302.566406 529.558594 302.53125 528.699219 302.355469 C 528.253906 302.3125 527.773438 302.285156 527.285156 302.285156 C 525.933594 302.285156 524.472656 302.484375 523.164062 302.957031 C 521.3125 303.5625 519.5625 304.605469 518.03125 305.941406 C 517.765625 306.140625 517.523438 306.355469 517.296875 306.601562 C 517.242188 304.363281 517.148438 302.113281 517.03125 299.871094 C 520.261719 297.667969 524.015625 296.417969 527.890625 296.417969 C 529.359375 296.417969 530.847656 296.597656 532.328125 296.980469 C 541.035156 299.199219 546.734375 307.492188 546.734375 316.816406 C 546.734375 318.71875 546.496094 320.671875 546 322.628906 C 543.496094 332.488281 535.113281 339.144531 526.167969 339.144531 M 518.621094 324.550781 C 518.046875 324.550781 517.503906 324.433594 516.996094 324.226562 C 517.195312 321.078125 517.304688 317.914062 517.351562 314.746094 C 517.75 314.609375 518.175781 314.546875 518.621094 314.546875 C 519.855469 314.546875 520.96875 315.082031 521.792969 315.988281 C 522.628906 316.886719 523.148438 318.148438 523.148438 319.554688 C 523.148438 320.960938 522.628906 322.210938 521.792969 323.117188 C 520.96875 324.015625 519.855469 324.550781 518.621094 324.550781 " fill-opacity="1" fill-rule="nonzero"/><path fill="#ac7657" d="M 532.855469 317.785156 C 532.855469 317.785156 532.4375 316.578125 531.273438 315.109375 C 530.695312 314.382812 529.96875 313.585938 529.042969 312.90625 C 528.144531 312.1875 527.074219 311.609375 525.96875 311.128906 C 525.394531 310.9375 524.851562 310.675781 524.273438 310.546875 C 523.691406 310.421875 523.136719 310.230469 522.574219 310.167969 C 522.023438 310.085938 521.476562 310.011719 520.96875 309.941406 C 520.453125 309.921875 519.960938 309.902344 519.507812 309.886719 C 519.308594 309.867188 519.117188 309.859375 518.9375 309.859375 C 518.300781 309.859375 517.757812 309.929688 517.359375 309.941406 C 517.351562 309.613281 517.351562 309.296875 517.339844 308.96875 C 517.722656 308.542969 518.058594 308.070312 518.449219 307.644531 C 518.820312 307.671875 519.238281 307.71875 519.691406 307.808594 C 520.179688 307.882812 520.695312 307.972656 521.257812 308.0625 C 521.804688 308.207031 522.375 308.363281 522.972656 308.523438 C 523.574219 308.671875 524.152344 308.953125 524.753906 309.167969 C 525.359375 309.386719 525.921875 309.742188 526.511719 310.023438 C 527.644531 310.683594 528.707031 311.445312 529.558594 312.316406 C 530.441406 313.152344 531.09375 314.085938 531.601562 314.890625 C 532.589844 316.535156 532.855469 317.785156 532.855469 317.785156 " fill-opacity="1" fill-rule="nonzero"/><path fill="#ac7657" d="M 518.621094 326.203125 C 518.011719 326.203125 517.429688 326.113281 516.878906 325.941406 C 516.921875 325.378906 516.960938 324.789062 516.996094 324.226562 C 517.503906 324.433594 518.046875 324.550781 518.621094 324.550781 C 519.855469 324.550781 520.96875 324.015625 521.792969 323.117188 C 522.628906 322.210938 523.148438 320.960938 523.148438 319.554688 C 523.148438 318.148438 522.628906 316.886719 521.792969 315.988281 C 520.96875 315.082031 519.855469 314.546875 518.621094 314.546875 C 518.175781 314.546875 517.75 314.609375 517.351562 314.746094 C 517.359375 314.175781 517.359375 313.605469 517.367188 313.03125 C 517.765625 312.941406 518.183594 312.898438 518.609375 312.898438 L 518.621094 312.898438 C 520.34375 312.898438 521.902344 313.667969 523.011719 314.875 C 524.117188 316.082031 524.796875 317.742188 524.796875 319.554688 C 524.796875 321.367188 524.117188 323.027344 523.011719 324.234375 C 521.902344 325.441406 520.34375 326.203125 518.621094 326.203125 " fill-opacity="1" fill-rule="nonzero"/><path fill="#ac7657" d="M 526.039062 332.859375 C 525.167969 332.75 524.171875 332.769531 522.917969 332.507812 C 521.757812 332.117188 520.378906 331.789062 519.136719 330.863281 C 518.808594 330.664062 518.472656 330.457031 518.140625 330.25 C 517.847656 329.976562 517.550781 329.695312 517.25 329.414062 C 517.050781 329.222656 516.851562 329.042969 516.652344 328.851562 C 516.695312 328.324219 516.742188 327.789062 516.777344 327.273438 C 517.132812 327.789062 517.585938 328.214844 517.984375 328.652344 C 518.257812 328.933594 518.511719 329.203125 518.753906 329.476562 C 519.0625 329.6875 519.363281 329.894531 519.652344 330.09375 C 520.769531 331.011719 522.023438 331.425781 523.09375 331.90625 C 524.152344 332.253906 525.261719 332.363281 526.085938 332.542969 C 527.792969 332.515625 528.761719 332.496094 528.761719 332.496094 C 528.761719 332.496094 527.773438 332.632812 526.039062 332.859375 M 539.65625 311.292969 C 539.65625 311.292969 539.546875 311.074219 539.320312 310.675781 C 539.121094 310.257812 538.769531 309.675781 538.269531 308.988281 C 537.789062 308.296875 537.117188 307.492188 536.238281 306.71875 C 535.367188 305.941406 534.269531 305.1875 532.980469 304.597656 C 532.335938 304.28125 531.636719 304.054688 530.894531 303.863281 C 530.277344 303.691406 529.332031 303.65625 528.535156 303.546875 C 528.355469 303.535156 528.171875 303.535156 527.992188 303.535156 C 526.53125 303.535156 525.132812 303.789062 523.628906 304.308594 C 521.976562 304.878906 520.414062 305.859375 519.054688 307.082031 C 518.835938 307.246094 518.636719 307.445312 518.449219 307.644531 C 518.058594 308.070312 517.722656 308.542969 517.339844 308.96875 C 517.332031 308.179688 517.3125 307.390625 517.296875 306.601562 C 517.523438 306.355469 517.765625 306.140625 518.03125 305.941406 C 519.5625 304.605469 521.3125 303.5625 523.164062 302.957031 C 524.472656 302.484375 525.933594 302.285156 527.285156 302.285156 C 527.773438 302.285156 528.253906 302.3125 528.699219 302.355469 C 529.558594 302.53125 530.285156 302.566406 531.183594 302.839844 C 531.984375 303.101562 532.71875 303.390625 533.390625 303.773438 C 534.75 304.472656 535.839844 305.378906 536.664062 306.285156 C 537.507812 307.183594 538.105469 308.0625 538.542969 308.816406 C 538.996094 309.578125 539.25 310.195312 539.402344 310.636719 C 539.566406 311.066406 539.65625 311.292969 539.65625 311.292969 " fill-opacity="1" fill-rule="nonzero"/><path fill="#fabf90" d="M 337.734375 312.941406 C 340.664062 324.433594 334.542969 335.917969 324.054688 338.59375 C 313.585938 341.257812 302.699219 334.113281 299.769531 322.628906 C 296.847656 311.136719 302.960938 299.65625 313.449219 296.980469 C 323.929688 294.3125 334.804688 301.460938 337.734375 312.941406 " fill-opacity="1" fill-rule="nonzero"/><path fill="#eda97b" d="M 319.601562 339.144531 C 310.65625 339.144531 302.28125 332.488281 299.769531 322.628906 C 299.28125 320.671875 299.042969 318.71875 299.042969 316.816406 C 299.050781 307.492188 304.742188 299.199219 313.449219 296.980469 C 314.929688 296.597656 316.417969 296.417969 317.894531 296.417969 C 322.375 296.417969 326.722656 298.09375 330.261719 301.007812 C 330.125 303.445312 330.023438 305.875 329.960938 308.316406 C 329.925781 308.269531 329.878906 308.226562 329.84375 308.171875 C 329.671875 307.988281 329.507812 307.808594 329.351562 307.617188 L 329.351562 307.507812 C 329.351562 307.507812 329.324219 307.519531 329.269531 307.519531 C 328.789062 306.957031 328.328125 306.375 327.738281 305.941406 C 326.203125 304.605469 324.453125 303.5625 322.613281 302.964844 C 321.296875 302.484375 319.84375 302.285156 318.492188 302.285156 C 318.003906 302.285156 317.523438 302.3125 317.078125 302.355469 C 316.214844 302.53125 315.480469 302.566406 314.582031 302.839844 C 313.792969 303.101562 313.050781 303.390625 312.378906 303.773438 C 311.019531 304.472656 309.9375 305.378906 309.105469 306.285156 C 308.269531 307.183594 307.671875 308.0625 307.226562 308.816406 C 306.78125 309.578125 306.527344 310.195312 306.375 310.636719 C 306.203125 311.066406 306.121094 311.292969 306.121094 311.292969 C 306.121094 311.292969 306.238281 311.074219 306.457031 310.675781 C 306.65625 310.257812 307.019531 309.675781 307.507812 308.988281 C 307.988281 308.296875 308.660156 307.492188 309.539062 306.71875 C 310.410156 305.941406 311.5 305.1875 312.796875 304.597656 C 313.429688 304.28125 314.128906 304.054688 314.875 303.855469 C 315.492188 303.691406 316.433594 303.65625 317.242188 303.546875 C 317.414062 303.535156 317.59375 303.535156 317.769531 303.535156 C 319.238281 303.535156 320.644531 303.789062 322.140625 304.308594 C 323.792969 304.878906 325.351562 305.859375 326.722656 307.082031 C 326.941406 307.246094 327.140625 307.445312 327.328125 307.644531 C 326.957031 307.671875 326.539062 307.71875 326.085938 307.808594 C 325.605469 307.882812 325.078125 307.972656 324.527344 308.0625 C 323.972656 308.207031 323.402344 308.363281 322.804688 308.523438 C 322.214844 308.671875 321.625 308.953125 321.023438 309.167969 C 320.417969 309.386719 319.84375 309.742188 319.265625 310.023438 C 318.140625 310.683594 317.078125 311.445312 316.226562 312.316406 C 315.347656 313.152344 314.683594 314.085938 314.183594 314.890625 C 313.195312 316.535156 312.933594 317.785156 312.933594 317.785156 C 312.933594 317.785156 313.339844 316.578125 314.503906 315.109375 C 315.082031 314.394531 315.816406 313.585938 316.734375 312.90625 C 317.632812 312.1875 318.710938 311.609375 319.808594 311.128906 C 320.390625 310.9375 320.933594 310.683594 321.515625 310.546875 C 322.09375 310.421875 322.640625 310.230469 323.203125 310.167969 C 323.765625 310.085938 324.300781 310.011719 324.816406 309.941406 C 325.324219 309.921875 325.816406 309.902344 326.269531 309.886719 C 326.46875 309.867188 326.660156 309.859375 326.839844 309.859375 C 327.484375 309.859375 328.039062 309.941406 328.445312 309.941406 C 328.78125 309.957031 329.015625 309.96875 329.152344 309.976562 C 329.417969 310.421875 329.644531 310.890625 329.90625 311.335938 C 329.90625 312.089844 329.898438 312.832031 329.898438 313.585938 C 329.082031 313.152344 328.144531 312.898438 327.15625 312.898438 C 325.433594 312.898438 323.875 313.667969 322.765625 314.875 C 321.652344 316.082031 320.980469 317.742188 320.980469 319.554688 C 320.980469 321.367188 321.652344 323.027344 322.765625 324.234375 C 323.875 325.441406 325.433594 326.203125 327.15625 326.203125 C 327.167969 326.203125 327.167969 326.203125 327.167969 326.203125 C 328.226562 326.203125 329.226562 325.914062 330.097656 325.40625 C 329.851562 325.902344 329.570312 326.382812 329.261719 326.828125 C 328.890625 327.5625 328.300781 328.097656 327.785156 328.652344 C 327.519531 328.933594 327.265625 329.214844 327.011719 329.476562 C 326.703125 329.695312 326.40625 329.894531 326.113281 330.09375 C 325.007812 331.011719 323.753906 331.425781 322.683594 331.90625 C 321.625 332.253906 320.507812 332.363281 319.691406 332.542969 C 317.976562 332.515625 317.007812 332.496094 317.007812 332.496094 C 317.007812 332.496094 317.996094 332.632812 319.726562 332.859375 C 320.597656 332.75 321.605469 332.769531 322.847656 332.507812 C 324.007812 332.117188 325.398438 331.789062 326.640625 330.863281 C 326.96875 330.664062 327.292969 330.457031 327.636719 330.25 C 327.929688 329.976562 328.21875 329.695312 328.519531 329.414062 C 329.117188 328.84375 329.789062 328.289062 330.242188 327.519531 C 330.296875 327.445312 330.351562 327.382812 330.40625 327.300781 C 330.59375 329.867188 330.851562 332.425781 331.15625 334.964844 C 329.125 336.652344 326.730469 337.902344 324.054688 338.59375 C 322.574219 338.964844 321.078125 339.144531 319.601562 339.144531 M 327.15625 324.550781 C 325.921875 324.550781 324.808594 324.015625 323.980469 323.117188 C 323.148438 322.210938 322.628906 320.960938 322.628906 319.554688 C 322.628906 318.148438 323.148438 316.886719 323.980469 315.988281 C 324.808594 315.082031 325.921875 314.546875 327.15625 314.546875 C 328.191406 314.546875 329.144531 314.917969 329.914062 315.574219 C 329.941406 318.15625 330.023438 320.734375 330.152344 323.308594 C 329.351562 324.089844 328.308594 324.550781 327.15625 324.550781 " fill-opacity="1" fill-rule="nonzero"/><path fill="#ac7657" d="M 312.933594 317.785156 C 312.933594 317.785156 313.195312 316.535156 314.183594 314.890625 C 314.683594 314.085938 315.347656 313.152344 316.226562 312.316406 C 317.078125 311.445312 318.140625 310.683594 319.265625 310.023438 C 319.84375 309.742188 320.417969 309.386719 321.023438 309.167969 C 321.625 308.953125 322.214844 308.671875 322.804688 308.523438 C 323.402344 308.363281 323.972656 308.207031 324.527344 308.0625 C 325.078125 307.972656 325.605469 307.882812 326.085938 307.808594 C 326.539062 307.71875 326.957031 307.671875 327.328125 307.644531 C 327.765625 308.125 328.136719 308.660156 328.574219 309.132812 C 328.789062 309.394531 328.980469 309.6875 329.152344 309.976562 C 329.015625 309.96875 328.78125 309.957031 328.445312 309.941406 C 328.039062 309.941406 327.484375 309.859375 326.839844 309.859375 C 326.660156 309.859375 326.46875 309.867188 326.269531 309.886719 C 325.816406 309.902344 325.324219 309.921875 324.816406 309.941406 C 324.300781 310.011719 323.765625 310.085938 323.203125 310.167969 C 322.640625 310.230469 322.09375 310.421875 321.515625 310.546875 C 320.933594 310.683594 320.390625 310.9375 319.808594 311.128906 C 318.710938 311.609375 317.632812 312.1875 316.734375 312.90625 C 315.816406 313.585938 315.082031 314.394531 314.503906 315.109375 C 313.339844 316.578125 312.933594 317.785156 312.933594 317.785156 M 329.351562 307.617188 C 329.316406 307.582031 329.289062 307.554688 329.269531 307.519531 C 329.324219 307.519531 329.351562 307.507812 329.351562 307.507812 L 329.351562 307.617188 " fill-opacity="1" fill-rule="nonzero"/><path fill="#ac7657" d="M 327.167969 326.203125 C 327.167969 326.203125 327.167969 326.203125 327.15625 326.203125 C 325.433594 326.203125 323.875 325.441406 322.765625 324.234375 C 321.652344 323.027344 320.980469 321.367188 320.980469 319.554688 C 320.980469 317.742188 321.652344 316.082031 322.765625 314.875 C 323.875 313.667969 325.433594 312.898438 327.15625 312.898438 C 328.144531 312.898438 329.082031 313.152344 329.898438 313.585938 C 329.898438 314.25 329.90625 314.917969 329.914062 315.574219 C 329.144531 314.917969 328.191406 314.546875 327.15625 314.546875 C 325.921875 314.546875 324.808594 315.082031 323.980469 315.988281 C 323.148438 316.886719 322.628906 318.148438 322.628906 319.554688 C 322.628906 320.960938 323.148438 322.210938 323.980469 323.117188 C 324.808594 324.015625 325.921875 324.550781 327.15625 324.550781 C 328.308594 324.550781 329.351562 324.089844 330.152344 323.308594 C 330.1875 323.90625 330.222656 324.488281 330.25 325.078125 C 330.207031 325.1875 330.152344 325.296875 330.097656 325.40625 C 329.226562 325.914062 328.226562 326.203125 327.167969 326.203125 " fill-opacity="1" fill-rule="nonzero"/><path fill="#ac7657" d="M 319.726562 332.859375 C 317.996094 332.632812 317.007812 332.496094 317.007812 332.496094 C 317.007812 332.496094 317.976562 332.515625 319.691406 332.542969 C 320.507812 332.363281 321.625 332.253906 322.683594 331.90625 C 323.753906 331.425781 325.007812 331.011719 326.113281 330.09375 C 326.40625 329.894531 326.703125 329.695312 327.011719 329.476562 C 327.265625 329.214844 327.519531 328.933594 327.785156 328.652344 C 328.300781 328.097656 328.890625 327.5625 329.261719 326.828125 C 329.570312 326.382812 329.851562 325.902344 330.097656 325.40625 C 330.152344 325.296875 330.207031 325.1875 330.25 325.078125 C 330.296875 325.820312 330.351562 326.566406 330.40625 327.300781 C 330.351562 327.382812 330.296875 327.445312 330.242188 327.519531 C 329.789062 328.289062 329.117188 328.84375 328.519531 329.414062 C 328.21875 329.695312 327.929688 329.976562 327.636719 330.25 C 327.292969 330.457031 326.96875 330.664062 326.640625 330.863281 C 325.398438 331.789062 324.007812 332.117188 322.847656 332.507812 C 321.605469 332.769531 320.597656 332.75 319.726562 332.859375 M 329.90625 311.335938 C 329.644531 310.890625 329.417969 310.421875 329.152344 309.976562 C 328.980469 309.6875 328.789062 309.394531 328.574219 309.132812 C 328.136719 308.660156 327.765625 308.125 327.328125 307.644531 C 327.140625 307.445312 326.941406 307.246094 326.722656 307.082031 C 325.351562 305.859375 323.792969 304.878906 322.140625 304.308594 C 320.644531 303.789062 319.238281 303.535156 317.769531 303.535156 C 317.59375 303.535156 317.414062 303.535156 317.242188 303.546875 C 316.433594 303.65625 315.492188 303.691406 314.875 303.855469 C 314.128906 304.054688 313.429688 304.28125 312.796875 304.597656 C 311.5 305.1875 310.410156 305.941406 309.539062 306.71875 C 308.660156 307.492188 307.988281 308.296875 307.507812 308.988281 C 307.019531 309.675781 306.65625 310.257812 306.457031 310.675781 C 306.238281 311.074219 306.121094 311.292969 306.121094 311.292969 C 306.121094 311.292969 306.203125 311.066406 306.375 310.636719 C 306.527344 310.195312 306.78125 309.578125 307.226562 308.816406 C 307.671875 308.0625 308.269531 307.183594 309.105469 306.285156 C 309.9375 305.378906 311.019531 304.472656 312.378906 303.773438 C 313.050781 303.390625 313.792969 303.101562 314.582031 302.839844 C 315.480469 302.566406 316.214844 302.53125 317.078125 302.355469 C 317.523438 302.3125 318.003906 302.285156 318.492188 302.285156 C 319.84375 302.285156 321.296875 302.484375 322.613281 302.964844 C 324.453125 303.5625 326.203125 304.605469 327.738281 305.941406 C 328.328125 306.375 328.789062 306.957031 329.269531 307.519531 C 329.289062 307.554688 329.316406 307.582031 329.351562 307.617188 C 329.507812 307.808594 329.671875 307.988281 329.84375 308.171875 C 329.878906 308.226562 329.925781 308.269531 329.960938 308.316406 C 329.941406 309.324219 329.925781 310.328125 329.90625 311.335938 " fill-opacity="1" fill-rule="nonzero"/><path fill="#fabf90" d="M 442.027344 422.78125 C 578.292969 387.152344 488.082031 180.871094 488.082031 180.871094 C 451.707031 137.390625 424.460938 167.894531 424.460938 167.894531 C 424.445312 167.894531 422.277344 165.96875 418.382812 164.054688 C 407.988281 158.921875 385.328125 153.789062 358.84375 185.441406 C 358.84375 185.441406 269.625 386.191406 404.476562 422.507812 C 404.476562 422.507812 420.070312 430.835938 442.027344 422.78125 " fill-opacity="1" fill-rule="nonzero"/><path fill="#bf1b2c" d="M 408.1875 348.097656 C 408.1875 348.097656 427.210938 349.976562 437.21875 348.097656 C 437.21875 348.097656 437.21875 376.152344 422.601562 379.128906 C 422.601562 379.128906 408.1875 379.128906 408.1875 348.097656 " fill-opacity="1" fill-rule="nonzero"/><path fill="#f79081" d="M 361.175781 350.800781 C 347.125 350.800781 335.757812 339.417969 335.757812 325.378906 C 335.757812 311.335938 347.125 299.960938 361.175781 299.960938 C 375.21875 299.960938 386.597656 311.335938 386.597656 325.378906 C 386.597656 339.417969 375.21875 350.800781 361.175781 350.800781 " fill-opacity="1" fill-rule="nonzero"/><path fill="#f79081" d="M 484.589844 350.800781 C 470.558594 350.800781 459.171875 339.417969 459.171875 325.378906 C 459.171875 311.335938 470.558594 299.960938 484.589844 299.960938 C 498.632812 299.960938 510.019531 311.335938 510.019531 325.378906 C 510.019531 339.417969 498.632812 350.800781 484.589844 350.800781 " fill-opacity="1" fill-rule="nonzero"/><path fill="#db6022" d="M 368.152344 268.164062 C 368.152344 268.164062 383.59375 247.601562 409.09375 264.179688 C 409.09375 264.179688 384.121094 232.027344 368.152344 268.164062 " fill-opacity="1" fill-rule="nonzero"/><path fill="#db6022" d="M 479.636719 268.164062 C 479.636719 268.164062 463.835938 246.558594 438.707031 264.179688 C 438.707031 264.179688 463.679688 232.027344 479.636719 268.164062 " fill-opacity="1" fill-rule="nonzero"/><path fill="#eca26b" d="M 433.136719 316.417969 C 433.804688 313.277344 434.195312 309.757812 434.195312 306.023438 C 434.195312 292.96875 429.597656 282.386719 423.925781 282.386719 C 418.25 282.386719 413.65625 292.96875 413.65625 306.023438 C 413.65625 309.585938 413.992188 312.953125 414.621094 315.988281 C 410.953125 319.519531 403.480469 328.253906 416.933594 329.648438 C 416.933594 329.648438 421.851562 345.402344 429.324219 329.648438 C 429.324219 329.648438 444.167969 330.183594 433.136719 316.417969 " fill-opacity="1" fill-rule="nonzero"/><path fill="#291712" d="M 400.050781 292.535156 C 399.441406 290.648438 398.871094 288.769531 398.226562 286.910156 C 397.5625 285.0625 396.921875 283.210938 396.148438 281.421875 C 395.378906 279.644531 394.5 277.90625 393.375 276.425781 C 392.300781 274.9375 390.816406 273.785156 389.445312 274.222656 C 388.003906 274.601562 386.679688 276.097656 385.636719 277.613281 C 384.589844 279.164062 383.667969 280.859375 382.839844 282.621094 C 381.207031 286.121094 379.847656 289.8125 378.613281 293.503906 L 378.1875 294.785156 L 377.34375 293.8125 C 375.808594 292.035156 374.167969 290.3125 372.5 288.644531 C 370.839844 286.957031 369.105469 285.34375 367.128906 284.007812 C 369.332031 284.96875 371.246094 286.476562 373.125 287.945312 C 374.984375 289.46875 376.726562 291.101562 378.441406 292.796875 L 377.171875 293.105469 C 378.125 289.214844 379.382812 285.449219 381.027344 281.777344 C 381.871094 279.953125 382.777344 278.140625 383.964844 276.445312 C 384.554688 275.601562 385.21875 274.785156 386.015625 274.039062 C 386.796875 273.304688 387.757812 272.605469 388.980469 272.308594 C 390.214844 272.007812 391.59375 272.371094 392.539062 273.042969 C 393.5 273.714844 394.199219 274.558594 394.796875 275.417969 C 395.949219 277.179688 396.703125 279.054688 397.375 280.941406 C 398.027344 282.839844 398.582031 284.753906 398.988281 286.691406 C 399.40625 288.632812 399.785156 290.574219 400.050781 292.535156 " fill-opacity="1" fill-rule="nonzero"/><path fill="#291712" d="M 447.367188 292.535156 C 447.632812 290.574219 448.011719 288.632812 448.429688 286.691406 C 448.839844 284.742188 449.390625 282.839844 450.054688 280.941406 C 450.726562 279.054688 451.480469 277.179688 452.628906 275.417969 C 453.230469 274.558594 453.929688 273.714844 454.890625 273.042969 C 455.832031 272.371094 457.210938 272.007812 458.445312 272.316406 C 459.660156 272.605469 460.625 273.304688 461.414062 274.039062 C 462.210938 274.785156 462.863281 275.601562 463.460938 276.445312 C 464.652344 278.140625 465.558594 279.953125 466.402344 281.777344 C 468.042969 285.449219 469.3125 289.214844 470.257812 293.105469 L 468.988281 292.796875 C 470.703125 291.101562 472.433594 289.46875 474.304688 287.945312 C 476.179688 286.476562 478.105469 284.96875 480.300781 284.007812 C 478.324219 285.34375 476.589844 286.957031 474.929688 288.644531 C 473.261719 290.3125 471.628906 292.035156 470.085938 293.8125 L 469.242188 294.785156 L 468.816406 293.503906 C 467.582031 289.8125 466.21875 286.121094 464.578125 282.621094 C 463.761719 280.859375 462.835938 279.164062 461.785156 277.613281 C 460.742188 276.097656 459.425781 274.601562 457.984375 274.222656 C 456.613281 273.785156 455.117188 274.9375 454.046875 276.425781 C 452.929688 277.90625 452.050781 279.644531 451.277344 281.421875 C 450.507812 283.203125 449.855469 285.0625 449.191406 286.910156 C 448.539062 288.769531 447.984375 290.648438 447.367188 292.535156 " fill-opacity="1" fill-rule="nonzero"/><path fill="#ffffff" d="M 409.210938 349.558594 C 409.210938 349.558594 424.074219 355.410156 435.992188 349.558594 C 435.992188 349.558594 421.730469 405.964844 409.210938 349.558594 " fill-opacity="1" fill-rule="nonzero"/><path fill="#f46b28" d="M 332.519531 278.613281 C 332.519531 278.613281 399.597656 274.648438 423.628906 190.40625 C 423.628906 190.40625 443.566406 273.050781 516.460938 278.613281 C 516.460938 278.613281 517.894531 116.820312 428.878906 143.140625 C 428.878906 143.140625 332.519531 110.550781 332.519531 278.613281 " fill-opacity="1" fill-rule="nonzero"/><path fill="#db6022" d="M 423.628906 190.40625 C 423.628906 190.40625 443.566406 273.050781 516.460938 278.613281 C 459.246094 246.730469 424.488281 155.050781 424.488281 155.050781 C 410.082031 238.414062 332.519531 278.613281 332.519531 278.613281 C 332.519531 278.613281 399.597656 274.648438 423.628906 190.40625 " fill-opacity="1" fill-rule="nonzero"/><path fill="#75381f" d="M 516.460938 278.613281 C 516.441406 278.613281 516.425781 278.613281 516.40625 278.601562 C 516.425781 278.613281 516.441406 278.613281 516.460938 278.613281 " fill-opacity="1" fill-rule="nonzero"/><path fill="#75381f" d="M 516.460938 278.613281 C 516.0625 278.386719 515.664062 278.160156 515.253906 277.929688 L 512.949219 269.949219 C 512.105469 266.957031 511.0625 264.054688 510.128906 261.097656 C 508.050781 255.257812 505.863281 249.460938 503.34375 243.800781 C 500.800781 238.160156 498.070312 232.609375 495.058594 227.238281 C 492.121094 221.824219 488.808594 216.644531 485.535156 211.484375 C 483.738281 209 482.078125 206.429688 480.144531 204.074219 C 478.375 201.589844 476.390625 199.273438 474.441406 196.953125 C 472.398438 194.703125 470.3125 192.5 468.0625 190.46875 C 465.832031 188.425781 463.488281 186.53125 461.023438 184.78125 C 458.574219 183.03125 456.023438 181.40625 453.320312 180.074219 C 450.644531 178.667969 447.804688 177.644531 444.902344 176.789062 C 441.382812 175.785156 437.6875 175.183594 433.980469 175.183594 C 433.753906 175.183594 433.523438 175.183594 433.289062 175.195312 C 433.089844 174.769531 432.890625 174.339844 432.699219 173.933594 C 433.78125 173.777344 434.878906 173.679688 435.976562 173.625 C 436.589844 173.597656 437.207031 173.589844 437.835938 173.589844 C 440.394531 173.589844 442.96875 173.796875 445.492188 174.351562 C 451.742188 175.675781 457.738281 178.242188 463.117188 181.679688 C 465.785156 183.449219 468.324219 185.390625 470.730469 187.464844 C 473.152344 189.550781 475.390625 191.792969 477.605469 194.085938 C 479.703125 196.453125 481.832031 198.8125 483.730469 201.34375 C 485.6875 203.828125 487.347656 206.523438 489.136719 209.117188 C 490.722656 211.828125 492.5 214.449219 493.917969 217.253906 C 495.367188 220.046875 496.820312 222.832031 498.089844 225.6875 C 499.441406 228.515625 500.695312 231.382812 501.855469 234.285156 C 503.089844 237.160156 504.203125 240.074219 505.265625 243.019531 C 507.550781 248.816406 509.648438 254.675781 511.5625 260.609375 C 512.40625 263.121094 513.332031 265.613281 514.136719 268.144531 C 512.496094 257.089844 510.226562 246.113281 507.644531 235.285156 C 504.230469 221.015625 499.777344 206.992188 493.753906 193.796875 C 490.660156 187.238281 487.304688 180.800781 483.085938 174.996094 C 478.949219 169.152344 474.085938 163.800781 468.226562 159.820312 C 462.382812 155.847656 455.589844 153.21875 448.421875 152.644531 C 447.070312 152.527344 445.707031 152.472656 444.339844 152.472656 C 438.496094 152.472656 432.582031 153.488281 426.882812 155.285156 L 426.785156 155.050781 L 426.847656 154.804688 C 426.832031 154.796875 426.804688 154.785156 426.785156 154.785156 C 433.289062 152.039062 440.300781 149.980469 447.585938 149.980469 C 447.914062 149.980469 448.230469 149.980469 448.558594 149.988281 C 456.179688 150.050781 463.917969 152.253906 470.4375 156.390625 C 477.007812 160.464844 482.53125 165.96875 487.140625 172 C 491.703125 178.113281 495.503906 184.707031 498.617188 191.554688 C 504.894531 205.261719 508.847656 219.773438 511.941406 234.324219 C 513.441406 241.605469 514.601562 248.941406 515.488281 256.308594 C 516.53125 269.597656 516.460938 278.574219 516.460938 278.613281 " fill-opacity="1" fill-rule="nonzero"/><path fill="#71361e" d="M 516.460938 278.613281 C 516.441406 278.613281 516.425781 278.613281 516.40625 278.601562 C 516.070312 278.574219 515.753906 278.519531 515.425781 278.492188 L 515.253906 277.929688 C 515.664062 278.160156 516.0625 278.386719 516.460938 278.613281 M 426.867188 175.972656 L 426.785156 175.738281 L 426.820312 175.484375 C 426.8125 175.484375 426.792969 175.476562 426.765625 175.476562 C 428.679688 174.695312 430.667969 174.214844 432.699219 173.933594 C 432.890625 174.339844 433.089844 174.769531 433.289062 175.195312 C 431.140625 175.230469 428.988281 175.484375 426.867188 175.972656 " fill-opacity="1" fill-rule="nonzero"/><path fill="#75381f" d="M 332.519531 278.613281 C 332.519531 278.558594 332.519531 278.511719 332.519531 278.457031 C 332.519531 272.625 332.65625 267.054688 332.871094 261.703125 C 333.171875 259.84375 333.445312 257.96875 333.761719 256.101562 C 335.121094 248.707031 336.472656 241.304688 338.261719 234.015625 C 339.160156 230.367188 339.949219 226.695312 340.9375 223.066406 C 341.882812 219.421875 343.015625 215.835938 344.078125 212.210938 C 346.246094 205 348.875 197.886719 352.105469 190.996094 C 355.28125 184.074219 359.472656 177.605469 364.316406 171.628906 C 369.339844 165.796875 375.347656 160.683594 382.207031 156.992188 C 389.035156 153.207031 396.820312 151.421875 404.46875 151.121094 C 405.074219 151.105469 405.675781 151.09375 406.292969 151.09375 C 413.332031 151.09375 420.28125 152.5625 426.785156 154.785156 C 426.757812 154.796875 426.730469 154.804688 426.703125 154.8125 L 426.785156 155.050781 L 426.722656 155.292969 C 421.386719 154.207031 416.035156 153.589844 410.710938 153.589844 C 408.6875 153.589844 406.664062 153.679688 404.648438 153.859375 C 397.375 154.597656 390.378906 156.898438 384.109375 160.445312 C 377.832031 164.019531 372.425781 168.972656 367.746094 174.53125 C 362.953125 180.019531 359.089844 186.296875 355.425781 192.707031 C 351.851562 199.15625 348.777344 205.949219 346.136719 212.925781 C 344.792969 216.398438 343.703125 219.957031 342.632812 223.539062 C 341.601562 227.121094 340.554688 230.710938 339.777344 234.359375 C 338.1875 241.660156 336.820312 249.007812 336.003906 256.425781 C 335.894531 257.34375 335.839844 258.257812 335.738281 259.175781 C 337.625 253.125 339.757812 247.15625 342.136719 241.25 C 346.933594 229.277344 352.738281 217.578125 360.34375 206.976562 C 367.816406 196.34375 377.28125 186.757812 388.855469 180.355469 C 394.6875 177.308594 401.011719 175.113281 407.507812 174.296875 C 409.566406 174.023438 411.625 173.898438 413.675781 173.898438 C 415.753906 173.898438 417.832031 174.03125 419.882812 174.269531 C 419.753906 174.667969 419.636719 175.066406 419.5 175.476562 C 419.4375 175.476562 419.375 175.476562 419.308594 175.476562 C 409.132812 175.476562 399.160156 178.3125 390.722656 183.628906 C 380.054688 190.050781 371.710938 199.691406 364.617188 209.949219 C 357.585938 220.335938 351.734375 231.554688 346.726562 243.164062 C 342.027344 254.257812 337.960938 265.757812 334.757812 277.371094 C 333.316406 278.195312 332.519531 278.613281 332.519531 278.613281 " fill-opacity="1" fill-rule="nonzero"/><path fill="#71361e" d="M 332.519531 278.613281 C 332.519531 278.613281 333.316406 278.195312 334.757812 277.371094 C 334.667969 277.714844 334.570312 278.058594 334.476562 278.402344 C 333.234375 278.566406 332.519531 278.613281 332.519531 278.613281 M 426.738281 175.972656 C 424.328125 175.648438 421.914062 175.484375 419.5 175.476562 C 419.636719 175.066406 419.753906 174.667969 419.882812 174.269531 C 422.203125 174.539062 424.507812 174.949219 426.765625 175.476562 C 426.75 175.484375 426.722656 175.492188 426.703125 175.503906 L 426.785156 175.738281 L 426.738281 175.972656 " fill-opacity="1" fill-rule="nonzero"/><path fill="#582c1b" d="M 426.785156 155.050781 L 426.703125 154.8125 C 426.730469 154.804688 426.757812 154.796875 426.785156 154.785156 C 426.804688 154.785156 426.832031 154.796875 426.847656 154.804688 L 426.785156 155.050781 " fill-opacity="1" fill-rule="nonzero"/><path fill="#572b1a" d="M 426.785156 175.738281 L 426.703125 175.503906 C 426.722656 175.492188 426.75 175.484375 426.765625 175.476562 C 426.792969 175.476562 426.8125 175.484375 426.820312 175.484375 L 426.785156 175.738281 " fill-opacity="1" fill-rule="nonzero"/><path fill="#eaa476" d="M 442.132812 422.746094 C 442.152344 422.746094 442.179688 422.734375 442.1875 422.734375 C 442.171875 422.734375 442.152344 422.746094 442.132812 422.746094 M 442.242188 422.71875 C 442.261719 422.71875 442.296875 422.710938 442.316406 422.699219 C 442.289062 422.710938 442.269531 422.71875 442.242188 422.71875 M 442.34375 422.691406 C 442.371094 422.691406 442.398438 422.683594 442.425781 422.671875 C 442.398438 422.683594 442.371094 422.691406 442.34375 422.691406 " fill-opacity="1" fill-rule="nonzero"/><path fill="#f4d9c6" d="M 444.457031 422.121094 C 446.207031 421.628906 447.894531 421.105469 449.566406 420.558594 C 447.90625 421.105469 446.199219 421.628906 444.457031 422.121094 " fill-opacity="1" fill-rule="nonzero"/><path fill="#eaa476" d="M 442.441406 422.671875 C 443.125 422.492188 443.792969 422.308594 444.457031 422.121094 C 443.792969 422.300781 443.113281 422.492188 442.441406 422.671875 " fill-opacity="1" fill-rule="nonzero"/><path fill="#f4d9c6" d="M 449.574219 420.558594 C 449.589844 420.550781 449.628906 420.542969 449.644531 420.53125 C 449.628906 420.542969 449.601562 420.550781 449.574219 420.558594 M 449.683594 420.523438 C 449.699219 420.515625 449.726562 420.503906 449.746094 420.503906 C 449.726562 420.503906 449.699219 420.515625 449.683594 420.523438 M 449.800781 420.488281 C 449.820312 420.476562 449.828125 420.476562 449.847656 420.46875 C 449.828125 420.476562 449.820312 420.476562 449.800781 420.488281 M 449.945312 420.433594 C 449.953125 420.433594 449.945312 420.433594 449.953125 420.433594 C 449.953125 420.433594 449.953125 420.433594 449.945312 420.433594 M 450.054688 420.394531 C 450.0625 420.394531 450.074219 420.394531 450.074219 420.386719 C 450.074219 420.394531 450.0625 420.394531 450.054688 420.394531 M 450.171875 420.359375 L 450.179688 420.359375 C 450.179688 420.359375 450.171875 420.359375 450.171875 420.359375 " fill-opacity="1" fill-rule="nonzero"/><path fill="#f1af80" d="M 422.902344 426.292969 C 411.5625 426.292969 404.476562 422.507812 404.476562 422.507812 C 359.191406 410.308594 339.195312 379.5625 332.582031 344.105469 C 341.398438 359.507812 371.773438 405.65625 419.390625 405.648438 C 420.652344 405.648438 421.929688 405.621094 423.21875 405.546875 C 473.078125 402.980469 501.21875 370.554688 512.570312 352.886719 C 504.777344 382.800781 486.460938 408.222656 450.179688 420.359375 L 450.171875 420.359375 C 450.144531 420.367188 450.109375 420.378906 450.074219 420.386719 C 450.074219 420.394531 450.0625 420.394531 450.054688 420.394531 C 450.027344 420.40625 449.992188 420.421875 449.953125 420.433594 C 449.945312 420.433594 449.953125 420.433594 449.945312 420.433594 C 449.910156 420.449219 449.882812 420.460938 449.847656 420.46875 C 449.828125 420.476562 449.820312 420.476562 449.800781 420.488281 C 449.78125 420.488281 449.765625 420.496094 449.746094 420.503906 C 449.726562 420.503906 449.699219 420.515625 449.683594 420.523438 C 449.671875 420.523438 449.664062 420.53125 449.644531 420.53125 C 449.628906 420.542969 449.589844 420.550781 449.574219 420.558594 C 449.574219 420.558594 449.566406 420.558594 449.566406 420.558594 C 447.894531 421.105469 446.207031 421.628906 444.457031 422.121094 C 443.792969 422.308594 443.125 422.492188 442.441406 422.671875 C 442.433594 422.671875 442.433594 422.671875 442.425781 422.671875 C 442.398438 422.683594 442.371094 422.691406 442.34375 422.691406 C 442.335938 422.699219 442.324219 422.699219 442.316406 422.699219 C 442.296875 422.710938 442.261719 422.71875 442.242188 422.71875 C 442.226562 422.726562 442.207031 422.726562 442.1875 422.734375 C 442.179688 422.734375 442.152344 422.746094 442.132812 422.746094 C 442.105469 422.761719 442.0625 422.773438 442.027344 422.78125 C 434.867188 425.402344 428.390625 426.292969 422.902344 426.292969 " fill-opacity="1" fill-rule="nonzero"/><path fill="#6d3128" d="M 373.234375 449.566406 C 369.261719 451.523438 346.753906 502.917969 346.753906 502.917969 L 355.523438 502.917969 C 379.984375 462.171875 393.734375 444.902344 393.734375 444.902344 C 393.734375 444.902344 387.601562 442.5 373.234375 449.566406 " fill-opacity="1" fill-rule="nonzero"/><path fill="#6d3128" d="M 472.5625 449.566406 C 476.542969 451.523438 499.042969 502.917969 499.042969 502.917969 L 490.269531 502.917969 C 465.820312 462.171875 452.078125 444.902344 452.078125 444.902344 C 452.078125 444.902344 458.199219 442.5 472.5625 449.566406 " fill-opacity="1" fill-rule="nonzero"/><path fill="#fabf90" d="M 405.683594 544.585938 C 405.683594 572.183594 383.292969 594.550781 355.699219 594.550781 C 328.101562 594.550781 305.71875 572.183594 305.71875 544.585938 C 305.71875 516.984375 328.101562 494.617188 355.699219 494.617188 C 383.292969 494.617188 405.683594 516.984375 405.683594 544.585938 " fill-opacity="1" fill-rule="nonzero"/><path fill="#dbd8d5" d="M 405.683594 544.585938 C 405.683594 542.097656 405.4375 539.660156 405.085938 537.265625 C 353.574219 547.332031 306.347656 537.265625 306.328125 537.253906 C 305.964844 539.660156 305.71875 542.089844 305.71875 544.585938 C 305.71875 572.183594 328.101562 594.550781 355.699219 594.550781 C 383.292969 594.550781 405.683594 572.183594 405.683594 544.585938 " fill-opacity="1" fill-rule="nonzero"/><path fill="#ffffff" d="M 306.328125 537.253906 C 306.328125 537.253906 291.785156 548.4375 312.042969 544.585938 C 312.042969 544.585938 317.667969 544.464844 321.707031 547.605469 C 325.742188 550.742188 330.660156 551.597656 336.292969 546.480469 C 341.933594 541.375 346.398438 550.136719 346.398438 550.136719 C 346.398438 550.136719 353.148438 555.105469 361.222656 548.277344 C 361.222656 548.277344 364.371094 544.695312 371.554688 549.628906 C 378.730469 554.5625 381.871094 549.402344 384.128906 547.160156 C 386.378906 544.910156 394.234375 544.457031 397.148438 547.160156 C 397.148438 547.160156 419.066406 548.929688 405.085938 537.265625 C 405.085938 537.265625 361.222656 546.886719 306.328125 537.253906 " fill-opacity="1" fill-rule="nonzero"/><path fill="#fabf90" d="M 536.890625 544.585938 C 536.890625 572.183594 514.519531 594.550781 486.914062 594.550781 C 459.316406 594.550781 436.9375 572.183594 436.9375 544.585938 C 436.9375 516.984375 459.316406 494.617188 486.914062 494.617188 C 514.519531 494.617188 536.890625 516.984375 536.890625 544.585938 " fill-opacity="1" fill-rule="nonzero"/><path fill="#dbd8d5" d="M 536.890625 544.585938 C 536.890625 542.097656 536.65625 539.660156 536.292969 537.265625 C 484.789062 547.332031 437.554688 537.265625 437.535156 537.253906 C 437.179688 539.660156 436.9375 542.089844 436.9375 544.585938 C 436.9375 572.183594 459.316406 594.550781 486.914062 594.550781 C 514.519531 594.550781 536.890625 572.183594 536.890625 544.585938 " fill-opacity="1" fill-rule="nonzero"/><path fill="#ffffff" d="M 437.535156 537.253906 C 437.535156 537.253906 422.992188 548.4375 443.257812 544.585938 C 443.257812 544.585938 448.875 544.464844 452.921875 547.605469 C 456.957031 550.742188 461.875 551.597656 467.507812 546.480469 C 473.152344 541.375 477.625 550.136719 477.625 550.136719 C 477.625 550.136719 484.363281 555.105469 492.4375 548.277344 C 492.4375 548.277344 495.585938 544.695312 502.78125 549.628906 C 509.957031 554.5625 513.105469 549.402344 515.34375 547.160156 C 517.59375 544.910156 525.449219 544.457031 528.371094 547.160156 C 528.371094 547.160156 550.28125 548.929688 536.292969 537.265625 C 536.292969 537.265625 492.4375 546.886719 437.535156 537.253906 " fill-opacity="1" fill-rule="nonzero"/><path fill="#291712" d="M 382.339844 592.183594 C 405.546875 596.910156 428.734375 601.636719 451.933594 606.371094 L 452.078125 605.699219 L 451.859375 605.054688 C 451.160156 605.28125 450.5 605.535156 449.855469 605.699219 L 450.199219 607.023438 C 450.933594 606.824219 451.625 606.5625 452.277344 606.351562 L 454.761719 605.554688 L 452.203125 605.035156 C 429.015625 600.300781 405.820312 595.578125 382.613281 590.84375 L 382.339844 592.183594 " fill-opacity="1" fill-rule="nonzero"/><path fill="#291712" d="M 389.363281 605.644531 C 388.445312 605.464844 387.476562 605.054688 386.453125 604.738281 L 386.25 605.390625 L 386.371094 606.0625 C 409.875 601.988281 433.378906 597.917969 456.886719 593.84375 L 456.660156 592.492188 C 433.152344 596.566406 409.640625 600.648438 386.132812 604.71875 L 383.347656 605.199219 L 386.050781 606.042969 C 386.988281 606.335938 388.003906 606.75 389.089844 606.988281 L 389.363281 605.644531 " fill-opacity="1" fill-rule="nonzero"/><path fill="#291712" d="M 385.816406 592.484375 C 385.816406 594.316406 384.328125 595.8125 382.496094 595.8125 C 380.644531 595.8125 379.148438 594.316406 379.148438 592.484375 C 379.148438 590.644531 380.644531 589.144531 382.496094 589.144531 C 384.328125 589.144531 385.816406 590.644531 385.816406 592.484375 " fill-opacity="1" fill-rule="nonzero"/><path fill="#291712" d="M 385.816406 603.964844 C 385.816406 605.808594 384.328125 607.296875 382.496094 607.296875 C 380.644531 607.296875 379.148438 605.808594 379.148438 603.964844 C 379.148438 602.132812 380.644531 600.636719 382.496094 600.636719 C 384.328125 600.636719 385.816406 602.132812 385.816406 603.964844 " fill-opacity="1" fill-rule="nonzero"/><path fill="#291712" d="M 395.222656 624.238281 C 395.222656 626.070312 393.734375 627.566406 391.894531 627.566406 C 390.054688 627.566406 388.546875 626.070312 388.546875 624.238281 C 388.546875 622.398438 390.054688 620.902344 391.894531 620.902344 C 393.734375 620.902344 395.222656 622.398438 395.222656 624.238281 " fill-opacity="1" fill-rule="nonzero"/><path fill="#291712" d="M 406.917969 642.351562 C 406.917969 644.191406 405.4375 645.679688 403.597656 645.679688 C 401.753906 645.679688 400.257812 644.191406 400.257812 642.351562 C 400.257812 640.511719 401.753906 639.023438 403.597656 639.023438 C 405.4375 639.023438 406.917969 640.511719 406.917969 642.351562 " fill-opacity="1" fill-rule="nonzero"/><path fill="#291712" d="M 439.148438 642.351562 C 439.148438 644.191406 437.664062 645.679688 435.820312 645.679688 C 433.980469 645.679688 432.480469 644.191406 432.480469 642.351562 C 432.480469 640.511719 433.980469 639.023438 435.820312 639.023438 C 437.664062 639.023438 439.148438 640.511719 439.148438 642.351562 " fill-opacity="1" fill-rule="nonzero"/><path fill="#291712" d="M 449.601562 623.339844 C 449.601562 625.183594 448.113281 626.667969 446.261719 626.667969 C 444.429688 626.667969 442.933594 625.183594 442.933594 623.339844 C 442.933594 621.5 444.429688 620.003906 446.261719 620.003906 C 448.113281 620.003906 449.601562 621.5 449.601562 623.339844 " fill-opacity="1" fill-rule="nonzero"/><path fill="#291712" d="M 458.734375 605.492188 C 458.734375 607.324219 457.238281 608.820312 455.398438 608.820312 C 453.554688 608.820312 452.078125 607.324219 452.078125 605.492188 C 452.078125 603.648438 453.554688 602.160156 455.398438 602.160156 C 457.238281 602.160156 458.734375 603.648438 458.734375 605.492188 " fill-opacity="1" fill-rule="nonzero"/><path fill="#291712" d="M 460.105469 593.171875 C 460.105469 595.015625 458.617188 596.492188 456.765625 596.492188 C 454.925781 596.492188 453.4375 595.015625 453.4375 593.171875 C 453.4375 591.324219 454.925781 589.835938 456.765625 589.835938 C 458.617188 589.835938 460.105469 591.324219 460.105469 593.171875 " fill-opacity="1" fill-rule="nonzero"/><g clip-path="url(#075c58a178)"><path fill="#367ea4" d="M 447.851562 739.890625 L 392.574219 739.890625 C 389.789062 735.855469 374.730469 713.597656 359.398438 681.824219 C 376.238281 698.894531 397.464844 712.382812 422.476562 712.371094 C 438.640625 712.371094 456.394531 706.742188 475.574219 692.789062 C 462.300781 718.59375 450.34375 736.273438 447.851562 739.890625 " fill-opacity="1" fill-rule="nonzero"/></g><path fill="#fabf90" d="M 164.015625 444.515625 C 164.015625 444.515625 193.492188 446.410156 178.441406 415.0625 L 135.8125 415.0625 C 135.8125 415.0625 110.746094 439.523438 146.472656 444.53125 L 164.015625 444.515625 " fill-opacity="1" fill-rule="nonzero"/><path fill="#fef3d9" d="M 12.40625 506.261719 C 12.542969 502.5 13.667969 497.464844 18.496094 494.589844 L 18.496094 366.582031 C 70.378906 374.417969 122.269531 366.582031 122.269531 366.582031 L 122.269531 494.589844 C 122.269531 494.589844 128.445312 495.914062 129.226562 506.261719 L 12.40625 506.261719 " fill-opacity="1" fill-rule="nonzero"/><path fill="#fef3d9" d="M 114.875 416.488281 C 114.875 408.035156 122.632812 401.1875 132.183594 401.1875 C 141.738281 401.1875 149.484375 408.035156 149.484375 416.488281 L 149.484375 442.011719 C 149.484375 450.464844 141.738281 457.3125 132.183594 457.3125 C 122.632812 457.3125 114.875 450.464844 114.875 442.011719 L 114.875 416.488281 M 110.074219 410.945312 L 110.074219 447.5625 C 110.074219 459.6875 121.1875 469.511719 134.898438 469.511719 C 148.59375 469.511719 159.71875 459.6875 159.71875 447.5625 L 159.71875 410.945312 C 159.71875 398.816406 148.59375 388.984375 134.898438 388.984375 C 121.1875 388.984375 110.074219 398.816406 110.074219 410.945312 " fill-opacity="1" fill-rule="nonzero"/><path fill="#f3b527" d="M 23.375 373.367188 L 23.375 492.75 C 70.378906 518.679688 117.398438 492.75 117.398438 492.75 L 117.398438 373.367188 C 117.398438 373.367188 70.378906 380.46875 23.375 373.367188 " fill-opacity="1" fill-rule="nonzero"/><path fill="#ee9824" d="M 65.503906 494 C 53.105469 494 38.996094 492.578125 23.375 488.8125 L 23.375 492.75 L 23.375 482.035156 C 28.191406 482.652344 32.828125 482.945312 37.28125 482.945312 C 79.058594 482.945312 104.867188 457.65625 117.398438 440.859375 L 117.398438 484.429688 C 107.472656 488.550781 89.746094 494 65.503906 494 " fill-opacity="1" fill-rule="nonzero"/><path fill="#f0a27d" d="M 68.644531 504.269531 C 68.644531 504.269531 68.644531 504.269531 68.652344 504.269531 C 68.644531 504.269531 68.644531 504.269531 68.644531 504.269531 M 68.636719 504.269531 C 54.710938 504.269531 39.042969 501.390625 23.375 492.75 C 39.035156 501.382812 54.710938 504.269531 68.636719 504.269531 " fill-opacity="1" fill-rule="nonzero"/><path fill="#eb8223" d="M 68.644531 504.269531 C 68.644531 504.269531 68.636719 504.269531 68.636719 504.269531 C 54.710938 504.269531 39.035156 501.382812 23.375 492.75 L 23.375 488.8125 C 38.996094 492.578125 53.105469 494 65.503906 494 C 89.746094 494 107.472656 488.550781 117.398438 484.429688 L 117.398438 492.75 C 117.117188 492.902344 96.3125 504.269531 68.652344 504.269531 C 68.644531 504.269531 68.644531 504.269531 68.644531 504.269531 " fill-opacity="1" fill-rule="nonzero"/><path fill="#fef3d9" d="M 94.71875 392.722656 C 94.71875 394.992188 96.566406 396.824219 98.828125 396.824219 C 101.085938 396.824219 102.925781 394.992188 102.925781 392.722656 C 102.925781 390.457031 101.085938 388.625 98.828125 388.625 C 96.566406 388.625 94.71875 390.457031 94.71875 392.722656 " fill-opacity="1" fill-rule="nonzero"/><path fill="#fef3d9" d="M 46.546875 422.628906 C 46.546875 424.894531 48.386719 426.734375 50.644531 426.734375 C 52.90625 426.734375 54.746094 424.894531 54.746094 422.628906 C 54.746094 420.359375 52.90625 418.535156 50.644531 418.535156 C 48.386719 418.535156 46.546875 420.359375 46.546875 422.628906 " fill-opacity="1" fill-rule="nonzero"/><path fill="#fef3d9" d="M 62.183594 444.351562 C 62.183594 446.617188 64.007812 448.449219 66.277344 448.449219 C 68.554688 448.449219 70.378906 446.617188 70.378906 444.351562 C 70.378906 442.082031 68.554688 440.242188 66.277344 440.242188 C 64.007812 440.242188 62.183594 442.082031 62.183594 444.351562 " fill-opacity="1" fill-rule="nonzero"/><path fill="#fef3d9" d="M 82.5625 460.230469 C 82.5625 462.492188 84.394531 464.332031 86.660156 464.332031 C 88.929688 464.332031 90.769531 462.492188 90.769531 460.230469 C 90.769531 457.957031 88.929688 456.125 86.660156 456.125 C 84.394531 456.125 82.5625 457.957031 82.5625 460.230469 " fill-opacity="1" fill-rule="nonzero"/><path fill="#fef3d9" d="M 39.679688 474.691406 C 39.679688 476.957031 41.519531 478.796875 43.777344 478.796875 C 46.046875 478.796875 47.878906 476.957031 47.878906 474.691406 C 47.878906 472.421875 46.046875 470.589844 43.777344 470.589844 C 41.519531 470.589844 39.679688 472.421875 39.679688 474.691406 " fill-opacity="1" fill-rule="nonzero"/><path fill="#fef3d9" d="M 58.085938 391.582031 C 58.085938 393.847656 59.910156 395.6875 62.183594 395.6875 C 64.453125 395.6875 66.277344 393.847656 66.277344 391.582031 C 66.277344 389.320312 64.453125 387.488281 62.183594 387.488281 C 59.910156 387.488281 58.085938 389.320312 58.085938 391.582031 " fill-opacity="1" fill-rule="nonzero"/><path fill="#fef3d9" d="M 88.105469 426.734375 C 88.105469 428.125 89.21875 429.25 90.617188 429.25 C 92.003906 429.25 93.128906 428.125 93.128906 426.734375 C 93.128906 425.339844 92.003906 424.222656 90.617188 424.222656 C 89.21875 424.222656 88.105469 425.339844 88.105469 426.734375 " fill-opacity="1" fill-rule="nonzero"/><path fill="#fef3d9" d="M 32.910156 453.609375 C 32.910156 455.007812 34.035156 456.125 35.421875 456.125 C 36.8125 456.125 37.9375 455.007812 37.9375 453.609375 C 37.9375 452.222656 36.8125 451.089844 35.421875 451.089844 C 34.035156 451.089844 32.910156 452.222656 32.910156 453.609375 " fill-opacity="1" fill-rule="nonzero"/><path fill="#fef3d9" d="M 73.941406 466.84375 C 73.941406 468.230469 75.078125 469.355469 76.457031 469.355469 C 77.851562 469.355469 78.976562 468.230469 78.976562 466.84375 C 78.976562 465.457031 77.851562 464.332031 76.457031 464.332031 C 75.078125 464.332031 73.941406 465.457031 73.941406 466.84375 " fill-opacity="1" fill-rule="nonzero"/><path fill="#fef3d9" d="M 88.105469 481.3125 C 88.105469 482.699219 89.21875 483.824219 90.617188 483.824219 C 92.003906 483.824219 93.128906 482.699219 93.128906 481.3125 C 93.128906 479.914062 92.003906 478.796875 90.617188 478.796875 C 89.21875 478.796875 88.105469 479.914062 88.105469 481.3125 " fill-opacity="1" fill-rule="nonzero"/><path fill="#fef3d9" d="M 107.570312 458.636719 C 107.570312 460.023438 108.679688 461.15625 110.074219 461.15625 C 111.472656 461.15625 112.589844 460.023438 112.589844 458.636719 C 112.589844 457.25 111.472656 456.125 110.074219 456.125 C 108.679688 456.125 107.570312 457.25 107.570312 458.636719 " fill-opacity="1" fill-rule="nonzero"/><path fill="#fef3d9" d="M 85.589844 401.59375 C 85.589844 402.980469 86.714844 404.105469 88.105469 404.105469 C 89.492188 404.105469 90.617188 402.980469 90.617188 401.59375 C 90.617188 400.195312 89.492188 399.074219 88.105469 399.074219 C 86.714844 399.074219 85.589844 400.195312 85.589844 401.59375 " fill-opacity="1" fill-rule="nonzero"/><path fill="#fef3d9" d="M 37.164062 431.761719 C 37.164062 433.148438 38.28125 434.28125 39.679688 434.28125 C 41.066406 434.28125 42.199219 433.148438 42.199219 431.761719 C 42.199219 430.375 41.066406 429.25 39.679688 429.25 C 38.28125 429.25 37.164062 430.375 37.164062 431.761719 " fill-opacity="1" fill-rule="nonzero"/><path fill="#fef3d9" d="M 41.265625 399.074219 C 41.265625 400.460938 42.398438 401.59375 43.777344 401.59375 C 45.167969 401.59375 46.292969 400.460938 46.292969 399.074219 C 46.292969 397.683594 45.167969 396.558594 43.777344 396.558594 C 42.398438 396.558594 41.265625 397.683594 41.265625 399.074219 " fill-opacity="1" fill-rule="nonzero"/><path fill="#fef3d9" d="M 103.851562 426.734375 C 103.851562 428.125 104.988281 429.25 106.367188 429.25 C 107.761719 429.25 108.886719 428.125 108.886719 426.734375 C 108.886719 425.339844 107.761719 424.222656 106.367188 424.222656 C 104.988281 424.222656 103.851562 425.339844 103.851562 426.734375 " fill-opacity="1" fill-rule="nonzero"/><path fill="#ffffff" d="M 47.523438 330.835938 C 47.523438 346.382812 60.144531 358.980469 75.683594 358.980469 C 91.222656 358.980469 103.824219 346.382812 103.824219 330.835938 C 103.824219 315.300781 91.222656 302.703125 75.683594 302.703125 C 60.144531 302.703125 47.523438 315.300781 47.523438 330.835938 " fill-opacity="1" fill-rule="nonzero"/><path fill="#ffffff" d="M 24.039062 339.5625 C 24.039062 348.707031 31.457031 356.132812 40.613281 356.132812 C 49.765625 356.132812 57.195312 348.707031 57.195312 339.5625 C 57.195312 330.410156 49.765625 322.992188 40.613281 322.992188 C 31.457031 322.992188 24.039062 330.410156 24.039062 339.5625 " fill-opacity="1" fill-rule="nonzero"/><path fill="#ffffff" d="M 0.894531 349.839844 C 0.894531 359.15625 8.445312 366.691406 17.761719 366.691406 C 27.066406 366.691406 34.605469 359.15625 34.605469 349.839844 C 34.605469 340.535156 27.066406 332.988281 17.761719 332.988281 C 8.445312 332.988281 0.894531 340.535156 0.894531 349.839844 " fill-opacity="1" fill-rule="nonzero"/><path fill="#ffffff" d="M 13.242188 362.699219 C 13.242188 372.160156 20.917969 379.835938 30.386719 379.835938 C 39.859375 379.835938 47.523438 372.160156 47.523438 362.699219 C 47.523438 353.230469 39.859375 345.558594 30.386719 345.558594 C 20.917969 345.558594 13.242188 353.230469 13.242188 362.699219 " fill-opacity="1" fill-rule="nonzero"/><path fill="#ffffff" d="M 40.613281 358.410156 C 40.613281 371.507812 51.234375 382.128906 64.335938 382.128906 C 77.425781 382.128906 88.050781 371.507812 88.050781 358.410156 C 88.050781 345.3125 77.425781 334.703125 64.335938 334.703125 C 51.234375 334.703125 40.613281 345.3125 40.613281 358.410156 " fill-opacity="1" fill-rule="nonzero"/><path fill="#ffffff" d="M 64.742188 345.558594 C 64.742188 365.667969 81.054688 381.984375 101.175781 381.984375 C 121.296875 381.984375 137.609375 365.667969 137.609375 345.558594 C 137.609375 325.441406 121.296875 309.132812 101.175781 309.132812 C 81.054688 309.132812 64.742188 325.441406 64.742188 345.558594 " fill-opacity="1" fill-rule="nonzero"/><path fill="#ffffff" d="M 104.921875 395.226562 C 104.921875 410.363281 110.023438 422.628906 116.289062 422.628906 C 122.550781 422.628906 127.640625 410.363281 127.640625 395.226562 C 127.640625 380.097656 122.550781 367.824219 116.289062 367.824219 C 110.023438 367.824219 104.921875 380.097656 104.921875 395.226562 " fill-opacity="1" fill-rule="nonzero"/><path fill="#ffffff" d="M 98.464844 381.140625 C 98.464844 385.332031 101.710938 388.730469 105.722656 388.730469 C 109.730469 388.730469 112.96875 385.332031 112.96875 381.140625 C 112.96875 376.949219 109.730469 373.550781 105.722656 373.550781 C 101.710938 373.550781 98.464844 376.949219 98.464844 381.140625 " fill-opacity="1" fill-rule="nonzero"/><path fill="#ffffff" d="M 119.355469 376.859375 C 119.355469 381.847656 122.648438 385.894531 126.714844 385.894531 C 130.769531 385.894531 134.070312 381.847656 134.070312 376.859375 C 134.070312 371.863281 130.769531 367.824219 126.714844 367.824219 C 122.648438 367.824219 119.355469 371.863281 119.355469 376.859375 " fill-opacity="1" fill-rule="nonzero"/><path fill="#ffffff" d="M 112.578125 391.824219 C 112.578125 397.730469 116.753906 402.519531 121.878906 402.519531 C 127.003906 402.519531 131.160156 397.730469 131.160156 391.824219 C 131.160156 385.929688 127.003906 381.140625 121.878906 381.140625 C 116.753906 381.140625 112.578125 385.929688 112.578125 391.824219 " fill-opacity="1" fill-rule="nonzero"/><path fill="#fabf90" d="M 170.121094 433.867188 C 162.503906 434.375 155.761719 426.335938 155.0625 415.90625 C 154.363281 405.476562 159.980469 396.605469 167.59375 396.097656 C 175.210938 395.589844 181.953125 403.625 182.660156 414.054688 C 183.359375 424.488281 177.742188 433.355469 170.121094 433.867188 " fill-opacity="1" fill-rule="nonzero"/><path fill="#fabf90" d="M 159.71875 418.535156 C 159.71875 429.910156 153.546875 439.144531 145.945312 439.144531 C 138.34375 439.144531 132.183594 429.910156 132.183594 418.535156 C 132.183594 407.144531 138.34375 397.921875 145.945312 397.921875 C 153.546875 397.921875 159.71875 407.144531 159.71875 418.535156 " fill-opacity="1" fill-rule="nonzero"/></svg>